<?xml version="1.0" standalone="no"?>
<!DOCTYPE svg PUBLIC "-//W3C//DTD SVG 1.1//EN" "http://www.w3.org/Graphics/SVG/1.1/DTD/svg11.dtd" >
<svg xmlns="http://www.w3.org/2000/svg" xmlns:xlink="http://www.w3.org/1999/xlink" version="1.1">
<metadata>
Created by FontForge 20160405 at Mon May  2 22:02:30 2016
 By www-data
Copyright 2004 Process Type Foundry. All rights reserved.
</metadata>
<defs>
<font id="Klavika-Medium" horiz-adv-x="525" >
  <font-face 
    font-family="Klavika Md"
    font-weight="500"
    font-stretch="normal"
    units-per-em="1000"
    panose-1="2 0 0 0 0 0 0 0 0 0"
    ascent="750"
    descent="-250"
    x-height="487"
    cap-height="666"
    bbox="-20 -295 1203 1008"
    underline-thickness="20"
    underline-position="-133"
    stemh="104"
    stemv="122"
    unicode-range="U+0020-FB02"
  />
<missing-glyph horiz-adv-x="636" 
d="M85 0v666h466v-666h-466zM502 616h-340l340 -527v527zM134 576v-527h339z" />
    <glyph glyph-name="fi" unicode="fi" horiz-adv-x="625" 
d="M555 0h-122v390h-208v-390h-122v390h-78v97h78v68c0 101 47 151 155 151c38 0 64 -5 96 -13l-13 -94c-21 5 -41 7 -61 7c-48 0 -55 -21 -55 -58v-61h330v-487zM555 556h-122v141h122v-141z" />
    <glyph glyph-name="fl" unicode="fl" horiz-adv-x="625" 
d="M354 693l-13 -94c-20 4 -45 7 -61 7c-48 0 -55 -21 -55 -58v-61h124l-7 -97h-117v-390h-122v390h-78v97h78v68c0 101 47 151 155 151c30 0 65 -4 96 -13zM555 0h-122v686l122 17v-703z" />
    <glyph glyph-name="f_f" unicode="ff" horiz-adv-x="726" 
d="M726 692l-13 -94c-23 5 -50 8 -70 8c-48 0 -55 -21 -55 -58v-61h124l-7 -97h-117v-390h-122v390h-241v-390h-122v390h-78v97h78v68c0 101 47 151 155 151c38 0 79 -5 120 -16l-14 -94c-31 6 -64 10 -84 10c-48 0 -55 -21 -55 -58v-61h241v68c0 101 47 151 155 151
c38 0 73 -5 105 -14z" />
    <glyph glyph-name="f_f_i" unicode="ffi" horiz-adv-x="988" 
d="M918 0h-122v390h-208v-390h-122v390h-241v-390h-122v390h-78v97h78v68c0 101 47 151 155 151c42 0 84 -5 126 -16l-14 -94c-32 6 -65 10 -90 10c-48 0 -55 -21 -55 -58v-61h241v68c0 101 47 151 155 151c28 0 58 -3 92 -12l-13 -94c-20 4 -41 6 -57 6
c-48 0 -55 -21 -55 -58v-61h330v-487zM918 556h-122v141h122v-141z" />
    <glyph glyph-name="f_j" unicode="fj" horiz-adv-x="620" 
d="M225 487h330v-513c0 -62 -22 -91 -127 -181l-71 78c70 65 76 69 76 119v400h-208v-390h-122v390h-78v97h78v68c0 101 47 151 155 151c38 0 64 -5 96 -13l-13 -94c-21 5 -41 7 -61 7c-48 0 -55 -21 -55 -58v-61zM555 556h-122v141h122v-141z" />
    <glyph glyph-name="f_f_j" unicode="ffj" horiz-adv-x="983" 
d="M588 487h330v-513c0 -62 -22 -91 -127 -181l-71 78c70 65 76 69 76 119v400h-208v-390h-122v390h-241v-390h-122v390h-78v97h78v68c0 101 47 151 155 151c42 0 84 -5 126 -16l-14 -94c-32 6 -65 10 -90 10c-48 0 -55 -21 -55 -58v-61h241v68c0 101 47 151 155 151
c28 0 58 -3 92 -12l-13 -94c-20 4 -41 6 -57 6c-48 0 -55 -21 -55 -58v-61zM918 556h-122v141h122v-141z" />
    <glyph glyph-name="f_f_l" unicode="ffl" horiz-adv-x="988" 
d="M717 693l-13 -94c-20 4 -45 7 -61 7c-48 0 -55 -21 -55 -58v-61h124l-7 -97h-117v-390h-122v390h-241v-390h-122v390h-78v97h78v68c0 101 47 151 155 151c38 0 79 -5 120 -16l-14 -94c-31 6 -64 10 -84 10c-48 0 -55 -21 -55 -58v-61h241v68c0 101 47 151 155 151
c30 0 65 -4 96 -13zM918 0h-122v686l122 17v-703z" />
    <glyph glyph-name=".notdef" horiz-adv-x="636" 
d="M85 0v666h466v-666h-466zM502 616h-340l340 -527v527zM134 576v-527h339z" />
    <glyph glyph-name="space" unicode=" " horiz-adv-x="210" 
 />
    <glyph glyph-name="exclam" unicode="!" horiz-adv-x="284" 
d="M178 216h-72l-25 173v297h122v-297zM80 0v140h124v-140h-124z" />
    <glyph glyph-name="quotedbl" unicode="&#x22;" horiz-adv-x="387" 
d="M147 439h-87v247h87v-247zM327 439h-87v247h87v-247z" />
    <glyph glyph-name="numbersign" unicode="#" horiz-adv-x="698" 
d="M631 163h-121l-8 -163h-90l8 163h-155l-9 -163h-90l8 163h-124l5 84h123l8 159h-126l5 84h125l8 156h91l-8 -156h155l8 156h91l-9 -156h120l-5 -84h-119l-8 -159h122zM276 406l-8 -159h156l7 159h-155z" />
    <glyph glyph-name="dollar" unicode="$" horiz-adv-x="506" 
d="M298 -118h-100v110c-50 3 -103 14 -148 31l22 100c45 -14 103 -27 162 -27c84 0 96 20 96 83s-5 74 -107 98c-151 36 -169 72 -169 198c0 114 42 169 168 179v112h101v-112c37 -2 82 -8 118 -17l-13 -105c-48 10 -114 17 -163 17c-69 0 -89 -11 -89 -77
c0 -64 4 -66 99 -92c171 -48 177 -81 177 -200c0 -115 -34 -174 -154 -187v-111z" />
    <glyph glyph-name="percent" unicode="%" horiz-adv-x="877" 
d="M607 645l-269 -655l-77 31l269 655zM362 454c0 -83 -36 -142 -156 -142s-156 59 -156 142v80c0 83 36 142 156 142s156 -59 156 -142v-80zM266 541c0 36 -14 52 -60 52s-60 -16 -60 -52v-94c0 -36 14 -52 60 -52s60 16 60 52v94zM822 132c0 -83 -36 -142 -156 -142
s-156 59 -156 142v80c0 83 36 142 156 142s156 -59 156 -142v-80zM726 219c0 36 -14 52 -60 52s-60 -16 -60 -52v-94c0 -36 14 -52 60 -52s60 16 60 52v94z" />
    <glyph glyph-name="ampersand" unicode="&#x26;" horiz-adv-x="655" 
d="M610 281h-97v-258c-70 -23 -158 -33 -232 -33c-159 0 -211 66 -211 164v56c0 62 23 111 81 132c-53 26 -69 70 -69 121v52c0 97 52 161 211 161c66 0 134 -6 198 -20l-11 -100c-61 11 -133 16 -192 16c-62 0 -83 -19 -83 -62v-60c0 -40 18 -66 69 -66h336v-103zM284 91
c30 0 75 2 113 9v181h-113c-59 0 -91 -22 -91 -72v-42c0 -52 18 -76 91 -76z" />
    <glyph glyph-name="quotesingle" unicode="'" horiz-adv-x="207" 
d="M147 439h-87v247h87v-247z" />
    <glyph glyph-name="parenleft" unicode="(" horiz-adv-x="335" 
d="M315 -102l-90 -52c-92 119 -155 269 -155 458c0 190 63 339 155 458l90 -52c-81 -132 -122 -244 -122 -406s41 -274 122 -406z" />
    <glyph glyph-name="parenright" unicode=")" horiz-adv-x="335" 
d="M110 -154l-90 52c81 132 122 244 122 406s-41 274 -122 406l90 52c92 -119 155 -268 155 -458c0 -189 -63 -339 -155 -458z" />
    <glyph glyph-name="asterisk" unicode="*" horiz-adv-x="502" 
d="M121 375l73 113h-134v59h136l-74 117l49 32l79 -122l79 122l50 -32l-76 -117h139v-59h-136l73 -113l-51 -32l-78 121l-78 -121z" />
    <glyph glyph-name="plus" unicode="+" horiz-adv-x="528" 
d="M60 195v96h154v155h100v-155h154v-96h-154v-155h-100v155h-154z" />
    <glyph glyph-name="comma" unicode="," horiz-adv-x="274" 
d="M75 0v140h124v-148l-78 -131l-56 31l56 108h-46z" />
    <glyph glyph-name="hyphen" unicode="-" horiz-adv-x="372" 
d="M60 229v102h252v-102h-252z" />
    <glyph glyph-name="period" unicode="." horiz-adv-x="274" 
d="M75 0v140h124v-140h-124z" />
    <glyph glyph-name="slash" unicode="/" horiz-adv-x="459" 
d="M414 676l-249 -793h-110l248 793h111z" />
    <glyph glyph-name="zero" unicode="0" horiz-adv-x="562" 
d="M497 477v-308c0 -100 -53 -179 -216 -179s-216 79 -216 179v308c0 100 53 179 216 179s216 -79 216 -179zM187 465v-284c0 -58 17 -84 94 -84s94 26 94 84v284c0 58 -17 84 -94 84s-94 -26 -94 -84z" />
    <glyph glyph-name="one" unicode="1" horiz-adv-x="384" 
d="M182 511l-121 -67l-51 96l184 106h110v-646h-122v511z" />
    <glyph glyph-name="two" unicode="2" horiz-adv-x="501" 
d="M53 0v105c76 83 86 93 155 173c94 109 109 125 109 190v17c0 49 -20 63 -93 63c-44 0 -107 -9 -157 -20l-17 102c45 13 109 26 181 26c154 0 208 -53 208 -157v-23c0 -92 -8 -113 -101 -227c-56 -69 -80 -97 -119 -142h222v-107h-388z" />
    <glyph glyph-name="three" unicode="3" horiz-adv-x="492" 
d="M50 11l13 101c49 -10 96 -15 143 -15c88 0 104 18 104 70v39c0 49 -22 64 -72 64h-143v109h121c67 0 82 23 82 70v39c0 48 -22 61 -92 61c-49 0 -96 -6 -138 -14l-13 103c44 11 105 18 162 18c157 0 203 -52 203 -147v-62c0 -65 -20 -98 -72 -121c57 -19 84 -53 84 -121
v-57c0 -100 -49 -158 -222 -158c-45 0 -121 8 -160 21z" />
    <glyph glyph-name="four" unicode="4" horiz-adv-x="565" 
d="M535 142h-85v-142h-120v142h-302v113l259 391h163v-400h85v-104zM150 246h180v279z" />
    <glyph glyph-name="five" unicode="5" horiz-adv-x="502" 
d="M80 279v367h356v-106h-234v-161c36 -1 52 -2 90 -4c117 -6 155 -65 155 -153v-61c0 -105 -38 -171 -217 -171c-61 0 -123 10 -170 24l15 100c49 -11 105 -17 153 -17c91 0 97 22 97 75v32c0 47 -15 67 -86 70c-72 3 -106 4 -159 5z" />
    <glyph glyph-name="six" unicode="6" horiz-adv-x="526" 
d="M182 429v-62c35 12 76 18 119 18c121 0 170 -50 170 -165v-48c0 -104 -48 -182 -205 -182c-172 0 -206 76 -206 191v243c0 176 94 232 276 232c37 0 85 -5 115 -12l-8 -102c-29 6 -73 9 -94 9c-118 0 -167 -20 -167 -122zM282 280c-36 0 -72 -9 -100 -21v-91
c0 -55 21 -73 84 -73s83 22 83 73v49c0 48 -23 63 -67 63z" />
    <glyph glyph-name="seven" unicode="7" horiz-adv-x="460" 
d="M25 539v107h405v-103l-231 -543h-127l230 539h-277z" />
    <glyph glyph-name="eight" unicode="8" horiz-adv-x="546" 
d="M470 453c0 -49 -16 -88 -79 -124c75 -37 95 -76 95 -131v-42c0 -118 -57 -166 -213 -166s-213 48 -213 166v42c0 55 21 94 95 131c-62 36 -79 75 -79 124v45c0 97 53 158 197 158s197 -61 197 -158v-45zM368 185c0 42 -10 60 -95 93c-85 -33 -95 -51 -95 -93v-27
c0 -49 23 -67 95 -67s95 18 95 67v27zM194 453c0 -37 10 -51 79 -78c69 27 79 41 79 78v42c0 40 -16 61 -79 61s-79 -21 -79 -61v-42z" />
    <glyph glyph-name="nine" unicode="9" horiz-adv-x="521" 
d="M339 217v62c-35 -12 -76 -18 -119 -18c-121 0 -170 50 -170 165v48c0 112 53 182 205 182c172 0 206 -76 206 -191v-243c0 -176 -94 -232 -276 -232c-37 0 -85 5 -115 12l11 102c29 -6 70 -9 91 -9c129 0 167 30 167 122zM239 366c36 0 72 9 100 21v91
c0 55 -21 73 -84 73s-83 -22 -83 -73v-49c0 -48 23 -63 67 -63z" />
    <glyph glyph-name="colon" unicode=":" horiz-adv-x="274" 
d="M75 0v140h124v-140h-124zM75 304v140h124v-140h-124z" />
    <glyph glyph-name="semicolon" unicode=";" horiz-adv-x="274" 
d="M75 304v140h124v-140h-124zM75 0v140h124v-148l-78 -131l-56 31l56 108h-46z" />
    <glyph glyph-name="less" unicode="&#x3c;" horiz-adv-x="586" 
d="M50 211v66l432 220l38 -74l-355 -179l356 -179l-39 -75z" />
    <glyph glyph-name="equal" unicode="=" horiz-adv-x="539" 
d="M70 302v84h399v-84h-399zM70 114v84h399v-84h-399z" />
    <glyph glyph-name="greater" unicode="&#x3e;" horiz-adv-x="586" 
d="M536 277v-66l-432 -221l-39 75l356 179l-355 179l38 74z" />
    <glyph glyph-name="question" unicode="?" horiz-adv-x="491" 
d="M229 218l-69 93c32 25 56 44 92 73c59 47 62 59 62 119c0 63 -17 84 -103 84c-43 0 -99 -7 -143 -18l-18 105c50 13 116 22 174 22c173 0 212 -60 212 -186c0 -95 -4 -131 -81 -194c-43 -35 -71 -56 -126 -98zM147 0v140h124v-140h-124z" />
    <glyph glyph-name="at" unicode="@" horiz-adv-x="738" 
d="M411 294l23 132c-17 7 -38 11 -54 11c-31 0 -43 -12 -48 -39c-5 -30 -12 -70 -17 -98c-4 -23 4 -31 23 -31c18 0 50 9 73 25zM245 301c9 51 11 62 18 102c13 73 51 94 120 94c39 0 97 -15 129 -34l-37 -207c11 -3 24 -5 35 -5c85 0 103 73 103 149
c0 112 -75 202 -227 202c-147 0 -253 -111 -253 -269c0 -165 96 -268 277 -268c50 0 101 8 155 29l23 -67c-51 -25 -119 -37 -177 -37c-239 0 -361 142 -361 343c0 196 137 343 336 343c197 0 307 -125 307 -274c0 -108 -37 -215 -181 -215c-44 0 -86 17 -100 47
c-25 -15 -63 -25 -98 -25c-63 0 -77 47 -69 92z" />
    <glyph glyph-name="A" unicode="A" horiz-adv-x="646" 
d="M489 0l-43 138h-247l-42 -138h-132l210 666h176l210 -666h-132zM323 562l-93 -315h184z" />
    <glyph glyph-name="B" unicode="B" horiz-adv-x="577" 
d="M355 0h-280v666h262c126 0 177 -52 177 -142v-69c0 -55 -23 -86 -74 -108c61 -13 97 -58 97 -123v-71c0 -94 -61 -153 -182 -153zM411 169v50c0 45 -20 67 -70 67h-140v-182h129c57 0 81 16 81 65zM388 449v59c0 37 -20 54 -66 54h-121v-175h120c49 0 67 23 67 62z" />
    <glyph glyph-name="C" unicode="C" horiz-adv-x="523" 
d="M60 183v300c0 122 71 193 237 193c62 0 126 -8 181 -22l-14 -109c-54 10 -117 17 -163 17c-87 0 -115 -30 -115 -101v-256c0 -71 28 -101 115 -101c46 0 109 7 163 17l14 -109c-55 -14 -119 -22 -181 -22c-166 0 -237 71 -237 193z" />
    <glyph glyph-name="D" unicode="D" horiz-adv-x="604" 
d="M75 666h248c164 0 221 -83 221 -179v-308c0 -95 -57 -179 -221 -179h-248v666zM201 555v-444h109c85 0 108 34 108 98v248c0 64 -23 98 -108 98h-109z" />
    <glyph glyph-name="E" unicode="E" horiz-adv-x="538" 
d="M75 0v666h408v-111h-282v-161h260v-111h-260v-172h282v-111h-408z" />
    <glyph glyph-name="F" unicode="F" horiz-adv-x="522" 
d="M201 0h-126v666h412v-111h-286v-177h264v-111h-264v-267z" />
    <glyph glyph-name="G" unicode="G" horiz-adv-x="584" 
d="M186 458v-252c0 -65 28 -103 116 -103c34 0 69 3 103 8v202h119v-293c-70 -20 -153 -30 -223 -30c-163 0 -241 69 -241 201v284c0 137 80 201 253 201c54 0 131 -6 191 -22l-14 -110c-61 13 -122 18 -187 18c-88 0 -117 -36 -117 -104z" />
    <glyph glyph-name="H" unicode="H" horiz-adv-x="649" 
d="M574 0h-126v281h-247v-281h-126v666h126v-274h247v274h126v-666z" />
    <glyph glyph-name="I" unicode="I" horiz-adv-x="286" 
d="M206 666v-666h-126v666h126z" />
    <glyph glyph-name="J" unicode="J" horiz-adv-x="271" 
d="M75 666h126v-677c0 -69 -28 -103 -136 -195l-75 85c76 73 85 79 85 121v666z" />
    <glyph glyph-name="K" unicode="K" horiz-adv-x="612" 
d="M201 666v-666h-126v666h126zM568 666l-210 -329l224 -337h-145l-218 337l206 329h143z" />
    <glyph glyph-name="L" unicode="L" horiz-adv-x="505" 
d="M201 666v-555h274v-111h-400v666h126z" />
    <glyph glyph-name="M" unicode="M" horiz-adv-x="816" 
d="M611 431l-123 -345h-160l-123 345l-11 -431h-129l30 666h141l172 -473l172 473h141l30 -666h-129z" />
    <glyph glyph-name="N" unicode="N" horiz-adv-x="694" 
d="M451 0l-253 505v-505h-123v666h168l253 -506v506h123v-666h-168z" />
    <glyph glyph-name="O" unicode="O" horiz-adv-x="624" 
d="M564 471v-276c0 -111 -64 -205 -252 -205s-252 94 -252 205v276c0 111 64 205 252 205s252 -94 252 -205zM186 464v-262c0 -63 32 -101 126 -101s126 38 126 101v262c0 63 -32 101 -126 101s-126 -38 -126 -101z" />
    <glyph glyph-name="P" unicode="P" horiz-adv-x="576" 
d="M75 0v666h260c154 0 211 -63 211 -180v-91c0 -116 -62 -179 -217 -179h-128v-216h-126zM420 476c0 55 -23 79 -92 79h-127v-228h127c71 0 92 26 92 81v68z" />
    <glyph glyph-name="Q" unicode="Q" horiz-adv-x="624" 
d="M343 -173l-70 165c-158 11 -213 100 -213 203v276c0 111 64 205 252 205s252 -94 252 -205v-276c0 -91 -43 -170 -161 -196l53 -125zM186 464v-262c0 -63 32 -101 126 -101s126 38 126 101v262c0 63 -32 101 -126 101s-126 -38 -126 -101z" />
    <glyph glyph-name="R" unicode="R" horiz-adv-x="650" 
d="M625 0h-151l-153 220h-120v-220h-126v666h273c155 0 212 -63 212 -180v-87c0 -80 -30 -136 -100 -161zM434 476c0 56 -24 79 -91 79h-142v-226h142c69 0 91 25 91 81v66z" />
    <glyph glyph-name="S" unicode="S" horiz-adv-x="540" 
d="M490 181c0 -126 -37 -191 -234 -191c-76 0 -164 19 -208 40l22 99c62 -19 122 -31 188 -31c91 0 106 19 106 83c0 74 -2 80 -122 106c-161 36 -183 67 -183 208c0 121 55 181 224 181c58 0 128 -7 194 -22l-14 -106c-55 12 -120 20 -178 20c-85 0 -100 -18 -100 -76
c0 -76 2 -78 117 -106c179 -43 188 -72 188 -205z" />
    <glyph glyph-name="T" unicode="T" horiz-adv-x="548" 
d="M211 0v555h-186v111h498v-111h-186v-555h-126z" />
    <glyph glyph-name="U" unicode="U" horiz-adv-x="632" 
d="M436 666h126v-473c0 -105 -59 -203 -246 -203s-246 98 -246 203v473h126v-463c0 -65 31 -102 120 -102s120 37 120 102v463z" />
    <glyph glyph-name="V" unicode="V" horiz-adv-x="600" 
d="M300 111l161 555h131l-199 -666h-186l-199 666h131z" />
    <glyph glyph-name="W" unicode="W" horiz-adv-x="944" 
d="M556 666l121 -516l127 516h125l-165 -666h-170l-122 536l-122 -536h-170l-165 666h125l127 -516l121 516h168z" />
    <glyph glyph-name="X" unicode="X" horiz-adv-x="612" 
d="M378 335l209 -335h-136l-145 236l-145 -236h-136l209 335l-201 331h135l138 -232l138 232h135z" />
    <glyph glyph-name="Y" unicode="Y" horiz-adv-x="566" 
d="M283 330l144 336h134l-215 -473v-193h-126v193l-215 473h134z" />
    <glyph glyph-name="Z" unicode="Z" horiz-adv-x="575" 
d="M512 559l-306 -452h309v-107h-450v106l308 453h-296v107h435v-107z" />
    <glyph glyph-name="bracketleft" unicode="[" horiz-adv-x="328" 
d="M298 -126h-213v916h213v-100h-91v-716h91v-100z" />
    <glyph glyph-name="backslash" unicode="\" horiz-adv-x="459" 
d="M294 -117l-249 793h111l248 -793h-110z" />
    <glyph glyph-name="bracketright" unicode="]" horiz-adv-x="328" 
d="M243 -126h-213v100h91v716h-91v100h213v-916z" />
    <glyph glyph-name="asciicircum" unicode="^" horiz-adv-x="475" 
d="M119 371l-74 45l149 270h85l151 -270l-76 -45l-117 213z" />
    <glyph glyph-name="underscore" unicode="_" horiz-adv-x="439" 
d="M440 -74h-441v64h441v-64z" />
    <glyph glyph-name="grave" unicode="`" horiz-adv-x="314" 
d="M254 607l-45 -68c-52 29 -93 55 -149 92l48 74c50 -37 99 -69 146 -98z" />
    <glyph glyph-name="a" unicode="a" horiz-adv-x="491" 
d="M431 321v-321h-100l-9 33c-44 -29 -96 -43 -145 -43c-89 0 -127 61 -127 145c0 99 43 137 142 137h117v51c0 54 -15 73 -93 73c-44 0 -92 -6 -135 -15l-15 93c46 14 113 23 167 23c153 0 198 -54 198 -176zM309 112v72h-90c-40 0 -51 -11 -51 -48c0 -34 11 -49 49 -49
c36 0 69 12 92 25z" />
    <glyph glyph-name="b" unicode="b" horiz-adv-x="528" 
d="M483 330v-143c0 -118 -36 -197 -224 -197c-49 0 -128 5 -189 17v679l122 17v-235c36 15 91 29 144 29c105 0 147 -64 147 -167zM192 365v-267c22 -3 47 -4 73 -4c80 0 96 32 96 89v150c0 39 -17 60 -62 60c-34 0 -77 -14 -107 -28z" />
    <glyph glyph-name="c" unicode="c" horiz-adv-x="419" 
d="M258 -10c-153 0 -210 56 -210 187v133c0 131 57 187 210 187c34 0 83 -6 119 -18l-15 -100c-33 9 -77 13 -101 13c-70 0 -91 -21 -91 -81v-135c0 -60 21 -81 91 -81c31 0 66 4 101 13l15 -100c-32 -11 -79 -18 -119 -18z" />
    <glyph glyph-name="d" unicode="d" horiz-adv-x="533" 
d="M50 159v166c0 108 48 172 161 172c43 0 92 -6 130 -14v203l122 17v-703h-97l-12 41c-43 -31 -93 -51 -154 -51c-98 0 -150 58 -150 169zM341 138v242c-32 7 -73 13 -108 13c-44 0 -61 -21 -61 -65v-172c0 -40 15 -62 60 -62c40 0 83 20 109 44z" />
    <glyph glyph-name="e" unicode="e" horiz-adv-x="481" 
d="M170 172c0 -59 21 -82 95 -82c47 0 96 7 149 23l19 -92c-55 -21 -121 -31 -179 -31c-153 0 -206 71 -206 188v129c0 103 46 190 202 190s191 -91 191 -196v-104h-271v-25zM170 319v-24h155v24c0 46 -14 78 -74 78s-81 -32 -81 -78z" />
    <glyph glyph-name="f" unicode="f" horiz-adv-x="363" 
d="M363 692l-13 -94c-23 5 -50 8 -70 8c-48 0 -55 -21 -55 -58v-61h124l-7 -97h-117v-390h-122v390h-78v97h78v68c0 101 47 151 155 151c38 0 73 -5 105 -14z" />
    <glyph glyph-name="g" unicode="g" horiz-adv-x="489" 
d="M236 130c-10 0 -19 0 -28 1c-16 -10 -29 -24 -29 -39c0 -13 8 -19 27 -21c54 -6 84 -9 141 -15c79 -9 104 -48 104 -118c0 -104 -38 -145 -220 -145c-56 0 -133 8 -188 25l15 91c52 -13 107 -21 164 -21c97 0 116 7 116 39c0 30 -9 35 -46 39c-56 6 -79 9 -141 16
c-69 8 -96 31 -96 93c0 40 27 66 51 83c-45 27 -66 72 -66 131v46c2 101 55 162 196 162c33 0 59 -4 83 -10h150v-61c-17 -5 -37 -10 -54 -15c11 -21 17 -48 17 -76v-46c0 -99 -60 -159 -196 -159zM318 331c0 46 -21 68 -82 68c-60 0 -81 -22 -81 -68v-37
c0 -48 24 -66 81 -66c58 0 82 19 82 66v37z" />
    <glyph glyph-name="h" unicode="h" horiz-adv-x="545" 
d="M480 0h-122v340c0 26 -11 39 -39 39c-30 0 -83 -18 -127 -41v-338h-122v686l122 17v-253c54 28 126 47 178 47c81 0 110 -57 110 -144v-353z" />
    <glyph glyph-name="i" unicode="i" horiz-adv-x="262" 
d="M192 0h-122v487h122v-487zM192 556h-122v141h122v-141z" />
    <glyph glyph-name="j" unicode="j" horiz-adv-x="255" 
d="M68 487h122v-513c0 -62 -22 -91 -127 -181l-71 78c70 65 76 69 76 119v497zM190 556h-122v141h122v-141z" />
    <glyph glyph-name="k" unicode="k" horiz-adv-x="508" 
d="M192 0h-122v686l122 17v-703zM348 487h136l-143 -241l149 -246h-134l-147 246z" />
    <glyph glyph-name="l" unicode="l" horiz-adv-x="262" 
d="M192 0h-122v686l122 17v-703z" />
    <glyph glyph-name="m" unicode="m" horiz-adv-x="833" 
d="M480 0h-122v340c0 26 -11 39 -39 39c-30 0 -83 -18 -127 -41v-338h-122v487h93l12 -41c61 30 138 51 195 51c47 0 76 -19 92 -52c59 30 137 52 196 52c81 0 110 -57 110 -144v-353h-122v340c0 26 -11 39 -39 39c-30 0 -89 -19 -127 -41v-338z" />
    <glyph glyph-name="n" unicode="n" horiz-adv-x="545" 
d="M480 0h-122v340c0 26 -11 39 -39 39c-30 0 -83 -18 -127 -41v-338h-122v487h93l12 -41c61 30 138 51 195 51c81 0 110 -57 110 -144v-353z" />
    <glyph glyph-name="o" unicode="o" horiz-adv-x="520" 
d="M472 182c0 -100 -45 -192 -212 -192s-212 92 -212 192v123c0 100 45 192 212 192s212 -92 212 -192v-123zM350 309c0 55 -25 84 -90 84s-90 -29 -90 -84v-131c0 -55 25 -84 90 -84s90 29 90 84v131z" />
    <glyph glyph-name="p" unicode="p" horiz-adv-x="533" 
d="M483 328v-166c0 -108 -48 -172 -161 -172c-43 0 -92 6 -130 14v-201l-122 -17v701h97l12 -41c43 31 93 51 154 51c98 0 150 -58 150 -169zM192 349v-242c32 -7 73 -13 108 -13c44 0 61 21 61 65v172c0 40 -15 62 -60 62c-40 0 -83 -20 -109 -44z" />
    <glyph glyph-name="q" unicode="q" horiz-adv-x="528" 
d="M50 157v143c0 118 36 197 224 197c49 0 128 -5 189 -17v-677l-122 -17v233c-36 -15 -91 -29 -144 -29c-105 0 -147 64 -147 167zM341 122v267c-22 3 -47 4 -73 4c-80 0 -96 -32 -96 -89v-150c0 -39 17 -60 62 -60c34 0 77 14 107 28z" />
    <glyph glyph-name="r" unicode="r" horiz-adv-x="333" 
d="M309 497l12 -112c-47 -21 -85 -43 -129 -71v-314h-122v487h103l8 -54c27 18 85 52 128 64z" />
    <glyph glyph-name="s" unicode="s" horiz-adv-x="447" 
d="M397 142c0 -94 -29 -152 -176 -152c-52 0 -123 12 -168 28l17 93c41 -12 95 -21 145 -21c54 0 62 12 62 49c0 30 -6 45 -85 64c-119 29 -133 59 -133 153c0 98 43 141 182 141c45 0 104 -6 146 -17l-12 -97c-37 7 -96 14 -134 14c-53 0 -62 -12 -62 -42
c0 -39 3 -42 69 -59c136 -36 149 -54 149 -154z" />
    <glyph glyph-name="t" unicode="t" horiz-adv-x="355" 
d="M315 102l14 -93c-26 -11 -76 -19 -107 -19c-89 0 -134 42 -134 129v271h-73v97h73v121l122 17v-138h125l-8 -97h-117v-255c0 -26 12 -43 44 -43c18 0 40 4 61 10z" />
    <glyph glyph-name="u" unicode="u" horiz-adv-x="545" 
d="M65 487h122v-340c0 -26 11 -39 39 -39c30 0 83 18 127 41v338h122v-487h-93l-12 41c-61 -30 -138 -51 -195 -51c-81 0 -110 57 -110 144v353z" />
    <glyph glyph-name="v" unicode="v" horiz-adv-x="483" 
d="M478 487l-156 -487h-161l-156 487h125l111 -370l112 370h125z" />
    <glyph glyph-name="w" unicode="w" horiz-adv-x="704" 
d="M249 0h-141l-90 487h114l60 -326l97 326h127l96 -326l60 326h114l-90 -487h-141l-103 350z" />
    <glyph glyph-name="x" unicode="x" horiz-adv-x="468" 
d="M136 0h-124l157 245l-154 242h122l97 -148l96 148h122l-154 -242l158 -245h-125l-97 151z" />
    <glyph glyph-name="y" unicode="y" horiz-adv-x="478" 
d="M478 487l-156 -487l-65 -197h-116l61 197h-43l-154 487h125l111 -370l112 370h125z" />
    <glyph glyph-name="z" unicode="z" horiz-adv-x="460" 
d="M58 393v94h355v-94l-217 -299h224v-94h-365v94l217 299h-214z" />
    <glyph glyph-name="braceleft" unicode="{" horiz-adv-x="340" 
d="M65 277h-20v94h20c32 0 42 15 42 40v232c0 96 37 147 130 147h83v-98h-51c-27 0 -40 -11 -40 -41v-212c0 -61 -14 -111 -82 -115c68 -4 82 -54 82 -115v-212c0 -30 13 -41 40 -41h51v-98h-83c-93 0 -130 51 -130 147v232c0 25 -10 40 -42 40z" />
    <glyph glyph-name="bar" unicode="|" horiz-adv-x="255" 
d="M165 790v-1000h-75v1000h75z" />
    <glyph glyph-name="braceright" unicode="}" horiz-adv-x="340" 
d="M295 277h-20c-32 0 -42 -15 -42 -40v-232c0 -96 -37 -147 -130 -147h-83v98h51c27 0 40 11 40 41v212c0 61 14 111 82 115c-68 4 -82 54 -82 115v212c0 30 -13 41 -40 41h-51v98h83c93 0 130 -51 130 -147v-232c0 -25 10 -40 42 -40h20v-94z" />
    <glyph glyph-name="asciitilde" unicode="~" horiz-adv-x="482" 
d="M383 354l69 -38c-22 -65 -57 -123 -135 -123c-61 0 -111 66 -148 66c-38 0 -46 -29 -65 -67l-69 38c29 75 50 123 127 123c55 0 109 -67 155 -67c39 0 55 37 66 68z" />
    <glyph glyph-name="nbspace" unicode="&#xa0;" horiz-adv-x="210" 
 />
    <glyph glyph-name="exclamdown" unicode="&#xa1;" horiz-adv-x="284" 
d="M106 273h72l25 -173v-297h-122v297zM80 347v140h124v-140h-124z" />
    <glyph glyph-name="cent" unicode="&#xa2;" horiz-adv-x="439" 
d="M203 -10v93c-107 15 -148 72 -148 184v133c0 111 41 169 148 183v93h84v-90c31 -2 68 -8 97 -17l-15 -100c-33 9 -77 13 -101 13c-70 0 -91 -21 -91 -81v-135c0 -60 21 -81 91 -81c31 0 66 4 101 13l15 -100c-27 -9 -63 -16 -97 -18v-90h-84z" />
    <glyph glyph-name="sterling" unicode="&#xa3;" horiz-adv-x="542" 
d="M60 277v97h81c-13 34 -28 75 -28 120c0 122 85 162 208 162c58 0 109 -7 166 -23l-15 -101c-43 10 -110 17 -155 17c-54 0 -82 -13 -82 -63c0 -38 15 -75 30 -112h188l-7 -97h-164c1 -8 1 -14 1 -19c0 -55 -18 -101 -62 -151h256v-107h-407v107c53 35 91 93 91 152v18
h-101z" />
    <glyph glyph-name="currency" unicode="&#xa4;" horiz-adv-x="563" 
d="M454 403v-136c0 -21 -4 -41 -13 -58l67 -67l-73 -73l-75 75c-22 -7 -48 -11 -78 -11c-32 0 -58 4 -80 11l-74 -75l-73 73l67 67c-8 17 -12 37 -12 58v136c0 21 4 41 12 58l-67 67l73 73l74 -75c22 7 48 11 80 11c30 0 56 -4 78 -11l75 75l73 -73l-67 -67
c9 -17 13 -37 13 -58zM349 388c0 44 -23 55 -67 55c-45 0 -67 -11 -67 -55v-106c0 -44 22 -55 67 -55c44 0 67 11 67 55v106z" />
    <glyph glyph-name="yen" unicode="&#xa5;" horiz-adv-x="558" 
d="M55 283v81h83l-128 282h134l135 -316l135 316h134l-128 -282h83v-81h-120l-41 -90h161v-78h-161v-115h-126v115h-161v78h161l-41 90h-120z" />
    <glyph glyph-name="brokenbar" unicode="&#xa6;" horiz-adv-x="255" 
d="M165 790v-417h-75v417h75zM165 -210h-75v417h75v-417z" />
    <glyph glyph-name="section" unicode="&#xa7;" horiz-adv-x="548" 
d="M264 29l-95 -29c-58 176 -114 378 -114 552c0 77 41 124 145 124c57 0 119 -12 171 -28l-16 -82c-43 10 -103 22 -143 22c-37 0 -52 -11 -52 -46c0 -132 48 -330 104 -513zM289 460l95 29c58 -176 114 -378 114 -552c0 -77 -41 -124 -145 -124c-57 0 -119 12 -171 28
l16 82c43 -10 103 -22 143 -22c37 0 52 11 52 46c0 132 -48 330 -104 513z" />
    <glyph glyph-name="dieresis" unicode="&#xa8;" horiz-adv-x="410" 
d="M60 554v105h101v-105h-101zM249 554v105h101v-105h-101z" />
    <glyph glyph-name="copyright" unicode="&#xa9;" horiz-adv-x="796" 
d="M55 333c0 190 136 343 343 343s343 -153 343 -343c0 -189 -136 -343 -343 -343s-343 154 -343 343zM140 333c0 -146 101 -263 258 -263c158 0 258 117 258 263c0 147 -100 263 -258 263c-157 0 -258 -116 -258 -263zM361 283c0 -34 8 -46 57 -46c27 0 54 4 81 11l11 -73
c-31 -11 -66 -16 -101 -16c-100 0 -138 37 -138 116v116c0 79 38 116 138 116c35 0 70 -5 101 -16l-11 -73c-27 7 -54 11 -81 11c-49 0 -57 -12 -57 -46v-100z" />
    <glyph glyph-name="ordfeminine" unicode="&#xaa;" horiz-adv-x="385" 
d="M315 585v-203h-63l-5 21c-28 -18 -61 -27 -92 -27c-56 0 -80 39 -80 92c0 62 27 86 90 86h73v32c0 34 -9 46 -58 46c-28 0 -58 -4 -85 -9l-10 58c29 9 71 15 106 15c96 0 124 -34 124 -111zM238 453v45h-56c-26 0 -33 -6 -33 -30c0 -21 7 -31 31 -31c23 0 44 8 58 16z
" />
    <glyph glyph-name="guillemotleft" unicode="&#xab;" horiz-adv-x="504" 
d="M35 244l127 193l81 -51l-93 -142l93 -142l-81 -51zM241 244l127 193l81 -51l-93 -142l93 -142l-81 -51z" />
    <glyph glyph-name="logicalnot" unicode="&#xac;" horiz-adv-x="543" 
d="M60 247v96h408v-255h-100v159h-308z" />
    <glyph glyph-name="registered" unicode="&#xae;" horiz-adv-x="471" 
d="M55 515c0 101 69 181 180 181s181 -80 181 -181c0 -100 -70 -182 -181 -182s-180 82 -180 182zM108 515c0 -71 41 -133 127 -133s128 62 128 133s-42 132 -128 132s-127 -61 -127 -132zM276 436l-39 54h-25v-54h-36v166h68c37 0 54 -16 54 -47v-18c0 -19 -8 -33 -23 -40
l43 -61h-42zM262 552c0 13 -5 17 -20 17h-30v-46h30c16 0 20 6 20 17v12z" />
    <glyph glyph-name="macron" unicode="&#xaf;" horiz-adv-x="360" 
d="M55 557v81h250v-81h-250z" />
    <glyph glyph-name="degree" unicode="&#xb0;" horiz-adv-x="357" 
d="M307 529c0 -70 -48 -126 -128 -126c-81 0 -129 56 -129 126s49 127 129 127s128 -57 128 -127zM240 529c0 38 -20 68 -61 68c-42 0 -62 -30 -62 -68c0 -36 21 -67 62 -67c40 0 61 31 61 67z" />
    <glyph glyph-name="plusminus" unicode="&#xb1;" horiz-adv-x="558" 
d="M483 92v-92h-408v92h408zM75 305v96h154v155h100v-155h154v-96h-154v-155h-100v155h-154z" />
    <glyph glyph-name="twosuperior" unicode="&#xb2;" horiz-adv-x="400" 
d="M72 243v69c32 34 46 50 95 103c66 72 65 79 65 102v18c0 29 -9 38 -46 38c-28 0 -74 -7 -105 -15l-16 78c32 11 85 20 130 20c96 0 128 -37 128 -109v-17c0 -39 0 -64 -48 -120c-41 -47 -52 -60 -78 -89h133v-78h-258z" />
    <glyph glyph-name="threesuperior" unicode="&#xb3;" horiz-adv-x="396" 
d="M75 249l7 69c40 -6 75 -8 112 -8c38 0 44 14 44 36v31c0 26 -13 35 -40 35h-99v69h94c31 0 38 14 38 33v31c0 28 -10 37 -53 37c-28 0 -69 -4 -90 -7l-8 69c26 6 70 12 102 12c102 0 137 -36 137 -101v-30c0 -36 -6 -56 -45 -76c42 -14 52 -36 52 -80v-26
c0 -67 -27 -108 -137 -108c-39 0 -88 6 -114 14z" />
    <glyph glyph-name="acute" unicode="&#xb4;" horiz-adv-x="314" 
d="M104 539l-44 68c47 29 95 61 146 98l48 -74c-56 -37 -97 -63 -150 -92z" />
    <glyph glyph-name="mu" unicode="&#xb5;" horiz-adv-x="545" 
d="M65 -197v684h122v-340c0 -26 11 -39 39 -39c30 0 83 18 127 41v338h122v-487h-93l-12 41c-57 -28 -128 -48 -183 -51v-187h-122z" />
    <glyph glyph-name="paragraph" unicode="&#xb6;" horiz-adv-x="526" 
d="M344 666h97v-677c0 -59 -14 -70 -151 -196l-59 67c110 103 113 108 113 141v665zM45 447c0 125 95 219 220 219v-437c-125 0 -220 93 -220 218z" />
    <glyph glyph-name="periodcentered" unicode="&#xb7;" horiz-adv-x="274" 
d="M75 256v140h124v-140h-124z" />
    <glyph glyph-name="cedilla" unicode="&#xb8;" horiz-adv-x="300" 
d="M245 -119c0 -48 -33 -81 -107 -81c-23 0 -60 6 -83 15l10 47c17 -5 45 -9 65 -9c40 0 49 10 49 29c0 17 -10 24 -38 24c-7 0 -22 -1 -31 -2l-29 14l21 97h57l-13 -68c8 1 19 2 28 2c48 1 71 -28 71 -68z" />
    <glyph glyph-name="onesuperior" unicode="&#xb9;" horiz-adv-x="347" 
d="M78 501l-33 71l135 74h72v-405h-91v301z" />
    <glyph glyph-name="ordmasculine" unicode="&#xba;" horiz-adv-x="387" 
d="M327 497c0 -63 -28 -121 -134 -121c-105 0 -133 58 -133 121v78c0 63 28 121 133 121c106 0 134 -58 134 -121v-78zM250 577c0 35 -16 53 -57 53s-56 -18 -56 -53v-82c0 -35 15 -53 56 -53s57 18 57 53v82z" />
    <glyph glyph-name="guillemotright" unicode="&#xbb;" horiz-adv-x="504" 
d="M342 437l127 -193l-127 -193l-81 51l93 142l-93 142zM136 437l127 -193l-127 -193l-81 51l93 142l-93 142z" />
    <glyph glyph-name="onequarter" unicode="&#xbc;" horiz-adv-x="858" 
d="M798 81h-59v-81h-87v81h-183v66l146 258h124v-253h59v-71zM559 152h93v176zM590 656l-298 -696l-70 30l299 696zM83 501l-33 71l135 74h72v-405h-91v301z" />
    <glyph glyph-name="onehalf" unicode="&#xbd;" horiz-adv-x="884" 
d="M590 656l-298 -696l-70 30l299 696zM83 501l-33 71l135 74h72v-405h-91v301zM546 0v69c32 34 46 50 95 103c66 72 65 79 65 102v18c0 29 -9 38 -46 38c-28 0 -74 -7 -105 -15l-16 78c32 11 85 20 130 20c96 0 128 -37 128 -109v-17c0 -39 0 -64 -48 -120
c-41 -47 -52 -60 -78 -89h133v-78h-258z" />
    <glyph glyph-name="threequarters" unicode="&#xbe;" horiz-adv-x="891" 
d="M75 249l7 69c40 -6 75 -8 112 -8c38 0 44 14 44 36v31c0 26 -13 35 -40 35h-99v69h94c31 0 38 14 38 33v31c0 28 -10 37 -53 37c-28 0 -69 -4 -90 -7l-8 69c26 6 70 12 102 12c102 0 137 -36 137 -101v-30c0 -36 -6 -56 -45 -76c42 -14 52 -36 52 -80v-26
c0 -67 -27 -108 -137 -108c-39 0 -88 6 -114 14zM831 81h-59v-81h-87v81h-183v66l146 258h124v-253h59v-71zM592 152h93v176zM623 656l-298 -696l-70 30l299 696z" />
    <glyph glyph-name="questiondown" unicode="&#xbf;" horiz-adv-x="491" 
d="M262 271l69 -93c-32 -25 -56 -44 -92 -73c-59 -47 -62 -59 -62 -119c0 -63 17 -84 103 -84c43 0 99 7 143 18l18 -105c-50 -13 -116 -22 -174 -22c-173 0 -212 60 -212 186c0 95 4 131 81 194c43 35 71 56 126 98zM344 487v-140h-124v140h124z" />
    <glyph glyph-name="Agrave" unicode="&#xc0;" horiz-adv-x="646" 
d="M489 0l-43 138h-247l-42 -138h-132l210 666h176l210 -666h-132zM323 562l-93 -315h184zM380 777l-44 -68c-53 28 -91 50 -136 83l48 74c39 -31 85 -60 132 -89z" />
    <glyph glyph-name="Aacute" unicode="&#xc1;" horiz-adv-x="646" 
d="M489 0l-43 138h-247l-42 -138h-132l210 666h176l210 -666h-132zM323 562l-93 -315h184zM318 709l-44 68c47 29 93 58 133 89l47 -74c-45 -33 -82 -55 -136 -83z" />
    <glyph glyph-name="Acircumflex" unicode="&#xc2;" horiz-adv-x="646" 
d="M489 0l-43 138h-247l-42 -138h-132l210 666h176l210 -666h-132zM323 562l-93 -315h184zM231 709l-35 56c46 31 81 56 127 91c45 -34 79 -59 127 -91l-34 -56c-39 18 -59 29 -93 49c-33 -19 -55 -31 -92 -49z" />
    <glyph glyph-name="Atilde" unicode="&#xc3;" horiz-adv-x="646" 
d="M489 0l-43 138h-247l-42 -138h-132l210 666h176l210 -666h-132zM323 562l-93 -315h184zM316 739c-19 12 -31 21 -49 21c-23 0 -38 -23 -51 -41l-50 41c22 41 57 78 99 78c23 0 39 -6 63 -20s38 -22 52 -22c21 0 32 12 41 37l58 -30c-17 -52 -52 -84 -99 -84
c-26 0 -43 6 -64 20z" />
    <glyph glyph-name="Adieresis" unicode="&#xc4;" horiz-adv-x="646" 
d="M489 0l-43 138h-247l-42 -138h-132l210 666h176l210 -666h-132zM323 562l-93 -315h184zM176 726v97h102v-97h-102zM369 726v97h102v-97h-102z" />
    <glyph glyph-name="Aring" unicode="&#xc5;" horiz-adv-x="646" 
d="M489 0l-43 138h-247l-42 -138h-132l210 666h176l210 -666h-132zM323 562l-93 -315h184zM405 782c0 -43 -31 -78 -82 -78s-82 32 -82 78c0 44 31 79 82 79s82 -35 82 -79zM356 782c0 22 -12 35 -33 35s-33 -13 -33 -35c0 -20 12 -34 33 -34s33 14 33 34z" />
    <glyph glyph-name="AE" unicode="&#xc6;" horiz-adv-x="862" 
d="M489 0l-43 138h-247l-42 -138h-132l210 666h572v-111h-361l51 -161h288v-111h-253l54 -172h221v-111h-318zM323 562l-93 -315h184z" />
    <glyph glyph-name="Ccedilla" unicode="&#xc7;" horiz-adv-x="523" 
d="M403 -119c0 -48 -33 -81 -107 -81c-23 0 -60 6 -83 15l10 47c17 -5 45 -9 65 -9c40 0 49 10 49 29c0 17 -10 24 -38 24c-7 0 -22 -1 -31 -2l-29 14l16 74c-136 11 -195 80 -195 191v300c0 122 71 193 237 193c62 0 126 -8 181 -22l-14 -109c-54 10 -117 17 -163 17
c-87 0 -115 -30 -115 -101v-256c0 -71 28 -101 115 -101c46 0 109 7 163 17l14 -109c-51 -13 -109 -21 -166 -22l-8 -43c8 1 19 2 28 2c48 1 71 -28 71 -68z" />
    <glyph glyph-name="Egrave" unicode="&#xc8;" horiz-adv-x="538" 
d="M75 0v666h408v-111h-282v-161h260v-111h-260v-172h282v-111h-408zM343 777l-44 -68c-53 28 -91 50 -136 83l48 74c39 -31 85 -60 132 -89z" />
    <glyph glyph-name="Eacute" unicode="&#xc9;" horiz-adv-x="538" 
d="M75 0v666h408v-111h-282v-161h260v-111h-260v-172h282v-111h-408zM258 709l-44 68c47 29 93 58 133 89l47 -74c-45 -33 -82 -55 -136 -83z" />
    <glyph glyph-name="Ecircumflex" unicode="&#xca;" horiz-adv-x="538" 
d="M75 0v666h408v-111h-282v-161h260v-111h-260v-172h282v-111h-408zM193 709l-35 56c46 31 81 56 127 91c45 -34 79 -59 127 -91l-34 -56c-39 18 -59 29 -93 49c-33 -19 -55 -31 -92 -49z" />
    <glyph glyph-name="Edieresis" unicode="&#xcb;" horiz-adv-x="538" 
d="M75 0v666h408v-111h-282v-161h260v-111h-260v-172h282v-111h-408zM125 726v97h102v-97h-102zM318 726v97h102v-97h-102z" />
    <glyph glyph-name="Igrave" unicode="&#xcc;" horiz-adv-x="286" 
d="M206 666v-666h-126v666h126zM193 777l-44 -68c-53 28 -91 50 -136 83l48 74c39 -31 85 -60 132 -89z" />
    <glyph glyph-name="Iacute" unicode="&#xcd;" horiz-adv-x="286" 
d="M206 666v-666h-126v666h126zM137 709l-44 68c47 29 93 58 133 89l47 -74c-45 -33 -82 -55 -136 -83z" />
    <glyph glyph-name="Icircumflex" unicode="&#xce;" horiz-adv-x="286" 
d="M206 666v-666h-126v666h126zM51 709l-35 56c46 31 81 56 127 91c45 -34 79 -59 127 -91l-34 -56c-39 18 -59 29 -93 49c-33 -19 -55 -31 -92 -49z" />
    <glyph glyph-name="Idieresis" unicode="&#xcf;" horiz-adv-x="286" 
d="M206 666v-666h-126v666h126zM-4 726v97h102v-97h-102zM189 726v97h102v-97h-102z" />
    <glyph glyph-name="Eth" unicode="&#xd0;" horiz-adv-x="638" 
d="M40 286v101h69v279h248c164 0 221 -83 221 -179v-308c0 -95 -57 -179 -221 -179h-248v286h-69zM235 555v-168h102v-101h-102v-175h109c85 0 108 34 108 98v248c0 64 -23 98 -108 98h-109z" />
    <glyph glyph-name="Ntilde" unicode="&#xd1;" horiz-adv-x="694" 
d="M451 0l-253 505v-505h-123v666h168l253 -506v506h123v-666h-168zM339 739c-19 12 -31 21 -49 21c-23 0 -38 -23 -51 -41l-50 41c22 41 57 78 99 78c23 0 39 -6 63 -20s38 -22 52 -22c21 0 32 12 41 37l58 -30c-17 -52 -52 -84 -99 -84c-26 0 -43 6 -64 20z" />
    <glyph glyph-name="Ograve" unicode="&#xd2;" horiz-adv-x="624" 
d="M564 471v-276c0 -111 -64 -205 -252 -205s-252 94 -252 205v276c0 111 64 205 252 205s252 -94 252 -205zM186 464v-262c0 -63 32 -101 126 -101s126 38 126 101v262c0 63 -32 101 -126 101s-126 -38 -126 -101zM356 777l-44 -68c-53 28 -91 50 -136 83l48 74
c39 -31 85 -60 132 -89z" />
    <glyph glyph-name="Oacute" unicode="&#xd3;" horiz-adv-x="624" 
d="M564 471v-276c0 -111 -64 -205 -252 -205s-252 94 -252 205v276c0 111 64 205 252 205s252 -94 252 -205zM186 464v-262c0 -63 32 -101 126 -101s126 38 126 101v262c0 63 -32 101 -126 101s-126 -38 -126 -101zM294 709l-44 68c47 29 93 58 133 89l47 -74
c-45 -33 -82 -55 -136 -83z" />
    <glyph glyph-name="Ocircumflex" unicode="&#xd4;" horiz-adv-x="624" 
d="M564 471v-276c0 -111 -64 -205 -252 -205s-252 94 -252 205v276c0 111 64 205 252 205s252 -94 252 -205zM186 464v-262c0 -63 32 -101 126 -101s126 38 126 101v262c0 63 -32 101 -126 101s-126 -38 -126 -101zM220 709l-35 56c46 31 81 56 127 91
c45 -34 79 -59 127 -91l-34 -56c-39 18 -59 29 -93 49c-33 -19 -55 -31 -92 -49z" />
    <glyph glyph-name="Otilde" unicode="&#xd5;" horiz-adv-x="624" 
d="M564 471v-276c0 -111 -64 -205 -252 -205s-252 94 -252 205v276c0 111 64 205 252 205s252 -94 252 -205zM186 464v-262c0 -63 32 -101 126 -101s126 38 126 101v262c0 63 -32 101 -126 101s-126 -38 -126 -101zM300 739c-19 12 -31 21 -49 21c-23 0 -38 -23 -51 -41
l-50 41c22 41 57 78 99 78c23 0 39 -6 63 -20s38 -22 52 -22c21 0 32 12 41 37l58 -30c-17 -52 -52 -84 -99 -84c-26 0 -43 6 -64 20z" />
    <glyph glyph-name="Odieresis" unicode="&#xd6;" horiz-adv-x="624" 
d="M564 471v-276c0 -111 -64 -205 -252 -205s-252 94 -252 205v276c0 111 64 205 252 205s252 -94 252 -205zM186 464v-262c0 -63 32 -101 126 -101s126 38 126 101v262c0 63 -32 101 -126 101s-126 -38 -126 -101zM164 726v97h102v-97h-102zM357 726v97h102v-97h-102z" />
    <glyph glyph-name="multiply" unicode="&#xd7;" horiz-adv-x="495" 
d="M364 427l71 -71l-117 -116l117 -117l-71 -71l-117 117l-116 -117l-71 71l117 117l-117 116l71 71l116 -117z" />
    <glyph glyph-name="Oslash" unicode="&#xd8;" horiz-adv-x="624" 
d="M60 -30l51 85c-36 37 -51 87 -51 140v276c0 111 64 205 252 205c64 0 114 -11 152 -30l48 80l52 -30l-51 -86c36 -37 51 -86 51 -139v-276c0 -111 -64 -205 -252 -205c-65 0 -115 11 -152 30l-48 -80zM438 464c0 7 0 13 -1 19l-216 -361c20 -14 49 -21 91 -21
c94 0 126 38 126 101v262zM186 464v-262c0 -7 0 -13 1 -19l216 361c-20 13 -50 21 -91 21c-94 0 -126 -38 -126 -101z" />
    <glyph glyph-name="Ugrave" unicode="&#xd9;" horiz-adv-x="632" 
d="M436 666h126v-473c0 -105 -59 -203 -246 -203s-246 98 -246 203v473h126v-463c0 -65 31 -102 120 -102s120 37 120 102v463zM374 777l-44 -68c-53 28 -91 50 -136 83l48 74c39 -31 85 -60 132 -89z" />
    <glyph glyph-name="Uacute" unicode="&#xda;" horiz-adv-x="632" 
d="M436 666h126v-473c0 -105 -59 -203 -246 -203s-246 98 -246 203v473h126v-463c0 -65 31 -102 120 -102s120 37 120 102v463zM290 709l-44 68c47 29 93 58 133 89l47 -74c-45 -33 -82 -55 -136 -83z" />
    <glyph glyph-name="Ucircumflex" unicode="&#xdb;" horiz-adv-x="632" 
d="M436 666h126v-473c0 -105 -59 -203 -246 -203s-246 98 -246 203v473h126v-463c0 -65 31 -102 120 -102s120 37 120 102v463zM224 709l-35 56c46 31 81 56 127 91c45 -34 79 -59 127 -91l-34 -56c-39 18 -59 29 -93 49c-33 -19 -55 -31 -92 -49z" />
    <glyph glyph-name="Udieresis" unicode="&#xdc;" horiz-adv-x="632" 
d="M436 666h126v-473c0 -105 -59 -203 -246 -203s-246 98 -246 203v473h126v-463c0 -65 31 -102 120 -102s120 37 120 102v463zM169 726v97h102v-97h-102zM362 726v97h102v-97h-102z" />
    <glyph glyph-name="Yacute" unicode="&#xdd;" horiz-adv-x="566" 
d="M283 330l144 336h134l-215 -473v-193h-126v193l-215 473h134zM265 709l-44 68c47 29 93 58 133 89l47 -74c-45 -33 -82 -55 -136 -83z" />
    <glyph glyph-name="Thorn" unicode="&#xde;" horiz-adv-x="576" 
d="M75 0v666h126v-106h134c154 0 211 -63 211 -180v-91c0 -116 -62 -179 -217 -179h-128v-110h-126zM420 370c0 55 -23 79 -92 79h-127v-228h127c71 0 92 26 92 81v68z" />
    <glyph glyph-name="germandbls" unicode="&#xdf;" horiz-adv-x="612" 
d="M299 334c0 34 9 54 36 100c37 64 40 78 40 105c0 40 -31 65 -89 65c-59 0 -94 -25 -94 -88v-516h-122v521c0 122 79 185 214 185c141 0 213 -64 213 -165c0 -36 -7 -67 -39 -120s-37 -65 -37 -81c0 -14 5 -29 61 -74c81 -68 90 -78 90 -142c0 -90 -36 -134 -156 -134
c-30 0 -87 6 -124 18l14 93c25 -7 75 -12 97 -12c36 0 47 9 47 35s-4 28 -71 81c-69 56 -80 79 -80 129z" />
    <glyph glyph-name="agrave" unicode="&#xe0;" horiz-adv-x="491" 
d="M431 321v-321h-100l-9 33c-44 -29 -96 -43 -145 -43c-89 0 -127 61 -127 145c0 99 43 137 142 137h117v51c0 54 -15 73 -93 73c-44 0 -92 -6 -135 -15l-15 93c46 14 113 23 167 23c153 0 198 -54 198 -176zM309 112v72h-90c-40 0 -51 -11 -51 -48c0 -34 11 -49 49 -49
c36 0 69 12 92 25zM325 607l-45 -68c-52 29 -93 55 -149 92l48 74c50 -37 99 -69 146 -98z" />
    <glyph glyph-name="aacute" unicode="&#xe1;" horiz-adv-x="491" 
d="M431 321v-321h-100l-9 33c-44 -29 -96 -43 -145 -43c-89 0 -127 61 -127 145c0 99 43 137 142 137h117v51c0 54 -15 73 -93 73c-44 0 -92 -6 -135 -15l-15 93c46 14 113 23 167 23c153 0 198 -54 198 -176zM309 112v72h-90c-40 0 -51 -11 -51 -48c0 -34 11 -49 49 -49
c36 0 69 12 92 25zM212 539l-44 68c47 29 95 61 146 98l48 -74c-56 -37 -97 -63 -150 -92z" />
    <glyph glyph-name="acircumflex" unicode="&#xe2;" horiz-adv-x="491" 
d="M431 321v-321h-100l-9 33c-44 -29 -96 -43 -145 -43c-89 0 -127 61 -127 145c0 99 43 137 142 137h117v51c0 54 -15 73 -93 73c-44 0 -92 -6 -135 -15l-15 93c46 14 113 23 167 23c153 0 198 -54 198 -176zM309 112v72h-90c-40 0 -51 -11 -51 -48c0 -34 11 -49 49 -49
c36 0 69 12 92 25zM152 533l-39 54c44 32 94 71 140 109c45 -37 94 -76 139 -109l-38 -54c-45 26 -67 41 -101 65c-34 -24 -57 -39 -101 -65z" />
    <glyph glyph-name="atilde" unicode="&#xe3;" horiz-adv-x="491" 
d="M431 321v-321h-100l-9 33c-44 -29 -96 -43 -145 -43c-89 0 -127 61 -127 145c0 99 43 137 142 137h117v51c0 54 -15 73 -93 73c-44 0 -92 -6 -135 -15l-15 93c46 14 113 23 167 23c153 0 198 -54 198 -176zM309 112v72h-90c-40 0 -51 -11 -51 -48c0 -34 11 -49 49 -49
c36 0 69 12 92 25zM242 567c-19 13 -31 21 -49 21c-23 0 -38 -23 -51 -40l-50 41c22 40 57 77 99 77c23 0 39 -5 63 -20c24 -14 38 -21 52 -21c21 0 32 12 41 37l58 -30c-17 -52 -52 -84 -99 -84c-26 0 -43 6 -64 19z" />
    <glyph glyph-name="adieresis" unicode="&#xe4;" horiz-adv-x="491" 
d="M431 321v-321h-100l-9 33c-44 -29 -96 -43 -145 -43c-89 0 -127 61 -127 145c0 99 43 137 142 137h117v51c0 54 -15 73 -93 73c-44 0 -92 -6 -135 -15l-15 93c46 14 113 23 167 23c153 0 198 -54 198 -176zM309 112v72h-90c-40 0 -51 -11 -51 -48c0 -34 11 -49 49 -49
c36 0 69 12 92 25zM108 554v105h101v-105h-101zM297 554v105h101v-105h-101z" />
    <glyph glyph-name="aring" unicode="&#xe5;" horiz-adv-x="491" 
d="M431 321v-321h-100l-9 33c-44 -29 -96 -43 -145 -43c-89 0 -127 61 -127 145c0 99 43 137 142 137h117v51c0 54 -15 73 -93 73c-44 0 -92 -6 -135 -15l-15 93c46 14 113 23 167 23c153 0 198 -54 198 -176zM309 112v72h-90c-40 0 -51 -11 -51 -48c0 -34 11 -49 49 -49
c36 0 69 12 92 25zM335 620c0 -47 -31 -86 -89 -86c-57 0 -89 36 -89 86c0 47 32 85 89 85c58 0 89 -38 89 -85zM282 620c0 23 -14 38 -36 38s-36 -15 -36 -38s14 -39 36 -39s36 16 36 39z" />
    <glyph glyph-name="ae" unicode="&#xe6;" horiz-adv-x="742" 
d="M431 172c0 -59 21 -82 95 -82c47 0 96 7 149 23l19 -92c-55 -21 -121 -31 -179 -31c-76 0 -127 17 -160 49c-44 -28 -103 -49 -167 -49c-97 0 -138 61 -138 145c0 99 43 137 142 137h117v51c0 54 -15 73 -93 73c-44 0 -92 -6 -135 -15l-15 93c46 14 113 23 167 23
c68 0 107 -18 145 -45c33 24 74 45 133 45c156 0 191 -91 191 -196v-104h-271v-25zM431 319v-24h155v24c0 46 -14 78 -74 78s-81 -32 -81 -78zM217 87c40 0 75 13 98 26c-4 19 -6 41 -6 65v6h-90c-40 0 -51 -11 -51 -48c0 -34 11 -49 49 -49z" />
    <glyph glyph-name="ccedilla" unicode="&#xe7;" horiz-adv-x="419" 
d="M346 -119c0 -48 -33 -81 -107 -81c-23 0 -60 6 -83 15l10 47c17 -5 45 -9 65 -9c40 0 49 10 49 29c0 17 -10 24 -38 24c-7 0 -22 -1 -31 -2l-29 14l16 76c-108 13 -150 70 -150 183v133c0 131 57 187 210 187c34 0 83 -6 119 -18l-15 -100c-33 9 -77 13 -101 13
c-70 0 -91 -21 -91 -81v-135c0 -60 21 -81 91 -81c31 0 66 4 101 13l15 -100c-32 -11 -79 -18 -119 -18h-3l-8 -43c8 1 19 2 28 2c48 1 71 -28 71 -68z" />
    <glyph glyph-name="egrave" unicode="&#xe8;" horiz-adv-x="481" 
d="M170 172c0 -59 21 -82 95 -82c47 0 96 7 149 23l19 -92c-55 -21 -121 -31 -179 -31c-153 0 -206 71 -206 188v129c0 103 46 190 202 190s191 -91 191 -196v-104h-271v-25zM170 319v-24h155v24c0 46 -14 78 -74 78s-81 -32 -81 -78zM314 607l-45 -68
c-52 29 -93 55 -149 92l48 74c50 -37 99 -69 146 -98z" />
    <glyph glyph-name="eacute" unicode="&#xe9;" horiz-adv-x="481" 
d="M170 172c0 -59 21 -82 95 -82c47 0 96 7 149 23l19 -92c-55 -21 -121 -31 -179 -31c-153 0 -206 71 -206 188v129c0 103 46 190 202 190s191 -91 191 -196v-104h-271v-25zM170 319v-24h155v24c0 46 -14 78 -74 78s-81 -32 -81 -78zM209 539l-44 68c47 29 95 61 146 98
l48 -74c-56 -37 -97 -63 -150 -92z" />
    <glyph glyph-name="ecircumflex" unicode="&#xea;" horiz-adv-x="481" 
d="M170 172c0 -59 21 -82 95 -82c47 0 96 7 149 23l19 -92c-55 -21 -121 -31 -179 -31c-153 0 -206 71 -206 188v129c0 103 46 190 202 190s191 -91 191 -196v-104h-271v-25zM170 319v-24h155v24c0 46 -14 78 -74 78s-81 -32 -81 -78zM148 533l-39 54c44 32 94 71 140 109
c45 -37 94 -76 139 -109l-38 -54c-45 26 -67 41 -101 65c-34 -24 -57 -39 -101 -65z" />
    <glyph glyph-name="edieresis" unicode="&#xeb;" horiz-adv-x="481" 
d="M170 172c0 -59 21 -82 95 -82c47 0 96 7 149 23l19 -92c-55 -21 -121 -31 -179 -31c-153 0 -206 71 -206 188v129c0 103 46 190 202 190s191 -91 191 -196v-104h-271v-25zM170 319v-24h155v24c0 46 -14 78 -74 78s-81 -32 -81 -78zM106 554v105h101v-105h-101zM295 554
v105h101v-105h-101z" />
    <glyph glyph-name="igrave" unicode="&#xec;" horiz-adv-x="262" 
d="M192 0h-122v487h122v-487zM182 607l-45 -68c-52 29 -93 55 -149 92l48 74c50 -37 99 -69 146 -98z" />
    <glyph glyph-name="iacute" unicode="&#xed;" horiz-adv-x="262" 
d="M192 0h-122v487h122v-487zM127 539l-44 68c47 29 95 61 146 98l48 -74c-56 -37 -97 -63 -150 -92z" />
    <glyph glyph-name="icircumflex" unicode="&#xee;" horiz-adv-x="262" 
d="M192 0h-122v487h122v-487zM31 533l-39 54c44 32 94 71 140 109c45 -37 94 -76 139 -109l-38 -54c-45 26 -67 41 -101 65c-34 -24 -57 -39 -101 -65z" />
    <glyph glyph-name="idieresis" unicode="&#xef;" horiz-adv-x="262" 
d="M192 0h-122v487h122v-487zM-14 554v105h101v-105h-101zM175 554v105h101v-105h-101z" />
    <glyph glyph-name="eth" unicode="&#xf0;" horiz-adv-x="504" 
d="M142 500l67 53c-32 15 -71 26 -111 36l21 96c67 -11 120 -27 174 -58l58 45l38 -43l-46 -36c66 -55 101 -112 101 -237v-189c0 -100 -37 -177 -196 -177c-161 0 -198 67 -198 167v70c0 121 40 183 165 183c35 0 68 -6 106 -21c-1 63 -21 100 -59 131l-82 -64zM246 94
c61 0 76 17 76 80v109c-29 16 -60 23 -89 23c-42 0 -63 -17 -63 -64v-76c0 -55 14 -72 76 -72z" />
    <glyph glyph-name="ntilde" unicode="&#xf1;" horiz-adv-x="545" 
d="M480 0h-122v340c0 26 -11 39 -39 39c-30 0 -83 -18 -127 -41v-338h-122v487h93l12 -41c61 30 138 51 195 51c81 0 110 -57 110 -144v-353zM267 567c-19 13 -31 21 -49 21c-23 0 -38 -23 -51 -40l-50 41c22 40 57 77 99 77c23 0 39 -5 63 -20c24 -14 38 -21 52 -21
c21 0 32 12 41 37l58 -30c-17 -52 -52 -84 -99 -84c-26 0 -43 6 -64 19z" />
    <glyph glyph-name="ograve" unicode="&#xf2;" horiz-adv-x="520" 
d="M472 182c0 -100 -45 -192 -212 -192s-212 92 -212 192v123c0 100 45 192 212 192s212 -92 212 -192v-123zM350 309c0 55 -25 84 -90 84s-90 -29 -90 -84v-131c0 -55 25 -84 90 -84s90 29 90 84v131zM321 607l-45 -68c-52 29 -93 55 -149 92l48 74c50 -37 99 -69 146 -98z
" />
    <glyph glyph-name="oacute" unicode="&#xf3;" horiz-adv-x="520" 
d="M472 182c0 -100 -45 -192 -212 -192s-212 92 -212 192v123c0 100 45 192 212 192s212 -92 212 -192v-123zM350 309c0 55 -25 84 -90 84s-90 -29 -90 -84v-131c0 -55 25 -84 90 -84s90 29 90 84v131zM235 539l-44 68c47 29 95 61 146 98l48 -74c-56 -37 -97 -63 -150 -92z
" />
    <glyph glyph-name="ocircumflex" unicode="&#xf4;" horiz-adv-x="520" 
d="M472 182c0 -100 -45 -192 -212 -192s-212 92 -212 192v123c0 100 45 192 212 192s212 -92 212 -192v-123zM350 309c0 55 -25 84 -90 84s-90 -29 -90 -84v-131c0 -55 25 -84 90 -84s90 29 90 84v131zM160 533l-39 54c44 32 94 71 140 109c45 -37 94 -76 139 -109l-38 -54
c-45 26 -67 41 -101 65c-34 -24 -57 -39 -101 -65z" />
    <glyph glyph-name="otilde" unicode="&#xf5;" horiz-adv-x="520" 
d="M472 182c0 -100 -45 -192 -212 -192s-212 92 -212 192v123c0 100 45 192 212 192s212 -92 212 -192v-123zM350 309c0 55 -25 84 -90 84s-90 -29 -90 -84v-131c0 -55 25 -84 90 -84s90 29 90 84v131zM255 567c-19 13 -31 21 -49 21c-23 0 -38 -23 -51 -40l-50 41
c22 40 57 77 99 77c23 0 39 -5 63 -20c24 -14 38 -21 52 -21c21 0 32 12 41 37l58 -30c-17 -52 -52 -84 -99 -84c-26 0 -43 6 -64 19z" />
    <glyph glyph-name="odieresis" unicode="&#xf6;" horiz-adv-x="520" 
d="M472 182c0 -100 -45 -192 -212 -192s-212 92 -212 192v123c0 100 45 192 212 192s212 -92 212 -192v-123zM350 309c0 55 -25 84 -90 84s-90 -29 -90 -84v-131c0 -55 25 -84 90 -84s90 29 90 84v131zM115 554v105h101v-105h-101zM304 554v105h101v-105h-101z" />
    <glyph glyph-name="divide" unicode="&#xf7;" horiz-adv-x="542" 
d="M477 285v-82h-412v82h412zM213 11v121h116v-121h-116zM213 355v121h116v-121h-116z" />
    <glyph glyph-name="oslash" unicode="&#xf8;" horiz-adv-x="520" 
d="M48 -22l46 67c-34 36 -46 85 -46 137v123c0 100 45 192 212 192c53 0 93 -9 124 -25l44 64l43 -28l-46 -67c35 -36 47 -85 47 -136v-123c0 -100 -45 -192 -212 -192c-53 0 -94 9 -125 25l-44 -65zM350 309c0 7 0 14 -1 20l-150 -221c14 -9 34 -14 61 -14
c65 0 90 29 90 84v131zM170 178c0 -7 0 -14 1 -20l150 220c-14 10 -35 15 -61 15c-65 0 -90 -29 -90 -84v-131z" />
    <glyph glyph-name="ugrave" unicode="&#xf9;" horiz-adv-x="545" 
d="M65 487h122v-340c0 -26 11 -39 39 -39c30 0 83 18 127 41v338h122v-487h-93l-12 41c-61 -30 -138 -51 -195 -51c-81 0 -110 57 -110 144v353zM334 607l-45 -68c-52 29 -93 55 -149 92l48 74c50 -37 99 -69 146 -98z" />
    <glyph glyph-name="uacute" unicode="&#xfa;" horiz-adv-x="545" 
d="M65 487h122v-340c0 -26 11 -39 39 -39c30 0 83 18 127 41v338h122v-487h-93l-12 41c-61 -30 -138 -51 -195 -51c-81 0 -110 57 -110 144v353zM248 539l-44 68c47 29 95 61 146 98l48 -74c-56 -37 -97 -63 -150 -92z" />
    <glyph glyph-name="ucircumflex" unicode="&#xfb;" horiz-adv-x="545" 
d="M65 487h122v-340c0 -26 11 -39 39 -39c30 0 83 18 127 41v338h122v-487h-93l-12 41c-61 -30 -138 -51 -195 -51c-81 0 -110 57 -110 144v353zM173 533l-39 54c44 32 94 71 140 109c45 -37 94 -76 139 -109l-38 -54c-45 26 -67 41 -101 65c-34 -24 -57 -39 -101 -65z" />
    <glyph glyph-name="udieresis" unicode="&#xfc;" horiz-adv-x="545" 
d="M65 487h122v-340c0 -26 11 -39 39 -39c30 0 83 18 127 41v338h122v-487h-93l-12 41c-61 -30 -138 -51 -195 -51c-81 0 -110 57 -110 144v353zM131 554v105h101v-105h-101zM320 554v105h101v-105h-101z" />
    <glyph glyph-name="yacute" unicode="&#xfd;" horiz-adv-x="478" 
d="M478 487l-156 -487l-65 -197h-116l61 197h-43l-154 487h125l111 -370l112 370h125zM229 539l-44 68c47 29 95 61 146 98l48 -74c-56 -37 -97 -63 -150 -92z" />
    <glyph glyph-name="thorn" unicode="&#xfe;" horiz-adv-x="533" 
d="M483 328v-166c0 -108 -48 -172 -161 -172c-43 0 -92 6 -130 14v-201l-122 -17v900l122 17v-246c43 29 88 40 141 40c98 0 150 -58 150 -169zM192 349v-242c32 -7 73 -13 108 -13c44 0 61 21 61 65v172c0 40 -15 62 -60 62c-40 0 -83 -22 -109 -44z" />
    <glyph glyph-name="ydieresis" unicode="&#xff;" horiz-adv-x="478" 
d="M478 487l-156 -487l-65 -197h-116l61 197h-43l-154 487h125l111 -370l112 370h125zM92 554v105h101v-105h-101zM281 554v105h101v-105h-101z" />
    <glyph glyph-name="Amacron" unicode="&#x100;" horiz-adv-x="646" 
d="M489 0l-43 138h-247l-42 -138h-132l210 666h176l210 -666h-132zM323 562l-93 -315h184zM198 732v81h250v-81h-250z" />
    <glyph glyph-name="amacron" unicode="&#x101;" horiz-adv-x="491" 
d="M431 321v-321h-100l-9 33c-44 -29 -96 -43 -145 -43c-89 0 -127 61 -127 145c0 99 43 137 142 137h117v51c0 54 -15 73 -93 73c-44 0 -92 -6 -135 -15l-15 93c46 14 113 23 167 23c153 0 198 -54 198 -176zM309 112v72h-90c-40 0 -51 -11 -51 -48c0 -34 11 -49 49 -49
c36 0 69 12 92 25zM127 557v81h250v-81h-250z" />
    <glyph glyph-name="Abreve" unicode="&#x102;" horiz-adv-x="646" 
d="M489 0l-43 138h-247l-42 -138h-132l210 666h176l210 -666h-132zM323 562l-93 -315h184zM403 846l58 -32c-14 -53 -60 -99 -138 -99s-124 46 -138 99l59 32c13 -38 39 -63 79 -63s66 25 80 63z" />
    <glyph glyph-name="abreve" unicode="&#x103;" horiz-adv-x="491" 
d="M431 321v-321h-100l-9 33c-44 -29 -96 -43 -145 -43c-89 0 -127 61 -127 145c0 99 43 137 142 137h117v51c0 54 -15 73 -93 73c-44 0 -92 -6 -135 -15l-15 93c46 14 113 23 167 23c153 0 198 -54 198 -176zM309 112v72h-90c-40 0 -51 -11 -51 -48c0 -34 11 -49 49 -49
c36 0 69 12 92 25zM341 677l59 -31c-12 -55 -62 -110 -147 -110s-134 55 -146 110l59 31c13 -37 42 -68 87 -68c46 0 74 31 88 68z" />
    <glyph glyph-name="Aogonek" unicode="&#x104;" horiz-adv-x="646" 
d="M489 0l-43 138h-247l-42 -138h-132l210 666h176l210 -666h-32c-64 -49 -88 -77 -88 -107c0 -19 9 -32 37 -32c12 0 21 1 31 4l14 -58c-21 -9 -40 -14 -69 -14c-64 0 -99 30 -99 80c0 57 53 94 122 127h-48zM323 562l-93 -315h184z" />
    <glyph glyph-name="aogonek" unicode="&#x105;" horiz-adv-x="491" 
d="M431 321v-321c-64 -49 -88 -77 -88 -107c0 -19 9 -32 37 -32c12 0 21 1 31 4l14 -58c-21 -9 -40 -14 -69 -14c-64 0 -99 30 -99 80c0 61 72 105 132 127h-58l-9 33c-44 -29 -96 -43 -145 -43c-89 0 -127 61 -127 145c0 99 43 137 142 137h117v51c0 54 -15 73 -93 73
c-44 0 -92 -6 -135 -15l-15 93c46 14 113 23 167 23c153 0 198 -54 198 -176zM309 112v72h-90c-40 0 -51 -11 -51 -48c0 -34 11 -49 49 -49c36 0 69 12 92 25z" />
    <glyph glyph-name="Cacute" unicode="&#x106;" horiz-adv-x="523" 
d="M60 183v300c0 122 71 193 237 193c62 0 126 -8 181 -22l-14 -109c-54 10 -117 17 -163 17c-87 0 -115 -30 -115 -101v-256c0 -71 28 -101 115 -101c46 0 109 7 163 17l14 -109c-55 -14 -119 -22 -181 -22c-166 0 -237 71 -237 193zM254 709l-44 68c47 29 93 58 133 89
l47 -74c-45 -33 -82 -55 -136 -83z" />
    <glyph glyph-name="cacute" unicode="&#x107;" horiz-adv-x="419" 
d="M258 -10c-153 0 -210 56 -210 187v133c0 131 57 187 210 187c34 0 83 -6 119 -18l-15 -100c-33 9 -77 13 -101 13c-70 0 -91 -21 -91 -81v-135c0 -60 21 -81 91 -81c31 0 66 4 101 13l15 -100c-32 -11 -79 -18 -119 -18zM190 539l-44 68c47 29 95 61 146 98l48 -74
c-56 -37 -97 -63 -150 -92z" />
    <glyph glyph-name="Ccircumflex" unicode="&#x108;" horiz-adv-x="523" 
d="M60 183v300c0 122 71 193 237 193c62 0 126 -8 181 -22l-14 -109c-54 10 -117 17 -163 17c-87 0 -115 -30 -115 -101v-256c0 -71 28 -101 115 -101c46 0 109 7 163 17l14 -109c-55 -14 -119 -22 -181 -22c-166 0 -237 71 -237 193zM213 709l-35 56c46 31 81 56 127 91
c45 -34 79 -59 127 -91l-34 -56c-39 18 -59 29 -93 49c-33 -19 -55 -31 -92 -49z" />
    <glyph glyph-name="ccircumflex" unicode="&#x109;" horiz-adv-x="419" 
d="M258 -10c-153 0 -210 56 -210 187v133c0 131 57 187 210 187c34 0 83 -6 119 -18l-15 -100c-33 9 -77 13 -101 13c-70 0 -91 -21 -91 -81v-135c0 -60 21 -81 91 -81c31 0 66 4 101 13l15 -100c-32 -11 -79 -18 -119 -18zM135 533l-39 54c44 32 94 71 140 109
c45 -37 94 -76 139 -109l-38 -54c-45 26 -67 41 -101 65c-34 -24 -57 -39 -101 -65z" />
    <glyph glyph-name="Cdotaccent" unicode="&#x10a;" horiz-adv-x="523" 
d="M60 183v300c0 122 71 193 237 193c62 0 126 -8 181 -22l-14 -109c-54 10 -117 17 -163 17c-87 0 -115 -30 -115 -101v-256c0 -71 28 -101 115 -101c46 0 109 7 163 17l14 -109c-55 -14 -119 -22 -181 -22c-166 0 -237 71 -237 193zM360 720h-122v141h122v-141z" />
    <glyph glyph-name="cdotaccent" unicode="&#x10b;" horiz-adv-x="419" 
d="M258 -10c-153 0 -210 56 -210 187v133c0 131 57 187 210 187c34 0 83 -6 119 -18l-15 -100c-33 9 -77 13 -101 13c-70 0 -91 -21 -91 -81v-135c0 -60 21 -81 91 -81c31 0 66 4 101 13l15 -100c-32 -11 -79 -18 -119 -18zM300 556h-122v141h122v-141z" />
    <glyph glyph-name="Ccaron" unicode="&#x10c;" horiz-adv-x="523" 
d="M60 183v300c0 122 71 193 237 193c62 0 126 -8 181 -22l-14 -109c-54 10 -117 17 -163 17c-87 0 -115 -30 -115 -101v-256c0 -71 28 -101 115 -101c46 0 109 7 163 17l14 -109c-55 -14 -119 -22 -181 -22c-166 0 -237 71 -237 193zM178 800l35 56c37 -18 59 -30 92 -49
c34 20 54 31 93 49l34 -56c-48 -32 -82 -57 -127 -91c-46 35 -81 60 -127 91z" />
    <glyph glyph-name="ccaron" unicode="&#x10d;" horiz-adv-x="419" 
d="M258 -10c-153 0 -210 56 -210 187v133c0 131 57 187 210 187c34 0 83 -6 119 -18l-15 -100c-33 9 -77 13 -101 13c-70 0 -91 -21 -91 -81v-135c0 -60 21 -81 91 -81c31 0 66 4 101 13l15 -100c-32 -11 -79 -18 -119 -18zM104 637l39 54c44 -26 67 -41 101 -65
c34 24 56 39 101 65l38 -54c-45 -33 -94 -72 -139 -109c-46 38 -96 77 -140 109z" />
    <glyph glyph-name="Dcaron" unicode="&#x10e;" horiz-adv-x="604" 
d="M75 666h248c164 0 221 -83 221 -179v-308c0 -95 -57 -179 -221 -179h-248v666zM201 555v-444h109c85 0 108 34 108 98v248c0 64 -23 98 -108 98h-109zM167 800l35 56c37 -18 59 -30 92 -49c34 20 54 31 93 49l34 -56c-48 -32 -82 -57 -127 -91c-46 35 -81 60 -127 91z
" />
    <glyph glyph-name="dcaron" unicode="&#x10f;" horiz-adv-x="650" 
d="M553 575v111h97v-118l-61 -102l-43 26l43 83h-36zM50 159v166c0 108 48 172 161 172c43 0 92 -6 130 -14v203l122 17v-703h-97l-12 41c-43 -31 -93 -51 -154 -51c-98 0 -150 58 -150 169zM341 138v242c-32 7 -73 13 -108 13c-44 0 -61 -21 -61 -65v-172
c0 -40 15 -62 60 -62c40 0 83 20 109 44z" />
    <glyph glyph-name="Dcroat" unicode="&#x110;" horiz-adv-x="638" 
d="M40 286v101h69v279h248c164 0 221 -83 221 -179v-308c0 -95 -57 -179 -221 -179h-248v286h-69zM235 555v-168h102v-101h-102v-175h109c85 0 108 34 108 98v248c0 64 -23 98 -108 98h-109z" />
    <glyph glyph-name="dcroat" unicode="&#x111;" horiz-adv-x="532" 
d="M253 546v65h88v75l122 17v-92h59v-65h-59v-546h-97l-12 41c-43 -31 -93 -51 -154 -51c-98 0 -150 58 -150 169v166c0 108 48 172 161 172c43 0 92 -6 130 -14v63h-88zM341 138v242c-32 7 -73 13 -108 13c-44 0 -61 -21 -61 -65v-172c0 -40 15 -62 60 -62
c40 0 83 20 109 44z" />
    <glyph glyph-name="Emacron" unicode="&#x112;" horiz-adv-x="538" 
d="M75 0v666h408v-111h-282v-161h260v-111h-260v-172h282v-111h-408zM160 732v81h250v-81h-250z" />
    <glyph glyph-name="emacron" unicode="&#x113;" horiz-adv-x="481" 
d="M170 172c0 -59 21 -82 95 -82c47 0 96 7 149 23l19 -92c-55 -21 -121 -31 -179 -31c-153 0 -206 71 -206 188v129c0 103 46 190 202 190s191 -91 191 -196v-104h-271v-25zM170 319v-24h155v24c0 46 -14 78 -74 78s-81 -32 -81 -78zM123 557v81h250v-81h-250z" />
    <glyph glyph-name="Ebreve" unicode="&#x114;" horiz-adv-x="538" 
d="M75 0v666h408v-111h-282v-161h260v-111h-260v-172h282v-111h-408zM372 846l58 -32c-14 -53 -60 -99 -138 -99s-124 46 -138 99l59 32c13 -38 39 -63 79 -63s66 25 80 63z" />
    <glyph glyph-name="ebreve" unicode="&#x115;" horiz-adv-x="481" 
d="M170 172c0 -59 21 -82 95 -82c47 0 96 7 149 23l19 -92c-55 -21 -121 -31 -179 -31c-153 0 -206 71 -206 188v129c0 103 46 190 202 190s191 -91 191 -196v-104h-271v-25zM170 319v-24h155v24c0 46 -14 78 -74 78s-81 -32 -81 -78zM335 677l59 -31
c-12 -55 -62 -110 -147 -110s-134 55 -146 110l59 31c13 -37 42 -68 87 -68c46 0 74 31 88 68z" />
    <glyph glyph-name="Edotaccent" unicode="&#x116;" horiz-adv-x="538" 
d="M75 0v666h408v-111h-282v-161h260v-111h-260v-172h282v-111h-408zM350 720h-122v141h122v-141z" />
    <glyph glyph-name="edotaccent" unicode="&#x117;" horiz-adv-x="481" 
d="M170 172c0 -59 21 -82 95 -82c47 0 96 7 149 23l19 -92c-55 -21 -121 -31 -179 -31c-153 0 -206 71 -206 188v129c0 103 46 190 202 190s191 -91 191 -196v-104h-271v-25zM170 319v-24h155v24c0 46 -14 78 -74 78s-81 -32 -81 -78zM309 556h-122v141h122v-141z" />
    <glyph glyph-name="Eogonek" unicode="&#x118;" horiz-adv-x="538" 
d="M75 0v666h408v-111h-282v-161h260v-111h-260v-172h282v-111h-41c-64 -49 -88 -77 -88 -107c0 -19 9 -32 37 -32c12 0 21 1 31 4l14 -58c-21 -9 -40 -14 -69 -14c-64 0 -99 30 -99 80c0 57 53 94 122 127h-315z" />
    <glyph glyph-name="eogonek" unicode="&#x119;" horiz-adv-x="481" 
d="M377 -135l14 -58c-21 -9 -40 -14 -69 -14c-64 0 -99 24 -99 74c0 49 44 91 133 133c-34 -7 -70 -10 -102 -10c-153 0 -206 71 -206 188v129c0 103 46 190 202 190s191 -91 191 -196v-104h-271v-25c0 -59 21 -82 95 -82c47 0 96 7 149 23l19 -92
c-91 -63 -124 -97 -124 -132c0 -19 9 -28 37 -28c12 0 19 1 31 4zM170 319v-24h155v24c0 46 -14 78 -74 78s-81 -32 -81 -78z" />
    <glyph glyph-name="Ecaron" unicode="&#x11a;" horiz-adv-x="538" 
d="M75 0v666h408v-111h-282v-161h260v-111h-260v-172h282v-111h-408zM162 800l35 56c37 -18 59 -30 92 -49c34 20 54 31 93 49l34 -56c-48 -32 -82 -57 -127 -91c-46 35 -81 60 -127 91z" />
    <glyph glyph-name="ecaron" unicode="&#x11b;" horiz-adv-x="481" 
d="M170 172c0 -59 21 -82 95 -82c47 0 96 7 149 23l19 -92c-55 -21 -121 -31 -179 -31c-153 0 -206 71 -206 188v129c0 103 46 190 202 190s191 -91 191 -196v-104h-271v-25zM170 319v-24h155v24c0 46 -14 78 -74 78s-81 -32 -81 -78zM112 637l39 54c44 -26 67 -41 101 -65
c34 24 56 39 101 65l38 -54c-45 -33 -94 -72 -139 -109c-46 38 -96 77 -140 109z" />
    <glyph glyph-name="Gcircumflex" unicode="&#x11c;" horiz-adv-x="584" 
d="M186 458v-252c0 -65 28 -103 116 -103c34 0 69 3 103 8v202h119v-293c-70 -20 -153 -30 -223 -30c-163 0 -241 69 -241 201v284c0 137 80 201 253 201c54 0 131 -6 191 -22l-14 -110c-61 13 -122 18 -187 18c-88 0 -117 -36 -117 -104zM221 709l-35 56
c46 31 81 56 127 91c45 -34 79 -59 127 -91l-34 -56c-39 18 -59 29 -93 49c-33 -19 -55 -31 -92 -49z" />
    <glyph glyph-name="gcircumflex" unicode="&#x11d;" horiz-adv-x="489" 
d="M236 130c-10 0 -19 0 -28 1c-16 -10 -29 -24 -29 -39c0 -13 8 -19 27 -21c54 -6 84 -9 141 -15c79 -9 104 -48 104 -118c0 -104 -38 -145 -220 -145c-56 0 -133 8 -188 25l15 91c52 -13 107 -21 164 -21c97 0 116 7 116 39c0 30 -9 35 -46 39c-56 6 -79 9 -141 16
c-69 8 -96 31 -96 93c0 40 27 66 51 83c-45 27 -66 72 -66 131v46c2 101 55 162 196 162c33 0 59 -4 83 -10h150v-61c-17 -5 -37 -10 -54 -15c11 -21 17 -48 17 -76v-46c0 -99 -60 -159 -196 -159zM318 331c0 46 -21 68 -82 68c-60 0 -81 -22 -81 -68v-37
c0 -48 24 -66 81 -66c58 0 82 19 82 66v37zM147 533l-39 54c44 32 94 71 140 109c45 -37 94 -76 139 -109l-38 -54c-45 26 -67 41 -101 65c-34 -24 -57 -39 -101 -65z" />
    <glyph glyph-name="Gbreve" unicode="&#x11e;" horiz-adv-x="584" 
d="M186 458v-252c0 -65 28 -103 116 -103c34 0 69 3 103 8v202h119v-293c-70 -20 -153 -30 -223 -30c-163 0 -241 69 -241 201v284c0 137 80 201 253 201c54 0 131 -6 191 -22l-14 -110c-61 13 -122 18 -187 18c-88 0 -117 -36 -117 -104zM384 846l58 -32
c-14 -53 -60 -99 -138 -99s-124 46 -138 99l59 32c13 -38 39 -63 79 -63s66 25 80 63z" />
    <glyph glyph-name="gbreve" unicode="&#x11f;" horiz-adv-x="489" 
d="M236 130c-10 0 -19 0 -28 1c-16 -10 -29 -24 -29 -39c0 -13 8 -19 27 -21c54 -6 84 -9 141 -15c79 -9 104 -48 104 -118c0 -104 -38 -145 -220 -145c-56 0 -133 8 -188 25l15 91c52 -13 107 -21 164 -21c97 0 116 7 116 39c0 30 -9 35 -46 39c-56 6 -79 9 -141 16
c-69 8 -96 31 -96 93c0 40 27 66 51 83c-45 27 -66 72 -66 131v46c2 101 55 162 196 162c33 0 59 -4 83 -10h150v-61c-17 -5 -37 -10 -54 -15c11 -21 17 -48 17 -76v-46c0 -99 -60 -159 -196 -159zM318 331c0 46 -21 68 -82 68c-60 0 -81 -22 -81 -68v-37
c0 -48 24 -66 81 -66c58 0 82 19 82 66v37zM340 677l59 -31c-12 -55 -62 -110 -147 -110s-134 55 -146 110l59 31c13 -37 42 -68 87 -68c46 0 74 31 88 68z" />
    <glyph glyph-name="Gdotaccent" unicode="&#x120;" horiz-adv-x="584" 
d="M186 458v-252c0 -65 28 -103 116 -103c34 0 69 3 103 8v202h119v-293c-70 -20 -153 -30 -223 -30c-163 0 -241 69 -241 201v284c0 137 80 201 253 201c54 0 131 -6 191 -22l-14 -110c-61 13 -122 18 -187 18c-88 0 -117 -36 -117 -104zM361 720h-122v141h122v-141z" />
    <glyph glyph-name="gdotaccent" unicode="&#x121;" horiz-adv-x="489" 
d="M236 130c-10 0 -19 0 -28 1c-16 -10 -29 -24 -29 -39c0 -13 8 -19 27 -21c54 -6 84 -9 141 -15c79 -9 104 -48 104 -118c0 -104 -38 -145 -220 -145c-56 0 -133 8 -188 25l15 91c52 -13 107 -21 164 -21c97 0 116 7 116 39c0 30 -9 35 -46 39c-56 6 -79 9 -141 16
c-69 8 -96 31 -96 93c0 40 27 66 51 83c-45 27 -66 72 -66 131v46c2 101 55 162 196 162c33 0 59 -4 83 -10h150v-61c-17 -5 -37 -10 -54 -15c11 -21 17 -48 17 -76v-46c0 -99 -60 -159 -196 -159zM318 331c0 46 -21 68 -82 68c-60 0 -81 -22 -81 -68v-37
c0 -48 24 -66 81 -66c58 0 82 19 82 66v37zM294 556h-122v141h122v-141z" />
    <glyph glyph-name="Gcommaaccent" unicode="&#x122;" horiz-adv-x="584" 
d="M186 458v-252c0 -65 28 -103 116 -103c34 0 69 3 103 8v202h119v-293c-70 -20 -153 -30 -223 -30c-163 0 -241 69 -241 201v284c0 137 80 201 253 201c54 0 131 -6 191 -22l-14 -110c-61 13 -122 18 -187 18c-88 0 -117 -36 -117 -104zM261 -183v132h117v-140l-64 -104
l-53 29l43 83h-43z" />
    <glyph glyph-name="gcommaaccent" unicode="&#x123;" horiz-adv-x="489" 
d="M285 654v-111h-100v118l61 102l43 -26l-43 -83h39zM236 130c-10 0 -19 0 -28 1c-16 -10 -29 -24 -29 -39c0 -13 8 -19 27 -21c54 -6 84 -9 141 -15c79 -9 104 -48 104 -118c0 -104 -38 -145 -220 -145c-56 0 -133 8 -188 25l15 91c52 -13 107 -21 164 -21
c97 0 116 7 116 39c0 30 -9 35 -46 39c-56 6 -79 9 -141 16c-69 8 -96 31 -96 93c0 40 27 66 51 83c-45 27 -66 72 -66 131v46c2 101 55 162 196 162c33 0 59 -4 83 -10h150v-61c-17 -5 -37 -10 -54 -15c11 -21 17 -48 17 -76v-46c0 -99 -60 -159 -196 -159zM318 331
c0 46 -21 68 -82 68c-60 0 -81 -22 -81 -68v-37c0 -48 24 -66 81 -66c58 0 82 19 82 66v37z" />
    <glyph glyph-name="Hcircumflex" unicode="&#x124;" horiz-adv-x="649" 
d="M574 0h-126v281h-247v-281h-126v666h126v-274h247v274h126v-666zM232 709l-35 56c46 31 81 56 127 91c45 -34 79 -59 127 -91l-34 -56c-39 18 -59 29 -93 49c-33 -19 -55 -31 -92 -49z" />
    <glyph glyph-name="hcircumflex" unicode="&#x125;" horiz-adv-x="545" 
d="M480 0h-122v340c0 26 -11 39 -39 39c-30 0 -83 -18 -127 -41v-338h-122v686l122 17v-253c54 28 126 47 178 47c81 0 110 -57 110 -144v-353zM45 739l-35 56c46 31 81 56 127 91c45 -34 79 -59 127 -91l-34 -56c-39 18 -59 29 -93 49c-33 -19 -55 -31 -92 -49z" />
    <glyph glyph-name="Hbar" unicode="&#x126;" horiz-adv-x="659" 
d="M20 501v66h60v99h126v-99h247v99h126v-99h60v-66h-60v-501h-126v281h-247v-281h-126v501h-60zM206 392h247v109h-247v-109z" />
    <glyph glyph-name="hbar" unicode="&#x127;" horiz-adv-x="545" 
d="M13 546v65h57v75l122 17v-92h97v-65h-97v-96c54 28 126 47 178 47c81 0 110 -57 110 -144v-353h-122v340c0 26 -11 39 -39 39c-30 0 -83 -18 -127 -41v-338h-122v546h-57z" />
    <glyph glyph-name="Itilde" unicode="&#x128;" horiz-adv-x="286" 
d="M206 666v-666h-126v666h126zM141 739c-19 12 -31 21 -49 21c-23 0 -38 -23 -51 -41l-50 41c22 41 57 78 99 78c23 0 39 -6 63 -20s38 -22 52 -22c21 0 32 12 41 37l58 -30c-17 -52 -52 -84 -99 -84c-26 0 -43 6 -64 20z" />
    <glyph glyph-name="itilde" unicode="&#x129;" horiz-adv-x="262" 
d="M192 0h-122v487h122v-487zM130 567c-19 13 -31 21 -49 21c-23 0 -38 -23 -51 -40l-50 41c22 40 57 77 99 77c23 0 39 -5 63 -20c24 -14 38 -21 52 -21c21 0 32 12 41 37l58 -30c-17 -52 -52 -84 -99 -84c-26 0 -43 6 -64 19z" />
    <glyph glyph-name="Imacron" unicode="&#x12a;" horiz-adv-x="286" 
d="M206 666v-666h-126v666h126zM18 732v81h250v-81h-250z" />
    <glyph glyph-name="imacron" unicode="&#x12b;" horiz-adv-x="262" 
d="M192 0h-122v487h122v-487zM6 557v81h250v-81h-250z" />
    <glyph glyph-name="Ibreve" unicode="&#x12c;" horiz-adv-x="286" 
d="M206 666v-666h-126v666h126zM223 846l58 -32c-14 -53 -60 -99 -138 -99s-124 46 -138 99l59 32c13 -38 39 -63 79 -63s66 25 80 63z" />
    <glyph glyph-name="ibreve" unicode="&#x12d;" horiz-adv-x="262" 
d="M192 0h-122v487h122v-487zM219 677l59 -31c-12 -55 -62 -110 -147 -110s-134 55 -146 110l59 31c13 -37 42 -68 87 -68c46 0 74 31 88 68z" />
    <glyph glyph-name="Iogonek" unicode="&#x12e;" horiz-adv-x="286" 
d="M183 -131l14 -58c-30 -12 -55 -18 -90 -18c-64 0 -103 37 -103 87c0 41 26 78 76 120v666h126v-666h-74c-28 -37 -46 -69 -46 -104c0 -22 10 -35 42 -35c20 0 32 2 55 8z" />
    <glyph glyph-name="iogonek" unicode="&#x12f;" horiz-adv-x="262" 
d="M173 -131l14 -58c-30 -12 -55 -18 -90 -18c-64 0 -103 37 -103 87c0 41 26 78 76 120v487h122v-487h-70c-28 -37 -46 -69 -46 -104c0 -22 10 -35 42 -35c20 0 32 2 55 8zM192 556h-122v141h122v-141z" />
    <glyph glyph-name="Idotaccent" unicode="&#x130;" horiz-adv-x="286" 
d="M206 666v-666h-126v666h126zM204 720h-122v141h122v-141z" />
    <glyph glyph-name="dotlessi" unicode="&#x131;" horiz-adv-x="262" 
d="M192 0h-122v487h122v-487z" />
    <glyph glyph-name="IJ" unicode="&#x132;" horiz-adv-x="557" 
d="M206 666v-666h-126v666h126zM361 666h126v-677c0 -69 -28 -103 -136 -195l-75 85c76 73 85 79 85 121v666z" />
    <glyph glyph-name="ij" unicode="&#x133;" horiz-adv-x="538" 
d="M192 0h-122v487h122v-487zM192 556h-122v141h122v-141zM330 487h122v-513c0 -62 -22 -91 -127 -181l-71 78c70 65 76 69 76 119v497zM452 556h-122v141h122v-141z" />
    <glyph glyph-name="Jcircumflex" unicode="&#x134;" horiz-adv-x="271" 
d="M75 666h126v-677c0 -69 -28 -103 -136 -195l-75 85c76 73 85 79 85 121v666zM47 709l-35 56c46 31 81 56 127 91c45 -34 79 -59 127 -91l-34 -56c-39 18 -59 29 -93 49c-33 -19 -55 -31 -92 -49z" />
    <glyph glyph-name="jcircumflex" unicode="&#x135;" horiz-adv-x="255" 
d="M68 487h122v-513c0 -62 -22 -91 -127 -181l-71 78c70 65 76 69 76 119v497zM28 533l-39 54c44 32 94 71 140 109c45 -37 94 -76 139 -109l-38 -54c-45 26 -67 41 -101 65c-34 -24 -57 -39 -101 -65z" />
    <glyph glyph-name="Kcommaaccent" unicode="&#x136;" horiz-adv-x="612" 
d="M201 666v-666h-126v666h126zM568 666l-210 -329l224 -337h-145l-218 337l206 329h143zM252 -183v132h117v-140l-64 -104l-53 29l43 83h-43z" />
    <glyph glyph-name="kcommaaccent" unicode="&#x137;" horiz-adv-x="508" 
d="M192 0h-122v686l122 17v-703zM348 487h136l-143 -241l149 -246h-134l-147 246zM212 -183v132h117v-140l-64 -104l-53 29l43 83h-43z" />
    <glyph glyph-name="kgreenlandic" unicode="&#x138;" horiz-adv-x="508" 
d="M192 0h-122v487h122v-487zM348 487h136l-143 -241l149 -246h-134l-147 246z" />
    <glyph glyph-name="Lacute" unicode="&#x139;" horiz-adv-x="505" 
d="M201 666v-555h274v-111h-400v666h126zM140 709l-44 68c47 29 93 58 133 89l47 -74c-45 -33 -82 -55 -136 -83z" />
    <glyph glyph-name="lacute" unicode="&#x13a;" horiz-adv-x="262" 
d="M192 0h-122v686l122 17v-703zM114 749l-44 68c47 29 93 58 133 89l47 -74c-45 -33 -82 -55 -136 -83z" />
    <glyph glyph-name="Lcommaaccent" unicode="&#x13b;" horiz-adv-x="505" 
d="M201 666v-555h274v-111h-400v666h126zM227 -183v132h117v-140l-64 -104l-53 29l43 83h-43z" />
    <glyph glyph-name="lcommaaccent" unicode="&#x13c;" horiz-adv-x="262" 
d="M192 0h-122v686l122 17v-703zM72 -183v132h117v-140l-64 -104l-53 29l43 83h-43z" />
    <glyph glyph-name="Lcaron" unicode="&#x13d;" horiz-adv-x="505" 
d="M201 666v-555h274v-111h-400v666h126zM338 575v111h97v-118l-61 -102l-43 26l43 83h-36z" />
    <glyph glyph-name="lcaron" unicode="&#x13e;" horiz-adv-x="377" 
d="M192 0h-122v686l122 17v-703zM280 575v111h97v-118l-61 -102l-43 26l43 83h-36z" />
    <glyph glyph-name="Ldot" unicode="&#x13f;" horiz-adv-x="505" 
d="M201 666v-555h274v-111h-400v666h126zM313 297v140h124v-140h-124z" />
    <glyph glyph-name="ldot" unicode="&#x140;" horiz-adv-x="398" 
d="M264 215v140h124v-140h-124zM192 0h-122v686l122 17v-703z" />
    <glyph glyph-name="Lslash" unicode="&#x141;" horiz-adv-x="543" 
d="M52 231l-32 77l93 41v317h126v-262l139 60l32 -78l-171 -74v-201h274v-111h-400v257z" />
    <glyph glyph-name="lslash" unicode="&#x142;" horiz-adv-x="327" 
d="M57 240l-32 77l78 34v335l122 17v-299l70 30l32 -78l-102 -44v-312h-122v260z" />
    <glyph glyph-name="Nacute" unicode="&#x143;" horiz-adv-x="694" 
d="M451 0l-253 505v-505h-123v666h168l253 -506v506h123v-666h-168zM332 709l-44 68c47 29 93 58 133 89l47 -74c-45 -33 -82 -55 -136 -83z" />
    <glyph glyph-name="nacute" unicode="&#x144;" horiz-adv-x="545" 
d="M480 0h-122v340c0 26 -11 39 -39 39c-30 0 -83 -18 -127 -41v-338h-122v487h93l12 -41c61 30 138 51 195 51c81 0 110 -57 110 -144v-353zM239 539l-44 68c47 29 95 61 146 98l48 -74c-56 -37 -97 -63 -150 -92z" />
    <glyph glyph-name="Ncommaaccent" unicode="&#x145;" horiz-adv-x="694" 
d="M451 0l-253 505v-505h-123v666h168l253 -506v506h123v-666h-168zM279 -183v132h117v-140l-64 -104l-53 29l43 83h-43z" />
    <glyph glyph-name="ncommaaccent" unicode="&#x146;" horiz-adv-x="545" 
d="M480 0h-122v340c0 26 -11 39 -39 39c-30 0 -83 -18 -127 -41v-338h-122v487h93l12 -41c61 30 138 51 195 51c81 0 110 -57 110 -144v-353zM222 -183v132h117v-140l-64 -104l-53 29l43 83h-43z" />
    <glyph glyph-name="Ncaron" unicode="&#x147;" horiz-adv-x="694" 
d="M451 0l-253 505v-505h-123v666h168l253 -506v506h123v-666h-168zM232 800l35 56c37 -18 59 -30 92 -49c34 20 54 31 93 49l34 -56c-48 -32 -82 -57 -127 -91c-46 35 -81 60 -127 91z" />
    <glyph glyph-name="ncaron" unicode="&#x148;" horiz-adv-x="545" 
d="M480 0h-122v340c0 26 -11 39 -39 39c-30 0 -83 -18 -127 -41v-338h-122v487h93l12 -41c61 30 138 51 195 51c81 0 110 -57 110 -144v-353zM138 637l39 54c44 -26 67 -41 101 -65c34 24 56 39 101 65l38 -54c-45 -33 -94 -72 -139 -109c-46 38 -96 77 -140 109z" />
    <glyph glyph-name="Eng" unicode="&#x14a;" horiz-adv-x="694" 
d="M451 0l-253 505v-505h-123v666h168l253 -506v506h123v-692c0 -58 -28 -80 -145 -181l-68 80c77 70 91 76 91 117v10h-46z" />
    <glyph glyph-name="eng" unicode="&#x14b;" horiz-adv-x="545" 
d="M358 340c0 26 -11 39 -39 39c-30 0 -83 -18 -127 -41v-338h-122v487h93l12 -41c61 30 138 51 195 51c81 0 110 -57 110 -144v-379c0 -58 -28 -80 -145 -181l-68 80c77 70 91 76 91 117v350z" />
    <glyph glyph-name="Omacron" unicode="&#x14c;" horiz-adv-x="624" 
d="M564 471v-276c0 -111 -64 -205 -252 -205s-252 94 -252 205v276c0 111 64 205 252 205s252 -94 252 -205zM186 464v-262c0 -63 32 -101 126 -101s126 38 126 101v262c0 63 -32 101 -126 101s-126 -38 -126 -101zM187 732v81h250v-81h-250z" />
    <glyph glyph-name="omacron" unicode="&#x14d;" horiz-adv-x="520" 
d="M472 182c0 -100 -45 -192 -212 -192s-212 92 -212 192v123c0 100 45 192 212 192s212 -92 212 -192v-123zM350 309c0 55 -25 84 -90 84s-90 -29 -90 -84v-131c0 -55 25 -84 90 -84s90 29 90 84v131zM135 557v81h250v-81h-250z" />
    <glyph glyph-name="Obreve" unicode="&#x14e;" horiz-adv-x="624" 
d="M564 471v-276c0 -111 -64 -205 -252 -205s-252 94 -252 205v276c0 111 64 205 252 205s252 -94 252 -205zM186 464v-262c0 -63 32 -101 126 -101s126 38 126 101v262c0 63 -32 101 -126 101s-126 -38 -126 -101zM392 846l58 -32c-14 -53 -60 -99 -138 -99
s-124 46 -138 99l59 32c13 -38 39 -63 79 -63s66 25 80 63z" />
    <glyph glyph-name="obreve" unicode="&#x14f;" horiz-adv-x="520" 
d="M472 182c0 -100 -45 -192 -212 -192s-212 92 -212 192v123c0 100 45 192 212 192s212 -92 212 -192v-123zM350 309c0 55 -25 84 -90 84s-90 -29 -90 -84v-131c0 -55 25 -84 90 -84s90 29 90 84v131zM348 677l59 -31c-12 -55 -62 -110 -147 -110s-134 55 -146 110l59 31
c13 -37 42 -68 87 -68c46 0 74 31 88 68z" />
    <glyph glyph-name="Ohungarumlaut" unicode="&#x150;" horiz-adv-x="624" 
d="M564 471v-276c0 -111 -64 -205 -252 -205s-252 94 -252 205v276c0 111 64 205 252 205s252 -94 252 -205zM186 464v-262c0 -63 32 -101 126 -101s126 38 126 101v262c0 63 -32 101 -126 101s-126 -38 -126 -101zM232 700l-57 57c35 31 72 68 105 103l61 -63
c-33 -34 -70 -69 -109 -97zM404 700l-57 57c35 31 72 68 105 103l61 -63c-33 -34 -70 -69 -109 -97z" />
    <glyph glyph-name="ohungarumlaut" unicode="&#x151;" horiz-adv-x="527" 
d="M472 182c0 -100 -45 -192 -212 -192s-212 92 -212 192v123c0 100 45 192 212 192s212 -92 212 -192v-123zM350 309c0 55 -25 84 -90 84s-90 -29 -90 -84v-131c0 -55 25 -84 90 -84s90 29 90 84v131zM171 530l-56 57c41 36 76 71 118 117l61 -64
c-47 -47 -77 -74 -123 -110zM351 530l-56 57c41 36 76 71 118 117l61 -64c-47 -47 -77 -74 -123 -110z" />
    <glyph glyph-name="OE" unicode="&#x152;" horiz-adv-x="896" 
d="M841 0h-529c-188 0 -252 94 -252 205v256c0 111 64 205 252 205h529v-111h-282v-161h260v-111h-260v-172h282v-111zM433 555h-121c-94 0 -126 -38 -126 -101v-242c0 -63 32 -101 126 -101h121v444z" />
    <glyph glyph-name="oe" unicode="&#x153;" horiz-adv-x="783" 
d="M472 172c0 -59 21 -82 95 -82c47 0 96 7 149 23l19 -92c-55 -21 -121 -31 -179 -31c-68 0 -116 19 -149 47c-35 -29 -80 -47 -147 -47c-167 0 -212 92 -212 192v123c0 100 45 192 212 192c65 0 107 -18 149 -49c40 33 85 49 143 49c156 0 191 -91 191 -196v-104h-271v-25
zM350 309c0 55 -25 84 -90 84s-90 -29 -90 -84v-131c0 -55 25 -84 90 -84c62 0 87 26 90 76v139zM472 319v-24h155v24c0 46 -14 78 -74 78s-81 -32 -81 -78z" />
    <glyph glyph-name="Racute" unicode="&#x154;" horiz-adv-x="650" 
d="M625 0h-151l-153 220h-120v-220h-126v666h273c155 0 212 -63 212 -180v-87c0 -80 -30 -136 -100 -161zM434 476c0 56 -24 79 -91 79h-142v-226h142c69 0 91 25 91 81v66zM279 709l-44 68c47 29 93 58 133 89l47 -74c-45 -33 -82 -55 -136 -83z" />
    <glyph glyph-name="racute" unicode="&#x155;" horiz-adv-x="333" 
d="M309 497l12 -112c-47 -21 -85 -43 -129 -71v-314h-122v487h103l8 -54c27 18 85 52 128 64zM136 539l-44 68c47 29 95 61 146 98l48 -74c-56 -37 -97 -63 -150 -92z" />
    <glyph glyph-name="Rcommaaccent" unicode="&#x156;" horiz-adv-x="650" 
d="M625 0h-151l-153 220h-120v-220h-126v666h273c155 0 212 -63 212 -180v-87c0 -80 -30 -136 -100 -161zM434 476c0 56 -24 79 -91 79h-142v-226h142c69 0 91 25 91 81v66zM276 -183v132h117v-140l-64 -104l-53 29l43 83h-43z" />
    <glyph glyph-name="rcommaaccent" unicode="&#x157;" horiz-adv-x="333" 
d="M309 497l12 -112c-47 -21 -85 -43 -129 -71v-314h-122v487h103l8 -54c27 18 85 52 128 64zM72 -183v132h117v-140l-64 -104l-53 29l43 83h-43z" />
    <glyph glyph-name="Rcaron" unicode="&#x158;" horiz-adv-x="650" 
d="M625 0h-151l-153 220h-120v-220h-126v666h273c155 0 212 -63 212 -180v-87c0 -80 -30 -136 -100 -161zM434 476c0 56 -24 79 -91 79h-142v-226h142c69 0 91 25 91 81v66zM181 800l35 56c37 -18 59 -30 92 -49c34 20 54 31 93 49l34 -56c-48 -32 -82 -57 -127 -91
c-46 35 -81 60 -127 91z" />
    <glyph glyph-name="rcaron" unicode="&#x159;" horiz-adv-x="333" 
d="M309 497l12 -112c-47 -21 -85 -43 -129 -71v-314h-122v487h103l8 -54c27 18 85 52 128 64zM48 637l39 54c44 -26 67 -41 101 -65c34 24 56 39 101 65l38 -54c-45 -33 -94 -72 -139 -109c-46 38 -96 77 -140 109z" />
    <glyph glyph-name="Sacute" unicode="&#x15a;" horiz-adv-x="540" 
d="M490 181c0 -126 -37 -191 -234 -191c-76 0 -164 19 -208 40l22 99c62 -19 122 -31 188 -31c91 0 106 19 106 83c0 74 -2 80 -122 106c-161 36 -183 67 -183 208c0 121 55 181 224 181c58 0 128 -7 194 -22l-14 -106c-55 12 -120 20 -178 20c-85 0 -100 -18 -100 -76
c0 -76 2 -78 117 -106c179 -43 188 -72 188 -205zM250 709l-44 68c47 29 93 58 133 89l47 -74c-45 -33 -82 -55 -136 -83z" />
    <glyph glyph-name="sacute" unicode="&#x15b;" horiz-adv-x="447" 
d="M397 142c0 -94 -29 -152 -176 -152c-52 0 -123 12 -168 28l17 93c41 -12 95 -21 145 -21c54 0 62 12 62 49c0 30 -6 45 -85 64c-119 29 -133 59 -133 153c0 98 43 141 182 141c45 0 104 -6 146 -17l-12 -97c-37 7 -96 14 -134 14c-53 0 -62 -12 -62 -42
c0 -39 3 -42 69 -59c136 -36 149 -54 149 -154zM198 539l-44 68c47 29 95 61 146 98l48 -74c-56 -37 -97 -63 -150 -92z" />
    <glyph glyph-name="Scircumflex" unicode="&#x15c;" horiz-adv-x="540" 
d="M490 181c0 -126 -37 -191 -234 -191c-76 0 -164 19 -208 40l22 99c62 -19 122 -31 188 -31c91 0 106 19 106 83c0 74 -2 80 -122 106c-161 36 -183 67 -183 208c0 121 55 181 224 181c58 0 128 -7 194 -22l-14 -106c-55 12 -120 20 -178 20c-85 0 -100 -18 -100 -76
c0 -76 2 -78 117 -106c179 -43 188 -72 188 -205zM196 709l-35 56c46 31 81 56 127 91c45 -34 79 -59 127 -91l-34 -56c-39 18 -59 29 -93 49c-33 -19 -55 -31 -92 -49z" />
    <glyph glyph-name="scircumflex" unicode="&#x15d;" horiz-adv-x="447" 
d="M397 142c0 -94 -29 -152 -176 -152c-52 0 -123 12 -168 28l17 93c41 -12 95 -21 145 -21c54 0 62 12 62 49c0 30 -6 45 -85 64c-119 29 -133 59 -133 153c0 98 43 141 182 141c45 0 104 -6 146 -17l-12 -97c-37 7 -96 14 -134 14c-53 0 -62 -12 -62 -42
c0 -39 3 -42 69 -59c136 -36 149 -54 149 -154zM140 533l-39 54c44 32 94 71 140 109c45 -37 94 -76 139 -109l-38 -54c-45 26 -67 41 -101 65c-34 -24 -57 -39 -101 -65z" />
    <glyph glyph-name="Scedilla" unicode="&#x15e;" horiz-adv-x="540" 
d="M382 -119c0 -48 -33 -81 -107 -81c-23 0 -60 6 -83 15l10 47c17 -5 45 -9 65 -9c40 0 49 10 49 29c0 17 -10 24 -38 24c-7 0 -22 -1 -31 -2l-29 14l15 73c-70 3 -146 20 -185 39l22 99c62 -19 122 -31 188 -31c91 0 106 19 106 83c0 74 -2 80 -122 106
c-161 36 -183 67 -183 208c0 121 55 181 224 181c58 0 128 -7 194 -22l-14 -106c-55 12 -120 20 -178 20c-85 0 -100 -18 -100 -76c0 -76 2 -78 117 -106c179 -43 188 -72 188 -205c0 -118 -33 -182 -199 -190l-8 -44c8 1 19 2 28 2c48 1 71 -28 71 -68z" />
    <glyph glyph-name="scedilla" unicode="&#x15f;" horiz-adv-x="447" 
d="M397 142c0 -90 -27 -146 -157 -151l-8 -44c8 1 19 2 28 2c48 1 71 -28 71 -68c0 -48 -33 -81 -107 -81c-23 0 -60 6 -83 15l10 47c17 -5 45 -9 65 -9c40 0 49 10 49 29c0 17 -10 24 -38 24c-7 0 -22 -1 -31 -2l-29 14l16 74c-45 4 -95 13 -130 26l17 93
c41 -12 95 -21 145 -21c54 0 62 12 62 49c0 30 -6 45 -85 64c-119 29 -133 59 -133 153c0 98 43 141 182 141c45 0 104 -6 146 -17l-12 -97c-37 7 -96 14 -134 14c-53 0 -62 -12 -62 -42c0 -39 3 -42 69 -59c136 -36 149 -54 149 -154z" />
    <glyph glyph-name="Scaron" unicode="&#x160;" horiz-adv-x="540" 
d="M490 181c0 -126 -37 -191 -234 -191c-76 0 -164 19 -208 40l22 99c62 -19 122 -31 188 -31c91 0 106 19 106 83c0 74 -2 80 -122 106c-161 36 -183 67 -183 208c0 121 55 181 224 181c58 0 128 -7 194 -22l-14 -106c-55 12 -120 20 -178 20c-85 0 -100 -18 -100 -76
c0 -76 2 -78 117 -106c179 -43 188 -72 188 -205zM151 800l35 56c37 -18 59 -30 92 -49c34 20 54 31 93 49l34 -56c-48 -32 -82 -57 -127 -91c-46 35 -81 60 -127 91z" />
    <glyph glyph-name="scaron" unicode="&#x161;" horiz-adv-x="447" 
d="M397 142c0 -94 -29 -152 -176 -152c-52 0 -123 12 -168 28l17 93c41 -12 95 -21 145 -21c54 0 62 12 62 49c0 30 -6 45 -85 64c-119 29 -133 59 -133 153c0 98 43 141 182 141c45 0 104 -6 146 -17l-12 -97c-37 7 -96 14 -134 14c-53 0 -62 -12 -62 -42
c0 -39 3 -42 69 -59c136 -36 149 -54 149 -154zM91 637l39 54c44 -26 67 -41 101 -65c34 24 56 39 101 65l38 -54c-45 -33 -94 -72 -139 -109c-46 38 -96 77 -140 109z" />
    <glyph glyph-name="Tcommaaccent" unicode="&#x162;" horiz-adv-x="548" 
d="M211 0v555h-186v111h498v-111h-186v-555h-126zM214 -183v132h117v-140l-64 -104l-53 29l43 83h-43z" />
    <glyph glyph-name="Tcommaaccent" unicode="&#x21a;" horiz-adv-x="548" 
d="M211 0v555h-186v111h498v-111h-186v-555h-126zM214 -183v132h117v-140l-64 -104l-53 29l43 83h-43z" />
    <glyph glyph-name="tcommaaccent" unicode="&#x163;" horiz-adv-x="355" 
d="M315 102l14 -93c-26 -11 -76 -19 -107 -19c-89 0 -134 42 -134 129v271h-73v97h73v121l122 17v-138h125l-8 -97h-117v-255c0 -26 12 -43 44 -43c18 0 40 4 61 10zM158 -183v132h117v-140l-64 -104l-53 29l43 83h-43z" />
    <glyph glyph-name="tcommaaccent" unicode="&#x21b;" horiz-adv-x="355" 
d="M315 102l14 -93c-26 -11 -76 -19 -107 -19c-89 0 -134 42 -134 129v271h-73v97h73v121l122 17v-138h125l-8 -97h-117v-255c0 -26 12 -43 44 -43c18 0 40 4 61 10zM158 -183v132h117v-140l-64 -104l-53 29l43 83h-43z" />
    <glyph glyph-name="Tcaron" unicode="&#x164;" horiz-adv-x="548" 
d="M211 0v555h-186v111h498v-111h-186v-555h-126zM147 800l35 56c37 -18 59 -30 92 -49c34 20 54 31 93 49l34 -56c-48 -32 -82 -57 -127 -91c-46 35 -81 60 -127 91z" />
    <glyph glyph-name="tcaron" unicode="&#x165;" horiz-adv-x="372" 
d="M315 102l14 -93c-26 -11 -76 -19 -107 -19c-89 0 -134 42 -134 129v271h-73v97h73v121l122 17v-138h125l-8 -97h-117v-255c0 -26 12 -43 44 -43c18 0 40 4 61 10zM280 604v92h97v-99l-44 -75l-43 26l32 56h-42z" />
    <glyph glyph-name="Tbar" unicode="&#x166;" horiz-adv-x="548" 
d="M75 289v70h136v196h-186v111h498v-111h-186v-196h136v-70h-136v-289h-126v289h-136z" />
    <glyph glyph-name="tbar" unicode="&#x167;" horiz-adv-x="355" 
d="M15 218v67h73v105h-73v97h73v121l122 17v-138h125l-8 -97h-117v-105h109v-67h-109v-83c0 -26 12 -43 44 -43c18 0 40 4 61 10l14 -93c-26 -11 -76 -19 -107 -19c-89 0 -134 42 -134 129v99h-73z" />
    <glyph glyph-name="Utilde" unicode="&#x168;" horiz-adv-x="632" 
d="M436 666h126v-473c0 -105 -59 -203 -246 -203s-246 98 -246 203v473h126v-463c0 -65 31 -102 120 -102s120 37 120 102v463zM317 739c-19 12 -31 21 -49 21c-23 0 -38 -23 -51 -41l-50 41c22 41 57 78 99 78c23 0 39 -6 63 -20s38 -22 52 -22c21 0 32 12 41 37l58 -30
c-17 -52 -52 -84 -99 -84c-26 0 -43 6 -64 20z" />
    <glyph glyph-name="utilde" unicode="&#x169;" horiz-adv-x="545" 
d="M65 487h122v-340c0 -26 11 -39 39 -39c30 0 83 18 127 41v338h122v-487h-93l-12 41c-61 -30 -138 -51 -195 -51c-81 0 -110 57 -110 144v353zM278 567c-19 13 -31 21 -49 21c-23 0 -38 -23 -51 -40l-50 41c22 40 57 77 99 77c23 0 39 -5 63 -20c24 -14 38 -21 52 -21
c21 0 32 12 41 37l58 -30c-17 -52 -52 -84 -99 -84c-26 0 -43 6 -64 19z" />
    <glyph glyph-name="Umacron" unicode="&#x16a;" horiz-adv-x="632" 
d="M436 666h126v-473c0 -105 -59 -203 -246 -203s-246 98 -246 203v473h126v-463c0 -65 31 -102 120 -102s120 37 120 102v463zM191 732v81h250v-81h-250z" />
    <glyph glyph-name="umacron" unicode="&#x16b;" horiz-adv-x="545" 
d="M65 487h122v-340c0 -26 11 -39 39 -39c30 0 83 18 127 41v338h122v-487h-93l-12 41c-61 -30 -138 -51 -195 -51c-81 0 -110 57 -110 144v353zM153 557v81h250v-81h-250z" />
    <glyph glyph-name="Ubreve" unicode="&#x16c;" horiz-adv-x="632" 
d="M436 666h126v-473c0 -105 -59 -203 -246 -203s-246 98 -246 203v473h126v-463c0 -65 31 -102 120 -102s120 37 120 102v463zM395 846l58 -32c-14 -53 -60 -99 -138 -99s-124 46 -138 99l59 32c13 -38 39 -63 79 -63s66 25 80 63z" />
    <glyph glyph-name="ubreve" unicode="&#x16d;" horiz-adv-x="545" 
d="M65 487h122v-340c0 -26 11 -39 39 -39c30 0 83 18 127 41v338h122v-487h-93l-12 41c-61 -30 -138 -51 -195 -51c-81 0 -110 57 -110 144v353zM368 677l59 -31c-12 -55 -62 -110 -147 -110s-134 55 -146 110l59 31c13 -37 42 -68 87 -68c46 0 74 31 88 68z" />
    <glyph glyph-name="Uring" unicode="&#x16e;" horiz-adv-x="632" 
d="M436 666h126v-473c0 -105 -59 -203 -246 -203s-246 98 -246 203v473h126v-463c0 -65 31 -102 120 -102s120 37 120 102v463zM397 782c0 -43 -31 -78 -82 -78s-82 32 -82 78c0 44 31 79 82 79s82 -35 82 -79zM348 782c0 22 -12 35 -33 35s-33 -13 -33 -35
c0 -20 12 -34 33 -34s33 14 33 34z" />
    <glyph glyph-name="uring" unicode="&#x16f;" horiz-adv-x="545" 
d="M65 487h122v-340c0 -26 11 -39 39 -39c30 0 83 18 127 41v338h122v-487h-93l-12 41c-61 -30 -138 -51 -195 -51c-81 0 -110 57 -110 144v353zM364 615c0 -47 -31 -86 -89 -86c-57 0 -89 36 -89 86c0 47 32 85 89 85c58 0 89 -38 89 -85zM311 615c0 23 -14 38 -36 38
s-36 -15 -36 -38s14 -39 36 -39s36 16 36 39z" />
    <glyph glyph-name="Uhungarumlaut" unicode="&#x170;" horiz-adv-x="632" 
d="M436 666h126v-473c0 -105 -59 -203 -246 -203s-246 98 -246 203v473h126v-463c0 -65 31 -102 120 -102s120 37 120 102v463zM231 700l-57 57c35 31 72 68 105 103l61 -63c-33 -34 -70 -69 -109 -97zM403 700l-57 57c35 31 72 68 105 103l61 -63c-33 -34 -70 -69 -109 -97
z" />
    <glyph glyph-name="uhungarumlaut" unicode="&#x171;" horiz-adv-x="545" 
d="M65 487h122v-340c0 -26 11 -39 39 -39c30 0 83 18 127 41v338h122v-487h-93l-12 41c-61 -30 -138 -51 -195 -51c-81 0 -110 57 -110 144v353zM182 530l-56 57c41 36 76 71 118 117l61 -64c-47 -47 -77 -74 -123 -110zM362 530l-56 57c41 36 76 71 118 117l61 -64
c-47 -47 -77 -74 -123 -110z" />
    <glyph glyph-name="Uogonek" unicode="&#x172;" horiz-adv-x="632" 
d="M394 -135l14 -58c-21 -9 -40 -14 -69 -14c-64 0 -99 30 -99 80c0 51 42 90 100 118c-8 -1 -16 -1 -24 -1c-187 0 -246 98 -246 203v473h126v-463c0 -65 31 -102 120 -102s120 37 120 102v463h126v-473c0 -77 -32 -150 -122 -184c-84 -45 -114 -82 -114 -116
c0 -19 9 -32 37 -32c12 0 21 1 31 4z" />
    <glyph glyph-name="uogonek" unicode="&#x173;" horiz-adv-x="545" 
d="M455 -135l14 -58c-21 -9 -40 -14 -69 -14c-64 0 -99 30 -99 80c0 53 49 94 122 127h-41l-12 41c-61 -30 -138 -51 -195 -51c-81 0 -110 57 -110 144v353h122v-340c0 -26 11 -39 39 -39c30 0 83 18 127 41v338h122v-487c-64 -49 -88 -77 -88 -107c0 -19 9 -32 37 -32
c12 0 21 1 31 4z" />
    <glyph glyph-name="Wcircumflex" unicode="&#x174;" horiz-adv-x="944" 
d="M556 666l121 -516l127 516h125l-165 -666h-170l-122 536l-122 -536h-170l-165 666h125l127 -516l121 516h168zM380 709l-35 56c46 31 81 56 127 91c45 -34 79 -59 127 -91l-34 -56c-39 18 -59 29 -93 49c-33 -19 -55 -31 -92 -49z" />
    <glyph glyph-name="wcircumflex" unicode="&#x175;" horiz-adv-x="704" 
d="M249 0h-141l-90 487h114l60 -326l97 326h127l96 -326l60 326h114l-90 -487h-141l-103 350zM252 533l-39 54c44 32 94 71 140 109c45 -37 94 -76 139 -109l-38 -54c-45 26 -67 41 -101 65c-34 -24 -57 -39 -101 -65z" />
    <glyph glyph-name="Ycircumflex" unicode="&#x176;" horiz-adv-x="566" 
d="M283 330l144 336h134l-215 -473v-193h-126v193l-215 473h134zM191 709l-35 56c46 31 81 56 127 91c45 -34 79 -59 127 -91l-34 -56c-39 18 -59 29 -93 49c-33 -19 -55 -31 -92 -49z" />
    <glyph glyph-name="ycircumflex" unicode="&#x177;" horiz-adv-x="478" 
d="M478 487l-156 -487l-65 -197h-116l61 197h-43l-154 487h125l111 -370l112 370h125zM142 533l-39 54c44 32 94 71 140 109c45 -37 94 -76 139 -109l-38 -54c-45 26 -67 41 -101 65c-34 -24 -57 -39 -101 -65z" />
    <glyph glyph-name="Ydieresis" unicode="&#x178;" horiz-adv-x="566" 
d="M283 330l144 336h134l-215 -473v-193h-126v193l-215 473h134zM129 726v97h102v-97h-102zM322 726v97h102v-97h-102z" />
    <glyph glyph-name="Zacute" unicode="&#x179;" horiz-adv-x="575" 
d="M512 559l-306 -452h309v-107h-450v106l308 453h-296v107h435v-107zM267 709l-44 68c47 29 93 58 133 89l47 -74c-45 -33 -82 -55 -136 -83z" />
    <glyph glyph-name="zacute" unicode="&#x17a;" horiz-adv-x="460" 
d="M58 393v94h355v-94l-217 -299h224v-94h-365v94l217 299h-214zM208 539l-44 68c47 29 95 61 146 98l48 -74c-56 -37 -97 -63 -150 -92z" />
    <glyph glyph-name="Zdotaccent" unicode="&#x17b;" horiz-adv-x="575" 
d="M512 559l-306 -452h309v-107h-450v106l308 453h-296v107h435v-107zM358 720h-122v141h122v-141z" />
    <glyph glyph-name="zdotaccent" unicode="&#x17c;" horiz-adv-x="460" 
d="M58 393v94h355v-94l-217 -299h224v-94h-365v94l217 299h-214zM307 556h-122v141h122v-141z" />
    <glyph glyph-name="Zcaron" unicode="&#x17d;" horiz-adv-x="575" 
d="M512 559l-306 -452h309v-107h-450v106l308 453h-296v107h435v-107zM171 800l35 56c37 -18 59 -30 92 -49c34 20 54 31 93 49l34 -56c-48 -32 -82 -57 -127 -91c-46 35 -81 60 -127 91z" />
    <glyph glyph-name="zcaron" unicode="&#x17e;" horiz-adv-x="460" 
d="M58 393v94h355v-94l-217 -299h224v-94h-365v94l217 299h-214zM103 637l39 54c44 -26 67 -41 101 -65c34 24 56 39 101 65l38 -54c-45 -33 -94 -72 -139 -109c-46 38 -96 77 -140 109z" />
    <glyph glyph-name="florin" unicode="&#x192;" horiz-adv-x="488" 
d="M160 326h-82l8 101h82l11 130c10 105 61 145 169 145c37 0 69 -5 105 -14l-13 -96c-23 4 -58 8 -80 8c-48 0 -56 -20 -59 -58l-10 -115h126l-13 -101h-122l-33 -381c-8 -95 -52 -142 -162 -142c-22 0 -56 4 -81 11l16 97c16 -4 35 -6 51 -6c40 0 51 14 54 48z" />
    <glyph glyph-name="Aringacute" unicode="&#x1fa;" horiz-adv-x="646" 
d="M489 0l-43 138h-247l-42 -138h-132l210 666h176l210 -666h-132zM323 562l-93 -315h184zM405 772c0 -43 -31 -78 -82 -78s-82 32 -82 78c0 44 31 79 82 79s82 -35 82 -79zM356 772c0 22 -12 35 -33 35s-33 -13 -33 -35c0 -20 12 -34 33 -34s33 14 33 34zM327 871l-39 61
c45 27 75 45 115 76l42 -67c-42 -30 -77 -49 -118 -70z" />
    <glyph glyph-name="aringacute" unicode="&#x1fb;" horiz-adv-x="491" 
d="M336 612c0 -43 -31 -78 -82 -78s-82 32 -82 78c0 44 31 79 82 79s82 -35 82 -79zM287 612c0 22 -12 35 -33 35s-33 -13 -33 -35c0 -20 12 -34 33 -34s33 14 33 34zM253 711l-39 61c45 27 75 45 115 76l42 -67c-42 -30 -77 -49 -118 -70zM431 321v-321h-100l-9 33
c-44 -29 -96 -43 -145 -43c-89 0 -127 61 -127 145c0 99 43 137 142 137h117v51c0 54 -15 73 -93 73c-44 0 -92 -6 -135 -15l-15 93c46 14 113 23 167 23c153 0 198 -54 198 -176zM309 112v72h-90c-40 0 -51 -11 -51 -48c0 -34 11 -49 49 -49c36 0 69 12 92 25z" />
    <glyph glyph-name="AEacute" unicode="&#x1fc;" horiz-adv-x="862" 
d="M489 0l-43 138h-247l-42 -138h-132l210 666h572v-111h-361l51 -161h288v-111h-253l54 -172h221v-111h-318zM323 562l-93 -315h184zM349 709l-44 68c47 29 93 58 133 89l47 -74c-45 -33 -82 -55 -136 -83z" />
    <glyph glyph-name="aeacute" unicode="&#x1fd;" horiz-adv-x="742" 
d="M431 172c0 -59 21 -82 95 -82c47 0 96 7 149 23l19 -92c-55 -21 -121 -31 -179 -31c-76 0 -127 17 -160 49c-44 -28 -103 -49 -167 -49c-97 0 -138 61 -138 145c0 99 43 137 142 137h117v51c0 54 -15 73 -93 73c-44 0 -92 -6 -135 -15l-15 93c46 14 113 23 167 23
c68 0 107 -18 145 -45c33 24 74 45 133 45c156 0 191 -91 191 -196v-104h-271v-25zM431 319v-24h155v24c0 46 -14 78 -74 78s-81 -32 -81 -78zM217 87c40 0 75 13 98 26c-4 19 -6 41 -6 65v6h-90c-40 0 -51 -11 -51 -48c0 -34 11 -49 49 -49zM372 539l-44 68
c47 29 95 61 146 98l48 -74c-56 -37 -97 -63 -150 -92z" />
    <glyph glyph-name="Oslashacute" unicode="&#x1fe;" horiz-adv-x="624" 
d="M60 -30l51 85c-36 37 -51 87 -51 140v276c0 111 64 205 252 205c64 0 114 -11 152 -30l48 80l52 -30l-51 -86c36 -37 51 -86 51 -139v-276c0 -111 -64 -205 -252 -205c-65 0 -115 11 -152 30l-48 -80zM438 464c0 7 0 13 -1 19l-216 -361c20 -14 49 -21 91 -21
c94 0 126 38 126 101v262zM186 464v-262c0 -7 0 -13 1 -19l216 361c-20 13 -50 21 -91 21c-94 0 -126 -38 -126 -101zM294 709l-44 68c47 29 93 58 133 89l47 -74c-45 -33 -82 -55 -136 -83z" />
    <glyph glyph-name="oslashacute" unicode="&#x1ff;" horiz-adv-x="520" 
d="M48 -22l46 67c-34 36 -46 85 -46 137v123c0 100 45 192 212 192c53 0 93 -9 124 -25l44 64l43 -28l-46 -67c35 -36 47 -85 47 -136v-123c0 -100 -45 -192 -212 -192c-53 0 -94 9 -125 25l-44 -65zM350 309c0 7 0 14 -1 20l-150 -221c14 -9 34 -14 61 -14
c65 0 90 29 90 84v131zM170 178c0 -7 0 -14 1 -20l150 220c-14 10 -35 15 -61 15c-65 0 -90 -29 -90 -84v-131zM234 539l-44 68c47 29 95 61 146 98l48 -74c-56 -37 -97 -63 -150 -92z" />
    <glyph glyph-name="Scommaaccent" unicode="&#x218;" horiz-adv-x="540" 
d="M490 181c0 -126 -37 -191 -234 -191c-76 0 -164 19 -208 40l22 99c62 -19 122 -31 188 -31c91 0 106 19 106 83c0 74 -2 80 -122 106c-161 36 -183 67 -183 208c0 121 55 181 224 181c58 0 128 -7 194 -22l-14 -106c-55 12 -120 20 -178 20c-85 0 -100 -18 -100 -76
c0 -76 2 -78 117 -106c179 -43 188 -72 188 -205zM215 -183v132h117v-140l-64 -104l-53 29l43 83h-43z" />
    <glyph glyph-name="scommaaccent" unicode="&#x219;" horiz-adv-x="447" 
d="M397 142c0 -94 -29 -152 -176 -152c-52 0 -123 12 -168 28l17 93c41 -12 95 -21 145 -21c54 0 62 12 62 49c0 30 -6 45 -85 64c-119 29 -133 59 -133 153c0 98 43 141 182 141c45 0 104 -6 146 -17l-12 -97c-37 7 -96 14 -134 14c-53 0 -62 -12 -62 -42
c0 -39 3 -42 69 -59c136 -36 149 -54 149 -154zM178 -183v132h117v-140l-64 -104l-53 29l43 83h-43z" />
    <glyph glyph-name="circumflex" unicode="&#x2c6;" horiz-adv-x="389" 
d="M94 533l-39 54c44 32 94 71 140 109c45 -37 94 -76 139 -109l-38 -54c-45 26 -67 41 -101 65c-34 -24 -57 -39 -101 -65z" />
    <glyph glyph-name="caron" unicode="&#x2c7;" horiz-adv-x="389" 
d="M55 637l39 54c44 -26 67 -41 101 -65c34 24 56 39 101 65l38 -54c-45 -33 -94 -72 -139 -109c-46 38 -96 77 -140 109z" />
    <glyph glyph-name="breve" unicode="&#x2d8;" horiz-adv-x="403" 
d="M289 677l59 -31c-12 -55 -62 -110 -147 -110s-134 55 -146 110l59 31c13 -37 42 -68 87 -68c46 0 74 31 88 68z" />
    <glyph glyph-name="dotaccent" unicode="&#x2d9;" horiz-adv-x="232" 
d="M177 556h-122v141h122v-141z" />
    <glyph glyph-name="ring" unicode="&#x2da;" horiz-adv-x="288" 
d="M233 615c0 -47 -31 -86 -89 -86c-57 0 -89 36 -89 86c0 47 32 85 89 85c58 0 89 -38 89 -85zM180 615c0 23 -14 38 -36 38s-36 -15 -36 -38s14 -39 36 -39s36 16 36 39z" />
    <glyph glyph-name="ogonek" unicode="&#x2db;" horiz-adv-x="284" 
d="M209 -135l14 -58c-21 -9 -40 -14 -69 -14c-64 0 -99 30 -99 80c0 57 53 94 122 127h52c-64 -49 -88 -77 -88 -107c0 -19 9 -32 37 -32c12 0 21 1 31 4z" />
    <glyph glyph-name="tilde" unicode="&#x2dc;" horiz-adv-x="423" 
d="M205 567c-19 13 -31 21 -49 21c-23 0 -38 -23 -51 -40l-50 41c22 40 57 77 99 77c23 0 39 -5 63 -20c24 -14 38 -21 52 -21c21 0 32 12 41 37l58 -30c-17 -52 -52 -84 -99 -84c-26 0 -43 6 -64 19z" />
    <glyph glyph-name="hungarumlaut" unicode="&#x2dd;" horiz-adv-x="469" 
d="M111 530l-56 57c41 36 76 71 118 117l61 -64c-47 -47 -77 -74 -123 -110zM291 530l-56 57c41 36 76 71 118 117l61 -64c-47 -47 -77 -74 -123 -110z" />
    <glyph glyph-name="Omega" unicode="&#x3a9;" horiz-adv-x="708" 
d="M606 475v-277c0 -50 -15 -82 -44 -114h86v-84h-233v84c41 21 64 47 64 111v273c0 62 -41 97 -125 97s-125 -35 -125 -97v-273c0 -64 23 -90 64 -111v-84h-233v84h86c-29 32 -44 64 -44 114v277c0 103 70 201 252 201s252 -98 252 -201z" />
    <glyph glyph-name="pi" unicode="&#x3c0;" horiz-adv-x="672" 
d="M618 385h-102v-266c0 -25 8 -33 35 -33c17 0 35 3 54 9l17 -88c-27 -10 -60 -17 -93 -17c-92 0 -133 46 -133 122v273h-138v-385h-118v385h-105v102h583v-102z" />
    <glyph glyph-name="Wgrave" unicode="&#x1e80;" horiz-adv-x="944" 
d="M556 666l121 -516l127 516h125l-165 -666h-170l-122 536l-122 -536h-170l-165 666h125l127 -516l121 516h168zM525 777l-44 -68c-53 28 -91 50 -136 83l48 74c39 -31 85 -60 132 -89z" />
    <glyph glyph-name="wgrave" unicode="&#x1e81;" horiz-adv-x="704" 
d="M249 0h-141l-90 487h114l60 -326l97 326h127l96 -326l60 326h114l-90 -487h-141l-103 350zM402 607l-45 -68c-52 29 -93 55 -149 92l48 74c50 -37 99 -69 146 -98z" />
    <glyph glyph-name="Wacute" unicode="&#x1e82;" horiz-adv-x="944" 
d="M556 666l121 -516l127 516h125l-165 -666h-170l-122 536l-122 -536h-170l-165 666h125l127 -516l121 516h168zM468 709l-44 68c47 29 93 58 133 89l47 -74c-45 -33 -82 -55 -136 -83z" />
    <glyph glyph-name="wacute" unicode="&#x1e83;" horiz-adv-x="704" 
d="M249 0h-141l-90 487h114l60 -326l97 326h127l96 -326l60 326h114l-90 -487h-141l-103 350zM350 539l-44 68c47 29 95 61 146 98l48 -74c-56 -37 -97 -63 -150 -92z" />
    <glyph glyph-name="Wdieresis" unicode="&#x1e84;" horiz-adv-x="944" 
d="M556 666l121 -516l127 516h125l-165 -666h-170l-122 536l-122 -536h-170l-165 666h125l127 -516l121 516h168zM325 726v97h102v-97h-102zM518 726v97h102v-97h-102z" />
    <glyph glyph-name="wdieresis" unicode="&#x1e85;" horiz-adv-x="704" 
d="M249 0h-141l-90 487h114l60 -326l97 326h127l96 -326l60 326h114l-90 -487h-141l-103 350zM206 554v105h101v-105h-101zM395 554v105h101v-105h-101z" />
    <glyph glyph-name="Ygrave" unicode="&#x1ef2;" horiz-adv-x="566" 
d="M283 330l144 336h134l-215 -473v-193h-126v193l-215 473h134zM338 777l-44 -68c-53 28 -91 50 -136 83l48 74c39 -31 85 -60 132 -89z" />
    <glyph glyph-name="ygrave" unicode="&#x1ef3;" horiz-adv-x="478" 
d="M478 487l-156 -487l-65 -197h-116l61 197h-43l-154 487h125l111 -370l112 370h125zM308 607l-45 -68c-52 29 -93 55 -149 92l48 74c50 -37 99 -69 146 -98z" />
    <glyph glyph-name="endash" unicode="&#x2013;" horiz-adv-x="500" 
d="M65 229v102h370v-102h-370z" />
    <glyph glyph-name="emdash" unicode="&#x2014;" horiz-adv-x="645" 
d="M65 229v102h515v-102h-515z" />
    <glyph glyph-name="quoteleft" unicode="&#x2018;" horiz-adv-x="274" 
d="M199 564v-140h-124v148l78 131l56 -31l-56 -108h46z" />
    <glyph glyph-name="quoteright" unicode="&#x2019;" horiz-adv-x="264" 
d="M75 546v140h124v-148l-78 -131l-56 31l56 108h-46z" />
    <glyph glyph-name="quotesinglbase" unicode="&#x201a;" horiz-adv-x="274" 
d="M75 0v140h124v-148l-78 -131l-56 31l56 108h-46z" />
    <glyph glyph-name="quotedblleft" unicode="&#x201c;" horiz-adv-x="474" 
d="M199 564v-140h-124v148l78 131l56 -31l-56 -108h46zM399 564v-140h-124v148l78 131l56 -31l-56 -108h46z" />
    <glyph glyph-name="quotedblright" unicode="&#x201d;" horiz-adv-x="474" 
d="M275 546v140h124v-148l-78 -131l-56 31l56 108h-46zM75 546v140h124v-148l-78 -131l-56 31l56 108h-46z" />
    <glyph glyph-name="quotedblbase" unicode="&#x201e;" horiz-adv-x="474" 
d="M275 0v140h124v-148l-78 -131l-56 31l56 108h-46zM75 0v140h124v-148l-78 -131l-56 31l56 108h-46z" />
    <glyph glyph-name="dagger" unicode="&#x2020;" horiz-adv-x="485" 
d="M50 412v85h146v169h93v-169h146v-85h-146v-482h-93v482h-146z" />
    <glyph glyph-name="daggerdbl" unicode="&#x2021;" horiz-adv-x="485" 
d="M50 99v85h146v228h-146v85h146v169h93v-169h146v-85h-146v-228h146v-85h-146v-169h-93v169h-146z" />
    <glyph glyph-name="bullet" unicode="&#x2022;" horiz-adv-x="369" 
d="M55 323c0 72 58 130 129 130c72 0 130 -58 130 -130c0 -71 -58 -129 -130 -129c-71 0 -129 58 -129 129z" />
    <glyph glyph-name="ellipsis" unicode="&#x2026;" horiz-adv-x="822" 
d="M75 0v140h124v-140h-124zM349 0v140h124v-140h-124zM623 0v140h124v-140h-124z" />
    <glyph glyph-name="perthousand" unicode="&#x2030;" horiz-adv-x="1258" 
d="M607 645l-269 -655l-77 31l269 655zM362 454c0 -83 -36 -142 -156 -142s-156 59 -156 142v80c0 83 36 142 156 142s156 -59 156 -142v-80zM266 541c0 36 -14 52 -60 52s-60 -16 -60 -52v-94c0 -36 14 -52 60 -52s60 16 60 52v94zM822 132c0 -83 -36 -142 -156 -142
s-156 59 -156 142v80c0 83 36 142 156 142s156 -59 156 -142v-80zM726 219c0 36 -14 52 -60 52s-60 -16 -60 -52v-94c0 -36 14 -52 60 -52s60 16 60 52v94zM1203 132c0 -83 -36 -142 -156 -142s-156 59 -156 142v80c0 83 36 142 156 142s156 -59 156 -142v-80zM1107 219
c0 36 -14 52 -60 52s-60 -16 -60 -52v-94c0 -36 14 -52 60 -52s60 16 60 52v94z" />
    <glyph glyph-name="guilsinglleft" unicode="&#x2039;" horiz-adv-x="298" 
d="M35 244l127 193l81 -51l-93 -142l93 -142l-81 -51z" />
    <glyph glyph-name="guilsinglright" unicode="&#x203a;" horiz-adv-x="298" 
d="M136 437l127 -193l-127 -193l-81 51l93 142l-93 142z" />
    <glyph glyph-name="fraction" unicode="&#x2044;" horiz-adv-x="368" 
d="M368 656l-298 -696l-70 30l299 696z" />
    <glyph glyph-name="Euro" unicode="&#x20ac;" horiz-adv-x="538" 
d="M103 178v39h-73v68h73v82h-73v68h73v33c0 122 71 188 237 188c51 0 98 -5 153 -19l-14 -104c-54 10 -97 14 -135 14c-93 0 -115 -30 -115 -101v-11h201v-68h-201v-82h201v-68h-201v-17c0 -71 22 -101 115 -101c38 0 81 4 135 14l14 -104c-55 -14 -102 -19 -153 -19
c-166 0 -237 66 -237 188z" />
    <glyph glyph-name="uni2113" unicode="&#x2113;" horiz-adv-x="516" 
d="M304 -10c-150 0 -188 77 -195 171c-22 -13 -42 -23 -62 -33l-47 82c37 21 67 39 107 63v242c0 121 52 191 183 191c110 0 171 -66 171 -155c0 -132 -77 -224 -233 -320v-62c0 -57 26 -78 83 -78c42 0 81 10 134 36l31 -89c-48 -26 -111 -48 -172 -48zM228 536v-187
c72 56 118 112 118 199c0 38 -22 59 -56 59c-41 0 -62 -23 -62 -71z" />
    <glyph glyph-name="uni2116" unicode="&#x2116;" horiz-adv-x="990" 
d="M403 0l-210 477v-477h-118v666h149l211 -493v493h117v-666h-149zM652 171v74h298v-74h-298zM960 439c0 -82 -43 -142 -159 -142s-158 60 -158 142v95c0 82 42 142 158 142s159 -60 159 -142v-95zM866 536c0 39 -17 61 -65 61s-65 -22 -65 -61v-99c0 -39 17 -61 65 -61
s65 22 65 61v99z" />
    <glyph glyph-name="trademark" unicode="&#x2122;" horiz-adv-x="501" 
d="M403 462l-2 118l-36 -93h-44l-35 92l-3 -117h-42l7 204h46l49 -131l50 131h45l8 -204h-43zM106 462v164h-56v40h156v-40h-56v-164h-44z" />
    <glyph glyph-name="estimated" unicode="&#x212e;" horiz-adv-x="794" 
d="M754 301h-572v-201c54 -47 127 -76 215 -76c120 0 203 42 291 130l24 -24c-78 -80 -170 -140 -315 -140c-202 0 -357 152 -357 333c0 183 163 333 357 333s357 -150 357 -333v-22zM397 622c-84 0 -159 -31 -215 -80v-209h430v209c-56 49 -131 80 -215 80z" />
    <glyph glyph-name="partialdiff" unicode="&#x2202;" horiz-adv-x="583" 
d="M396 404l5 29c3 21 5 39 5 55c0 70 -32 101 -122 101c-44 0 -88 -9 -134 -25l-26 94c56 26 121 38 179 38c161 0 225 -75 225 -201c0 -27 -2 -52 -8 -87l-42 -238c-20 -114 -62 -180 -242 -180c-135 0 -186 59 -186 140c0 13 2 27 4 40l14 77c20 107 49 180 214 180
c38 0 81 -6 114 -23zM286 323c-66 0 -85 -17 -95 -71l-15 -85c-2 -10 -3 -19 -3 -26c0 -35 21 -47 81 -47c68 0 90 16 100 73l23 133c-20 13 -57 23 -91 23z" />
    <glyph glyph-name="Delta" unicode="&#x2206;" horiz-adv-x="732" 
d="M428 666l249 -666h-622l249 666h124zM366 525l-151 -419h301z" />
    <glyph glyph-name="product" unicode="&#x220f;" horiz-adv-x="788" 
d="M748 553h-125v-653h-122v653h-214v-653h-122v653h-125v113h708v-113z" />
    <glyph glyph-name="summation" unicode="&#x2211;" horiz-adv-x="543" 
d="M65 -100v113l208 274l-208 266v113h413v-113h-259l204 -264l-204 -276h259v-113h-413z" />
    <glyph glyph-name="minus" unicode="&#x2212;" horiz-adv-x="402" 
d="M60 229v102h282v-102h-282z" />
    <glyph glyph-name="radical" unicode="&#x221a;" horiz-adv-x="680" 
d="M335 0h-136l-154 464l106 33l113 -357l164 590h242v-99h-152z" />
    <glyph glyph-name="infinity" unicode="&#x221e;" horiz-adv-x="889" 
d="M849 279c0 -118 -82 -179 -195 -179c-89 0 -149 54 -210 113c-60 -59 -121 -113 -210 -113c-112 0 -194 61 -194 179s79 181 194 181c89 0 150 -53 210 -113c61 60 121 113 210 113c116 0 195 -63 195 -181zM148 279c0 -53 35 -80 86 -80c53 0 94 36 138 81
c-43 44 -85 81 -138 81c-44 0 -86 -28 -86 -82zM741 279c0 54 -43 82 -87 82c-53 0 -95 -37 -138 -81c44 -45 85 -81 138 -81c51 0 87 27 87 80z" />
    <glyph glyph-name="integral" unicode="&#x222b;" horiz-adv-x="382" 
d="M236 -73c0 -91 -45 -134 -126 -134c-34 0 -66 8 -90 18l19 87c12 -4 27 -8 41 -8c29 0 34 12 34 35v618c0 91 44 133 125 133c38 0 74 -8 103 -20l-21 -94c-17 6 -36 10 -53 10c-23 0 -32 -12 -32 -35v-610z" />
    <glyph glyph-name="approxequal" unicode="&#x2248;" horiz-adv-x="551" 
d="M191 230c85 0 123 -58 178 -58c31 0 53 13 75 35l47 -71c-28 -30 -71 -60 -127 -60c-70 0 -101 57 -170 57c-35 0 -65 -18 -90 -38l-44 74c27 27 80 61 131 61zM191 412c85 0 123 -58 178 -58c31 0 53 13 75 35l47 -71c-28 -30 -71 -60 -127 -60c-70 0 -101 57 -170 57
c-35 0 -65 -18 -90 -38l-44 74c27 27 80 61 131 61z" />
    <glyph glyph-name="notequal" unicode="&#x2260;" horiz-adv-x="539" 
d="M70 302v84h225l69 133l71 -37l-50 -96h84v-84h-128l-54 -104h182v-84h-226l-66 -128l-71 37l47 91h-83v84h127l54 104h-181z" />
    <glyph glyph-name="lessequal" unicode="&#x2264;" horiz-adv-x="535" 
d="M60 0v85h410v-85h-410zM447 474l-262 -131l262 -135l-38 -73l-333 174v67l333 171z" />
    <glyph glyph-name="greaterequal" unicode="&#x2265;" horiz-adv-x="535" 
d="M475 85v-85h-410v85h410zM350 343l-262 131l38 73l333 -171v-67l-333 -174l-38 73z" />
    <glyph glyph-name="lozenge" unicode="&#x25ca;" horiz-adv-x="583" 
d="M35 334l219 332h75l219 -332l-219 -334h-75zM291 566l-155 -232l155 -234l156 234z" />
    <glyph glyph-name="apple" unicode="&#xf8ff;" horiz-adv-x="876" 
d="M786 333h-333v-333h-333v666h666v-333z" />
    <glyph glyph-name="Acute" horiz-adv-x="300" 
d="M104 709l-44 68c47 29 93 58 133 89l47 -74c-45 -33 -82 -55 -136 -83z" />
    <glyph glyph-name="Breve" horiz-adv-x="386" 
d="M273 846l58 -32c-14 -53 -60 -99 -138 -99s-124 46 -138 99l59 32c13 -38 39 -63 79 -63s66 25 80 63z" />
    <glyph glyph-name="Caron" horiz-adv-x="364" 
d="M55 800l35 56c37 -18 59 -30 92 -49c34 20 54 31 93 49l34 -56c-48 -32 -82 -57 -127 -91c-46 35 -81 60 -127 91z" />
    <glyph glyph-name="Cedilla" horiz-adv-x="300" 
d="M245 -119c0 -48 -33 -81 -107 -81c-23 0 -60 6 -83 15l10 47c17 -5 45 -9 65 -9c40 0 49 10 49 29c0 17 -10 24 -38 24c-7 0 -22 -1 -31 -2l-29 14l21 97h57l-13 -68c8 1 19 2 28 2c48 1 71 -28 71 -68z" />
    <glyph glyph-name="Circumflex" horiz-adv-x="364" 
d="M90 709l-35 56c46 31 81 56 127 91c45 -34 79 -59 127 -91l-34 -56c-39 18 -59 29 -93 49c-33 -19 -55 -31 -92 -49z" />
    <glyph glyph-name="commaaccent" horiz-adv-x="327" 
d="M110 -183v132h117v-140l-64 -104l-53 29l43 83h-43z" />
    <glyph glyph-name="Dieresis" horiz-adv-x="415" 
d="M60 726v97h102v-97h-102zM253 726v97h102v-97h-102z" />
    <glyph glyph-name="Dotaccent" horiz-adv-x="232" 
d="M177 720h-122v141h122v-141z" />
    <glyph glyph-name="Grave" horiz-adv-x="300" 
d="M240 777l-44 -68c-53 28 -91 50 -136 83l48 74c39 -31 85 -60 132 -89z" />
    <glyph glyph-name="Hungarumlaut" horiz-adv-x="448" 
d="M112 700l-57 57c35 31 72 68 105 103l61 -63c-33 -34 -70 -69 -109 -97zM284 700l-57 57c35 31 72 68 105 103l61 -63c-33 -34 -70 -69 -109 -97z" />
    <glyph glyph-name="Macron" horiz-adv-x="360" 
d="M55 732v81h250v-81h-250z" />
    <glyph glyph-name="Ogonek" horiz-adv-x="284" 
d="M209 -135l14 -58c-21 -9 -40 -14 -69 -14c-64 0 -99 30 -99 80c0 57 53 94 122 127h52c-64 -49 -88 -77 -88 -107c0 -19 9 -32 37 -32c12 0 21 1 31 4z" />
    <glyph glyph-name="Ring" horiz-adv-x="274" 
d="M219 782c0 -43 -31 -78 -82 -78s-82 32 -82 78c0 44 31 79 82 79s82 -35 82 -79zM170 782c0 22 -12 35 -33 35s-33 -13 -33 -35c0 -20 12 -34 33 -34s33 14 33 34z" />
    <glyph glyph-name="Tilde" horiz-adv-x="423" 
d="M205 739c-19 12 -31 21 -49 21c-23 0 -38 -23 -51 -41l-50 41c22 41 57 78 99 78c23 0 39 -6 63 -20s38 -22 52 -22c21 0 32 12 41 37l58 -30c-17 -52 -52 -84 -99 -84c-26 0 -43 6 -64 20z" />
    <glyph glyph-name="ampersand.salt" horiz-adv-x="677" 
d="M288 190v96h179c76 0 117 13 156 41l44 -79c-34 -31 -83 -50 -147 -55v-21c0 -111 -50 -182 -232 -182c-162 0 -228 57 -228 192v129c0 132 74 186 232 186c44 0 108 -4 153 -15l-9 -101c-49 7 -105 11 -144 11c-81 0 -110 -20 -110 -80v-139c0 -63 29 -83 106 -83
c102 0 123 22 123 78v22h-123z" />
    <glyph glyph-name="minus.onum" horiz-adv-x="402" 
d="M60 229v102h282v-102h-282z" />
    <glyph glyph-name="multiply.onum" horiz-adv-x="495" 
d="M364 427l71 -71l-117 -116l117 -117l-71 -71l-117 117l-116 -117l-71 71l117 117l-117 116l71 71l116 -117z" />
    <glyph glyph-name="numbersign.onum" horiz-adv-x="633" 
d="M568 115h-108l-7 -115h-83l8 115h-141l-7 -115h-83l8 115h-105l5 78h105l8 128h-104l5 79h104l8 110h82l-7 -110h140l8 110h82l-7 -110h109l-5 -79h-109l-9 -128h108zM251 321l-9 -128h141l8 128h-140z" />
    <glyph glyph-name="dollar.onum" horiz-adv-x="490" 
d="M196 -103v95c-49 4 -101 15 -141 33l19 91c44 -13 108 -25 161 -25c63 0 78 14 78 52c0 45 -1 47 -103 70c-139 31 -148 66 -148 163c0 88 41 132 143 142v95h101v-95c40 -3 83 -9 116 -18l-13 -97c-55 11 -108 16 -151 16c-61 0 -74 -10 -74 -50c0 -41 6 -44 96 -65
c137 -31 155 -57 155 -158c0 -87 -30 -140 -138 -152v-97h-101z" />
    <glyph glyph-name="percent.onum" horiz-adv-x="777" 
d="M233 25l226 495l76 -35l-226 -495zM319 400v-49c0 -68 -28 -120 -137 -120s-137 52 -137 120v49c0 68 28 120 137 120s137 -52 137 -120zM134 408v-65c0 -25 15 -37 48 -37s48 12 48 37v65c0 25 -15 37 -48 37s-48 -12 -48 -37zM727 159v-49c0 -68 -28 -120 -137 -120
s-137 52 -137 120v49c0 68 28 120 137 120s137 -52 137 -120zM542 167v-65c0 -25 15 -37 48 -37s48 12 48 37v65c0 25 -15 37 -48 37s-48 -12 -48 -37z" />
    <glyph glyph-name="plus.onum" horiz-adv-x="528" 
d="M60 195v96h154v155h100v-155h154v-96h-154v-155h-100v155h-154z" />
    <glyph glyph-name="zero.onum" horiz-adv-x="560" 
d="M495 165c0 -100 -52 -175 -215 -175s-215 75 -215 175v180c0 100 52 175 215 175s215 -75 215 -175v-180zM185 337v-164c0 -58 29 -79 95 -79s95 21 95 79v164c0 58 -29 79 -95 79s-95 -21 -95 -79z" />
    <glyph glyph-name="one.onum" horiz-adv-x="389" 
d="M187 373l-119 -66l-53 97l184 106h110v-510h-122v373z" />
    <glyph glyph-name="two.onum" horiz-adv-x="514" 
d="M63 0v87c75 63 98 84 154 131c95 81 97 91 97 136v4c0 45 -19 55 -84 55c-49 0 -110 -12 -151 -25l-24 100c45 17 120 32 182 32c156 0 197 -52 197 -147v-11c0 -64 -3 -102 -90 -181c-41 -37 -49 -44 -88 -78h198v-103h-391z" />
    <glyph glyph-name="three.onum" horiz-adv-x="482" 
d="M55 -128l10 97c48 -9 90 -12 129 -12c77 0 106 18 106 70v41c0 49 -32 66 -82 66h-131v106h112c67 0 89 23 89 74v41c0 48 -22 61 -92 61c-39 0 -86 -5 -127 -11l-13 100c41 9 100 15 151 15c157 0 203 -55 203 -147v-63c0 -57 -19 -93 -76 -119c57 -19 88 -55 88 -123
v-56c0 -100 -48 -158 -224 -158c-45 0 -92 5 -143 18z" />
    <glyph glyph-name="four.onum" horiz-adv-x="576" 
d="M551 25h-92v-161h-120v161h-299v112l259 373h160v-382h92v-103zM165 128h174v255z" />
    <glyph glyph-name="five.onum" horiz-adv-x="487" 
d="M70 143v367h356v-106h-234v-159c40 -2 62 -3 108 -7c94 -8 137 -65 137 -156v-55c0 -115 -55 -173 -217 -173c-51 0 -130 9 -165 20l10 100c52 -9 105 -13 153 -13c79 0 97 21 97 78v25c0 35 -2 67 -82 71c-76 4 -100 5 -163 8z" />
    <glyph glyph-name="six.onum" horiz-adv-x="531" 
d="M187 429v-62c35 12 76 18 119 18c121 0 170 -50 170 -165v-48c0 -104 -48 -182 -205 -182c-172 0 -206 76 -206 191v243c0 176 94 232 276 232c37 0 80 -4 115 -11l-8 -102c-30 5 -73 8 -94 8c-118 0 -167 -20 -167 -122zM287 280c-36 0 -72 -9 -100 -21v-91
c0 -55 21 -73 84 -73s83 22 83 73v49c0 48 -23 63 -67 63z" />
    <glyph glyph-name="seven.onum" horiz-adv-x="489" 
d="M45 402v108h404v-104l-264 -542l-101 50l238 488h-277z" />
    <glyph glyph-name="eight.onum" horiz-adv-x="556" 
d="M475 453c0 -49 -16 -88 -79 -124c75 -37 95 -76 95 -131v-42c0 -118 -57 -166 -213 -166s-213 48 -213 166v42c0 55 21 94 95 131c-62 36 -79 75 -79 124v45c0 97 53 158 197 158s197 -61 197 -158v-45zM373 185c0 42 -10 60 -95 93c-85 -33 -95 -51 -95 -93v-27
c0 -49 23 -67 95 -67s95 18 95 67v27zM199 453c0 -37 10 -51 79 -78c69 27 79 41 79 78v42c0 40 -16 61 -79 61s-79 -21 -79 -61v-42z" />
    <glyph glyph-name="nine.onum" horiz-adv-x="531" 
d="M344 81v62c-35 -12 -76 -18 -119 -18c-121 0 -170 50 -170 165v48c0 112 53 182 205 182c172 0 206 -76 206 -191v-243c0 -176 -94 -232 -276 -232c-37 0 -85 5 -115 12l11 102c29 -6 70 -9 91 -9c133 0 167 30 167 122zM244 230c36 0 72 9 100 21v91c0 55 -21 73 -84 73
s-83 -22 -83 -73v-49c0 -48 23 -63 67 -63z" />
    <glyph glyph-name="less.onum" horiz-adv-x="586" 
d="M50 211v66l432 220l38 -74l-355 -179l356 -179l-39 -75z" />
    <glyph glyph-name="equal.onum" horiz-adv-x="539" 
d="M70 302v84h399v-84h-399zM70 114v84h399v-84h-399z" />
    <glyph glyph-name="greater.onum" horiz-adv-x="586" 
d="M536 277v-66l-432 -221l-39 75l356 179l-355 179l38 74z" />
    <glyph glyph-name="cent.onum" horiz-adv-x="485" 
d="M215 -74v109c-107 14 -150 69 -150 161v128c0 92 43 147 150 161v109h101v-107c32 -2 66 -7 99 -15l-13 -100c-42 9 -89 12 -128 12c-62 0 -87 -19 -87 -70v-108c0 -51 25 -70 87 -70c39 0 91 4 128 13l13 -101c-30 -8 -64 -14 -99 -16v-106h-101z" />
    <glyph glyph-name="sterling.onum" horiz-adv-x="536" 
d="M65 212v84h75c-16 32 -26 60 -26 97c0 85 61 127 187 127c59 0 120 -11 165 -27l-14 -88c-56 11 -122 17 -160 17c-41 0 -55 -14 -55 -41c0 -32 12 -60 27 -85h173l-5 -84h-148c2 -45 -14 -83 -51 -115h248v-97h-400v92c51 28 80 70 80 120h-96z" />
    <glyph glyph-name="section.onum" horiz-adv-x="511" 
d="M269 34l-86 -44c-64 106 -123 251 -123 401c0 84 45 129 149 129c56 0 120 -13 167 -28l-17 -82c-43 11 -102 22 -142 22c-41 0 -52 -13 -52 -46c0 -129 48 -253 104 -352zM262 301l86 44c64 -106 123 -251 123 -401c0 -84 -45 -129 -149 -129c-56 0 -120 13 -167 28
l17 82c43 -11 102 -22 142 -22c41 0 52 13 52 46c0 129 -48 253 -104 352z" />
    <glyph glyph-name="yen.onum" horiz-adv-x="556" 
d="M63 225v72h79l-107 213h125l117 -245l118 245h126l-110 -213h81v-72h-116l-29 -56v-11h145v-71h-152v-87h-126v87h-151v71h143v11l-29 56h-114z" />
    <glyph glyph-name="florin.onum" horiz-adv-x="473" 
d="M145 169h-83l9 101h82l9 106c9 99 60 144 168 144c35 0 77 -6 108 -18l-19 -95c-23 7 -54 11 -76 11c-39 0 -55 -14 -58 -51l-9 -97h128l-13 -101h-124l-20 -233c-7 -80 -41 -133 -144 -133c-22 0 -70 5 -98 15l17 95c12 -3 38 -8 54 -8c38 0 47 13 50 48z" />
    <glyph glyph-name="endash.onum" horiz-adv-x="500" 
d="M65 229v102h370v-102h-370z" />
    <glyph glyph-name="divide.onum" horiz-adv-x="542" 
d="M477 285v-82h-412v82h412zM213 11v121h116v-121h-116zM213 355v121h116v-121h-116z" />
    <glyph glyph-name="Euro.onum" horiz-adv-x="497" 
d="M104 283h-64v55h64v17c0 106 58 165 210 165c44 0 91 -5 138 -17l-11 -100c-35 7 -75 12 -109 12c-86 0 -106 -11 -106 -70v-7h140v-55h-140v-56h140v-55h-140v-7c0 -59 20 -70 106 -70c34 0 74 5 109 12l11 -100c-47 -12 -94 -17 -138 -17c-152 0 -210 59 -210 165v17
h-64v55h64v56z" />
    <glyph glyph-name="perthousand.onum" horiz-adv-x="1102" 
d="M233 25l226 495l76 -35l-226 -495zM319 400v-49c0 -68 -28 -120 -137 -120s-137 52 -137 120v49c0 68 28 120 137 120s137 -52 137 -120zM134 408v-65c0 -25 15 -37 48 -37s48 12 48 37v65c0 25 -15 37 -48 37s-48 -12 -48 -37zM727 159v-49c0 -68 -28 -120 -137 -120
s-137 52 -137 120v49c0 68 28 120 137 120s137 -52 137 -120zM542 167v-65c0 -25 15 -37 48 -37s48 12 48 37v65c0 25 -15 37 -48 37s-48 -12 -48 -37zM1052 159v-49c0 -68 -28 -120 -137 -120s-137 52 -137 120v49c0 68 28 120 137 120s137 -52 137 -120zM867 167v-65
c0 -25 15 -37 48 -37s48 12 48 37v65c0 25 -15 37 -48 37s-48 -12 -48 -37z" />
    <glyph glyph-name="minus.tnum" 
d="M121 189v102h282v-102h-282z" />
    <glyph glyph-name="multiply.tnum" 
d="M379 427l70 -71l-116 -116l116 -117l-70 -71l-117 117l-117 -117l-70 71l116 117l-116 116l70 71l117 -117z" />
    <glyph glyph-name="numbersign.tnum" 
d="M464 164h-76l-11 -164h-79l11 164h-125l-11 -164h-79l11 164h-79l6 75h78l12 174h-79l5 75h79l11 158h79l-11 -158h125l10 158h79l-10 -158h76l-5 -75h-76l-12 -174h76zM201 413l-12 -174h125l12 174h-125z" />
    <glyph glyph-name="dollar.tnum" 
d="M312 -118h-100v110c-50 3 -98 11 -146 28l17 99c54 -16 113 -23 165 -23c82 0 90 20 90 83c0 67 -2 74 -101 98c-147 35 -164 72 -164 198c0 106 35 170 164 179v112h100v-112c40 -3 81 -8 118 -17l-12 -104c-46 9 -107 16 -164 16c-72 0 -83 -11 -83 -77
c0 -64 5 -68 93 -92c169 -48 172 -79 172 -200c0 -110 -26 -173 -149 -187v-111z" />
    <glyph glyph-name="percent.tnum" horiz-adv-x="877" 
d="M607 645l-269 -655l-77 31l269 655zM362 454c0 -83 -36 -142 -156 -142s-156 59 -156 142v80c0 83 36 142 156 142s156 -59 156 -142v-80zM266 541c0 36 -14 52 -60 52s-60 -16 -60 -52v-94c0 -36 14 -52 60 -52s60 16 60 52v94zM822 132c0 -83 -36 -142 -156 -142
s-156 59 -156 142v80c0 83 36 142 156 142s156 -59 156 -142v-80zM726 219c0 36 -14 52 -60 52s-60 -16 -60 -52v-94c0 -36 14 -52 60 -52s60 16 60 52v94z" />
    <glyph glyph-name="plus.tnum" 
d="M67 195v96h145v149h101v-149h145v-96h-145v-148h-101v148h-145z" />
    <glyph glyph-name="zero.tnum" 
d="M478 477v-308c0 -100 -53 -179 -216 -179s-216 79 -216 179v308c0 100 53 179 216 179s216 -79 216 -179zM168 465v-284c0 -58 17 -84 94 -84s94 26 94 84v284c0 58 -17 84 -94 84s-94 -26 -94 -84z" />
    <glyph glyph-name="one.tnum" 
d="M75 0v104h131v423l-124 -36l-26 104l162 51h110v-542h134v-104h-387z" />
    <glyph glyph-name="two.tnum" 
d="M64 0v105c76 83 86 93 155 173c94 109 109 125 109 190v17c0 49 -20 63 -93 63c-44 0 -107 -9 -157 -20l-17 102c45 13 109 26 181 26c154 0 208 -53 208 -157v-23c0 -92 -8 -113 -101 -227c-56 -69 -80 -97 -119 -142h222v-107h-388z" />
    <glyph glyph-name="three.tnum" 
d="M66 11l13 101c49 -10 96 -15 143 -15c88 0 104 18 104 70v39c0 49 -22 64 -72 64h-143v109h121c67 0 82 23 82 70v39c0 48 -22 61 -92 61c-49 0 -96 -6 -138 -14l-13 103c44 11 105 18 162 18c157 0 203 -52 203 -147v-62c0 -65 -20 -98 -72 -121c57 -19 84 -53 84 -121
v-57c0 -100 -49 -158 -222 -158c-45 0 -121 8 -160 21z" />
    <glyph glyph-name="four.tnum" 
d="M505 144h-80v-144h-120v144h-283v111l230 391h173v-400h80v-102zM145 246h160v284z" />
    <glyph glyph-name="five.tnum" 
d="M86 279v367h356v-106h-234v-161c36 -1 52 -2 90 -4c117 -6 155 -65 155 -153v-61c0 -105 -38 -171 -217 -171c-61 0 -123 10 -170 24l15 100c49 -11 105 -17 153 -17c91 0 97 22 97 75v32c0 47 -15 67 -86 70c-72 3 -106 4 -159 5z" />
    <glyph glyph-name="six.tnum" 
d="M182 429v-62c35 12 76 18 119 18c121 0 170 -50 170 -165v-48c0 -104 -48 -182 -205 -182c-172 0 -206 76 -206 191v243c0 176 94 232 276 232c37 0 85 -5 115 -12l-8 -102c-29 6 -73 9 -94 9c-118 0 -167 -20 -167 -122zM282 280c-36 0 -72 -9 -100 -21v-91
c0 -55 21 -73 84 -73s83 22 83 73v49c0 48 -23 63 -67 63z" />
    <glyph glyph-name="seven.tnum" 
d="M56 538v108h421v-104l-264 -542h-126l262 538h-293z" />
    <glyph glyph-name="eight.tnum" 
d="M460 453c0 -49 -16 -88 -79 -124c75 -37 95 -76 95 -131v-42c0 -118 -57 -166 -213 -166s-213 48 -213 166v42c0 55 21 94 95 131c-62 36 -79 75 -79 124v45c0 97 53 158 197 158s197 -61 197 -158v-45zM358 185c0 42 -10 60 -95 93c-85 -33 -95 -51 -95 -93v-27
c0 -49 23 -67 95 -67s95 18 95 67v27zM184 453c0 -37 10 -51 79 -78c69 27 79 41 79 78v42c0 40 -16 61 -79 61s-79 -21 -79 -61v-42z" />
    <glyph glyph-name="nine.tnum" 
d="M343 217v62c-35 -12 -76 -18 -119 -18c-121 0 -170 50 -170 165v48c0 112 53 182 205 182c172 0 206 -76 206 -191v-243c0 -176 -94 -232 -276 -232c-37 0 -85 5 -115 12l11 102c29 -6 70 -9 91 -9c129 0 167 30 167 122zM243 366c36 0 72 9 100 21v91
c0 55 -21 73 -84 73s-83 -22 -83 -73v-49c0 -48 23 -63 67 -63z" />
    <glyph glyph-name="less.tnum" 
d="M48 211v66l370 220l40 -74l-307 -179l308 -179l-41 -75z" />
    <glyph glyph-name="equal.tnum" 
d="M81 302v84h363v-84h-363zM81 114v84h363v-84h-363z" />
    <glyph glyph-name="greater.tnum" 
d="M477 277v-66l-370 -221l-41 75l308 179l-307 179l40 74z" />
    <glyph glyph-name="cent.tnum" 
d="M239 -10v93c-107 15 -148 72 -148 184v133c0 111 41 169 148 183v93h84v-90c35 0 88 -8 117 -17l-12 -100c-39 9 -100 13 -124 13c-70 0 -91 -21 -91 -81v-135c0 -60 21 -81 91 -81c31 0 83 4 124 13l12 -100c-27 -9 -80 -16 -117 -18v-90h-84z" />
    <glyph glyph-name="sterling.tnum" 
d="M49 277v97h81c-13 34 -28 75 -28 120c0 122 85 162 208 162c58 0 109 -7 166 -23l-15 -101c-43 10 -110 17 -155 17c-54 0 -82 -13 -82 -63c0 -38 15 -75 30 -112h188l-7 -97h-164c1 -8 1 -14 1 -19c0 -55 -18 -101 -62 -151h256v-107h-407v107c53 35 91 93 91 152v18
h-101z" />
    <glyph glyph-name="section.tnum" 
d="M266 29l-95 -29c-58 176 -114 378 -114 552c0 77 41 124 145 124c57 0 119 -12 171 -28l-16 -82c-43 10 -103 22 -143 22c-37 0 -52 -11 -52 -46c0 -132 48 -330 104 -513zM281 460l95 29c58 -176 114 -378 114 -552c0 -77 -41 -124 -145 -124c-57 0 -119 12 -171 28
l16 82c43 -10 103 -22 143 -22c37 0 52 11 52 46c0 132 -48 330 -104 513z" />
    <glyph glyph-name="yen.tnum" 
d="M55 297v79h77l-100 270h124l106 -320l107 320h125l-102 -270h79v-79h-108l-32 -92h140v-77h-145v-128h-127v128h-144v77h138l-33 92h-105z" />
    <glyph glyph-name="florin.tnum" 
d="M181 326h-82l8 101h82l11 130c10 105 61 145 169 145c37 0 69 -5 105 -14l-13 -96c-23 4 -58 8 -80 8c-48 0 -56 -20 -59 -58l-10 -115h126l-13 -101h-122l-33 -381c-8 -95 -52 -142 -162 -142c-22 0 -56 4 -81 11l16 97c16 -4 35 -6 51 -6c40 0 51 14 54 48z" />
    <glyph glyph-name="endash.tnum" 
d="M77 229v102h370v-102h-370z" />
    <glyph glyph-name="divide.tnum" 
d="M457 285v-82h-390v82h390zM204 11v121h116v-121h-116zM204 355v121h116v-121h-116z" />
    <glyph glyph-name="Euro.tnum" 
d="M233 281h192v-68h-192v-17c0 -71 10 -101 103 -101c38 0 90 4 128 14l14 -100c-34 -11 -89 -19 -140 -19c-173 0 -231 62 -231 184v39h-67v68h67v84h-67v68h67v39c0 122 58 184 231 184c51 0 106 -8 140 -19l-14 -100c-36 9 -90 14 -128 14c-93 0 -103 -30 -103 -101v-17
h192v-68h-192v-84z" />
    <glyph glyph-name="perthousand.tnum" horiz-adv-x="1258" 
d="M607 645l-269 -655l-77 31l269 655zM362 454c0 -83 -36 -142 -156 -142s-156 59 -156 142v80c0 83 36 142 156 142s156 -59 156 -142v-80zM266 541c0 36 -14 52 -60 52s-60 -16 -60 -52v-94c0 -36 14 -52 60 -52s60 16 60 52v94zM822 132c0 -83 -36 -142 -156 -142
s-156 59 -156 142v80c0 83 36 142 156 142s156 -59 156 -142v-80zM726 219c0 36 -14 52 -60 52s-60 -16 -60 -52v-94c0 -36 14 -52 60 -52s60 16 60 52v94zM1203 132c0 -83 -36 -142 -156 -142s-156 59 -156 142v80c0 83 36 142 156 142s156 -59 156 -142v-80zM1107 219
c0 36 -14 52 -60 52s-60 -16 -60 -52v-94c0 -36 14 -52 60 -52s60 16 60 52v94z" />
    <glyph glyph-name="minusonum.tnum" 
d="M121 189v102h282v-102h-282z" />
    <glyph glyph-name="multiplyonum.tnum" 
d="M379 427l70 -71l-116 -116l116 -117l-70 -71l-117 117l-117 -117l-70 71l116 117l-116 116l70 71l117 -117z" />
    <glyph glyph-name="numbersignonum.tnum" 
d="M470 118h-74l-8 -118h-79l8 118h-121l-8 -118h-79l8 118h-77l5 75h77l8 129h-77l6 75h76l8 113h79l-8 -113h121l8 113h79l-8 -113h76l-6 -75h-75l-8 -129h74zM209 322l-8 -129h121l8 129h-121z" />
    <glyph glyph-name="dollaronum.tnum" 
d="M216 -103v95c-49 4 -101 15 -141 33l19 91c44 -13 108 -25 161 -25c63 0 78 14 78 52c0 45 -1 47 -103 70c-139 31 -148 66 -148 163c0 88 41 132 143 142v95h101v-95c40 -3 83 -9 116 -18l-13 -97c-55 11 -108 16 -151 16c-61 0 -74 -10 -74 -50c0 -41 6 -44 96 -65
c137 -31 155 -57 155 -158c0 -87 -30 -140 -138 -152v-97h-101z" />
    <glyph glyph-name="percentonum.tnum" horiz-adv-x="777" 
d="M233 25l226 495l76 -35l-226 -495zM319 400v-49c0 -68 -28 -120 -137 -120s-137 52 -137 120v49c0 68 28 120 137 120s137 -52 137 -120zM134 408v-65c0 -25 15 -37 48 -37s48 12 48 37v65c0 25 -15 37 -48 37s-48 -12 -48 -37zM727 159v-49c0 -68 -28 -120 -137 -120
s-137 52 -137 120v49c0 68 28 120 137 120s137 -52 137 -120zM542 167v-65c0 -25 15 -37 48 -37s48 12 48 37v65c0 25 -15 37 -48 37s-48 -12 -48 -37z" />
    <glyph glyph-name="plusonum.tnum" 
d="M67 195v96h145v149h101v-149h145v-96h-145v-148h-101v148h-145z" />
    <glyph glyph-name="zeroonum.tnum" 
d="M477 165c0 -100 -52 -175 -215 -175s-215 75 -215 175v180c0 100 52 175 215 175s215 -75 215 -175v-180zM167 337v-164c0 -58 29 -79 95 -79s95 21 95 79v164c0 58 -29 79 -95 79s-95 -21 -95 -79z" />
    <glyph glyph-name="oneonum.tnum" 
d="M85 0v104h134v287l-121 -37l-28 104l161 52h110v-406h130v-104h-386z" />
    <glyph glyph-name="twoonum.tnum" 
d="M67 0v87c75 63 98 84 154 131c95 81 97 91 97 136v4c0 45 -19 55 -84 55c-49 0 -110 -12 -151 -25l-24 100c45 17 120 32 182 32c156 0 197 -52 197 -147v-11c0 -64 -3 -102 -90 -181c-41 -37 -49 -44 -88 -78h198v-103h-391z" />
    <glyph glyph-name="threeonum.tnum" 
d="M70 -126l10 95c48 -9 102 -12 141 -12c77 0 106 18 106 70v41c0 49 -32 66 -82 66h-143v106h124c67 0 89 23 89 74v41c0 48 -22 61 -92 61c-39 0 -98 -5 -139 -11l-12 97c46 10 111 18 162 18c157 0 203 -55 203 -147v-63c0 -57 -19 -93 -76 -119c57 -19 88 -55 88 -123
v-56c0 -100 -48 -158 -224 -158c-45 0 -112 7 -155 20z" />
    <glyph glyph-name="fouronum.tnum" 
d="M505 29h-88v-165h-120v165h-279v108l239 373h160v-382h88v-99zM135 128h162v259z" />
    <glyph glyph-name="fiveonum.tnum" 
d="M88 143v367h356v-106h-234v-159c40 -2 62 -3 108 -7c94 -8 137 -65 137 -156v-55c0 -115 -55 -173 -217 -173c-51 0 -130 9 -165 20l10 100c52 -9 105 -13 153 -13c79 0 97 21 97 78v25c0 35 -2 67 -82 71c-76 4 -100 5 -163 8z" />
    <glyph glyph-name="sixonum.tnum" 
d="M180 429v-62c35 12 76 18 119 18c121 0 170 -50 170 -165v-48c0 -104 -48 -182 -205 -182c-172 0 -206 76 -206 191v243c0 176 94 232 276 232c37 0 80 -4 115 -11l-8 -102c-30 5 -73 8 -94 8c-118 0 -167 -20 -167 -122zM280 280c-36 0 -72 -9 -100 -21v-91
c0 -55 21 -73 84 -73s83 22 83 73v49c0 48 -23 63 -67 63z" />
    <glyph glyph-name="sevenonum.tnum" 
d="M61 402v108h422v-104l-277 -542l-99 53l249 485h-295z" />
    <glyph glyph-name="eightonum.tnum" 
d="M459 453c0 -49 -16 -88 -79 -124c75 -37 95 -76 95 -131v-42c0 -118 -57 -166 -213 -166s-213 48 -213 166v42c0 55 21 94 95 131c-62 36 -79 75 -79 124v45c0 97 53 158 197 158s197 -61 197 -158v-45zM357 185c0 42 -10 60 -95 93c-85 -33 -95 -51 -95 -93v-27
c0 -49 23 -67 95 -67s95 18 95 67v27zM183 453c0 -37 10 -51 79 -78c69 27 79 41 79 78v42c0 40 -16 61 -79 61s-79 -21 -79 -61v-42z" />
    <glyph glyph-name="nineonum.tnum" 
d="M345 81v62c-35 -12 -76 -18 -119 -18c-121 0 -170 50 -170 165v48c0 112 53 182 205 182c172 0 206 -76 206 -191v-243c0 -176 -94 -232 -276 -232c-37 0 -85 5 -115 12l11 102c29 -6 70 -9 91 -9c133 0 167 30 167 122zM245 230c36 0 72 9 100 21v91c0 55 -21 73 -84 73
s-83 -22 -83 -73v-49c0 -48 23 -63 67 -63z" />
    <glyph glyph-name="lessonum.tnum" 
d="M48 211v66l370 220l40 -74l-307 -179l308 -179l-41 -75z" />
    <glyph glyph-name="equalonum.tnum" 
d="M81 302v84h363v-84h-363zM81 114v84h363v-84h-363z" />
    <glyph glyph-name="greateronum.tnum" 
d="M477 277v-66l-370 -221l-41 75l308 179l-307 179l40 74z" />
    <glyph glyph-name="centonum.tnum" 
d="M232 -74v109c-107 14 -150 69 -150 161v128c0 92 43 147 150 161v109h101v-107c32 -2 74 -7 107 -15l-13 -100c-42 9 -97 12 -136 12c-62 0 -87 -19 -87 -70v-108c0 -51 25 -70 87 -70c39 0 99 4 136 13l13 -101c-30 -8 -72 -14 -107 -16v-106h-101z" />
    <glyph glyph-name="sterlingonum.tnum" 
d="M56 212v84h75c-16 32 -26 60 -26 97c0 85 61 127 187 127c59 0 120 -11 165 -27l-14 -88c-56 11 -122 17 -160 17c-41 0 -55 -14 -55 -41c0 -32 12 -60 27 -85h173l-5 -84h-148c2 -45 -14 -83 -51 -115h248v-97h-400v92c51 28 80 70 80 120h-96z" />
    <glyph glyph-name="sectiononum.tnum" 
d="M276 34l-86 -44c-64 106 -123 251 -123 401c0 84 45 129 149 129c56 0 120 -13 167 -28l-17 -82c-43 11 -102 22 -142 22c-41 0 -52 -13 -52 -46c0 -129 48 -253 104 -352zM269 301l86 44c64 -106 123 -251 123 -401c0 -84 -45 -129 -149 -129c-56 0 -120 13 -167 28
l17 82c43 -11 102 -22 142 -22c41 0 52 13 52 46c0 129 -48 253 -104 352z" />
    <glyph glyph-name="yenonum.tnum" 
d="M48 225v72h79l-107 213h125l117 -245l118 245h126l-110 -213h81v-72h-116l-29 -56v-11h145v-71h-152v-87h-126v87h-151v71h143v11l-29 56h-114z" />
    <glyph glyph-name="florinonum.tnum" 
d="M168 169h-83l9 101h82l9 106c9 99 60 144 168 144c35 0 77 -6 108 -18l-19 -95c-23 7 -54 11 -76 11c-39 0 -55 -14 -58 -51l-9 -97h128l-13 -101h-124l-20 -233c-7 -80 -41 -133 -144 -133c-22 0 -70 5 -98 15l17 95c12 -3 38 -8 54 -8c38 0 47 13 50 48z" />
    <glyph glyph-name="endashonum.tnum" 
d="M77 225v101h370v-101h-370z" />
    <glyph glyph-name="divideonum.tnum" 
d="M454 285v-82h-384v82h384zM204 11v121h116v-121h-116zM204 355v121h116v-121h-116z" />
    <glyph glyph-name="Euroonum.tnum" 
d="M111 283h-64v55h64v17c0 106 58 165 210 165c44 0 91 -5 138 -17l-11 -100c-35 7 -75 12 -109 12c-86 0 -106 -11 -106 -70v-7h140v-55h-140v-56h140v-55h-140v-7c0 -59 20 -70 106 -70c34 0 74 5 109 12l11 -100c-47 -12 -94 -17 -138 -17c-152 0 -210 59 -210 165v17
h-64v55h64v56z" />
    <glyph glyph-name="perthousandonum.tnum" horiz-adv-x="1102" 
d="M233 25l226 495l76 -35l-226 -495zM319 400v-49c0 -68 -28 -120 -137 -120s-137 52 -137 120v49c0 68 28 120 137 120s137 -52 137 -120zM134 408v-65c0 -25 15 -37 48 -37s48 12 48 37v65c0 25 -15 37 -48 37s-48 -12 -48 -37zM727 159v-49c0 -68 -28 -120 -137 -120
s-137 52 -137 120v49c0 68 28 120 137 120s137 -52 137 -120zM542 167v-65c0 -25 15 -37 48 -37s48 12 48 37v65c0 25 -15 37 -48 37s-48 -12 -48 -37zM1052 159v-49c0 -68 -28 -120 -137 -120s-137 52 -137 120v49c0 68 28 120 137 120s137 -52 137 -120zM867 167v-65
c0 -25 15 -37 48 -37s48 12 48 37v65c0 25 -15 37 -48 37s-48 -12 -48 -37z" />
    <glyph glyph-name="minussmcp.tnum" 
d="M121 229v102h282v-102h-282z" />
    <glyph glyph-name="multiplysmcp.tnum" 
d="M379 427l71 -71l-117 -116l117 -117l-71 -71l-117 117l-116 -117l-71 71l117 117l-117 116l71 71l116 -117z" />
    <glyph glyph-name="numbersignsmcp.tnum" 
d="M471 123h-74l-8 -123h-79l9 123h-123l-8 -123h-78l8 123h-77l5 74h77l9 130h-77l5 75h77l7 118h79l-8 -118h122l8 118h78l-8 -118h76l-6 -75h-75l-8 -130h74zM210 327l-8 -130h122l8 130h-122z" />
    <glyph glyph-name="dollarsmcp.tnum" 
d="M216 -103v95c-48 4 -98 15 -137 32l18 91c46 -14 106 -26 162 -26c66 0 78 16 78 56c0 49 -1 51 -103 71c-140 27 -149 77 -149 169c0 93 39 133 144 143v95h98v-95c37 -2 78 -8 119 -19l-13 -96c-48 11 -108 18 -152 18c-66 0 -75 -7 -75 -53c0 -45 3 -50 96 -69
c150 -32 156 -68 156 -159c0 -89 -22 -145 -145 -157v-96h-97z" />
    <glyph glyph-name="percentsmcp.tnum" horiz-adv-x="780" 
d="M237 25l232 505l75 -35l-232 -505zM323 411v-56c0 -67 -28 -119 -136 -119s-137 52 -137 119v56c0 67 29 119 137 119s136 -52 136 -119zM236 420c0 25 -16 36 -49 36s-50 -11 -50 -36v-74c0 -25 17 -36 50 -36s49 11 49 36v74zM730 165v-56c0 -67 -28 -119 -136 -119
s-137 52 -137 119v56c0 67 29 119 137 119s136 -52 136 -119zM643 174c0 25 -16 36 -49 36s-50 -11 -50 -36v-74c0 -25 17 -36 50 -36s49 11 49 36v74z" />
    <glyph glyph-name="plussmcp.tnum" 
d="M58 195v96h154v155h100v-155h154v-96h-154v-155h-100v155h-154z" />
    <glyph glyph-name="zerosmcp.tnum" 
d="M475 155c0 -92 -53 -165 -213 -165s-213 76 -213 168v207c0 92 53 165 213 165s213 -73 213 -165v-210zM353 349c0 53 -25 74 -91 74s-91 -21 -91 -74v-178c0 -53 25 -74 91 -74s91 21 91 74v178z" />
    <glyph glyph-name="onesmcp.tnum" 
d="M72 0v103h148v299l-132 -34l-27 101l171 51h110v-417h133v-103h-403z" />
    <glyph glyph-name="twosmcp.tnum" 
d="M65 0v99c52 44 64 54 125 105c113 94 124 103 124 142v23c0 44 -18 52 -95 52c-39 0 -102 -11 -138 -19l-18 102c45 15 112 26 168 26c155 0 205 -43 205 -149v-22c0 -79 -13 -106 -84 -169c-60 -53 -65 -58 -100 -87h197v-103h-384z" />
    <glyph glyph-name="threesmcp.tnum" 
d="M75 13l12 92c43 -10 94 -15 140 -15c70 0 97 11 97 49v21c0 35 -21 50 -74 50h-132v102h116c59 0 74 13 74 47v24c0 36 -16 47 -86 47c-38 0 -89 -5 -130 -13l-10 95c38 10 104 18 149 18c147 0 199 -35 199 -129v-32c0 -49 -13 -80 -58 -104c49 -14 74 -43 74 -99v-31
c0 -94 -45 -145 -216 -145c-47 0 -109 8 -155 23z" />
    <glyph glyph-name="foursmcp.tnum" 
d="M494 118h-73v-118h-115v118h-271v97l235 305h151v-313h73v-89zM156 207h150v203z" />
    <glyph glyph-name="fivesmcp.tnum" 
d="M96 218v302h344v-102h-222v-102c37 0 57 -1 95 -3c113 -6 142 -54 142 -138v-35c-1 -106 -48 -150 -214 -150c-45 0 -114 8 -165 25l16 95c50 -12 103 -18 149 -18c70 0 92 11 92 52v20c0 36 -15 48 -72 50c-83 3 -108 3 -165 4z" />
    <glyph glyph-name="sixsmcp.tnum" 
d="M190 344v-42c29 10 72 15 105 15c112 0 165 -40 165 -134v-43c0 -80 -39 -150 -196 -150c-154 0 -196 61 -196 149v209c0 140 83 182 241 182c43 0 90 -5 133 -15l-12 -98c-31 6 -81 11 -112 11c-98 0 -128 -17 -128 -84zM281 217c-26 0 -61 -5 -91 -16v-61
c0 -37 24 -50 74 -50c54 0 74 16 74 50v37c0 30 -17 40 -57 40z" />
    <glyph glyph-name="sevensmcp.tnum" 
d="M76 417v103h402v-97l-260 -423h-130l262 417h-274z" />
    <glyph glyph-name="eightsmcp.tnum" 
d="M454 368c0 -38 -13 -73 -71 -102c54 -25 86 -54 86 -105v-37c0 -94 -66 -134 -207 -134c-145 0 -205 40 -205 134v37c0 51 31 80 86 105c-56 29 -71 64 -71 102v34c0 79 59 128 190 128c133 0 192 -49 192 -128v-34zM350 155c0 34 -26 45 -88 66c-59 -20 -86 -32 -86 -66
v-19c0 -36 23 -51 86 -51s88 15 88 51v19zM190 366c0 -31 23 -42 72 -61c49 18 74 30 74 61v25c0 31 -22 46 -74 46s-72 -15 -72 -46v-25z" />
    <glyph glyph-name="ninesmcp.tnum" 
d="M335 176v42c-29 -10 -72 -15 -105 -15c-112 0 -165 40 -165 134v43c0 80 39 150 196 150c154 0 196 -61 196 -149v-209c0 -140 -76 -182 -241 -182c-43 0 -93 6 -133 18l12 97c31 -8 72 -13 112 -13c98 0 128 17 128 84zM244 303c30 0 61 5 91 16v61c0 37 -22 50 -74 50
c-54 0 -74 -13 -74 -50v-37c0 -30 17 -40 57 -40z" />
    <glyph glyph-name="lesssmcp.tnum" 
d="M54 211v66l375 220l39 -72l-315 -181l318 -182l-42 -72z" />
    <glyph glyph-name="equalsmcp.tnum" 
d="M86 302v83h353v-83h-353zM86 114v83h353v-83h-353z" />
    <glyph glyph-name="greatersmcp.tnum" 
d="M471 277v-66l-375 -221l-42 72l318 182l-315 181l39 72z" />
    <glyph glyph-name="centsmcp.tnum" 
d="M233 21c-104 15 -146 62 -146 160v158c0 98 42 145 146 160v117h102v-113c33 -3 72 -7 107 -16l-12 -100c-41 9 -95 13 -135 13c-66 0 -88 -19 -88 -71v-138c0 -52 22 -71 88 -71c40 0 94 4 135 13l12 -100c-35 -9 -74 -13 -107 -16v-113h-102v117z" />
    <glyph glyph-name="sterlingsmcp.tnum" 
d="M63 212v84h75c-19 33 -26 71 -26 101c0 87 54 133 194 133c43 0 109 -9 158 -26l-15 -89c-41 11 -90 18 -147 18c-50 0 -69 -13 -69 -51c0 -33 14 -66 27 -86h174l-5 -84h-148c1 -45 -13 -84 -51 -116h238v-96h-389v91c56 33 83 72 83 121h-99z" />
    <glyph glyph-name="sectionsmcp.tnum" 
d="M256 33l-87 -43c-74 134 -113 285 -113 417c0 81 45 123 148 123c56 0 120 -12 167 -28l-15 -81c-46 11 -106 22 -146 22c-39 0 -51 -13 -51 -47c0 -132 39 -244 97 -363zM279 311l87 43c74 -134 113 -285 113 -417c0 -81 -45 -123 -148 -123c-56 0 -120 12 -167 28
l15 81c46 -11 106 -22 146 -22c39 0 51 13 51 47c0 132 -39 244 -97 363z" />
    <glyph glyph-name="yensmcp.tnum" 
d="M49 225v71h77l-111 224h126l121 -254l121 254h126l-112 -224h78v-71h-113l-34 -68h147v-69h-151v-88h-124v88h-151v69h147l-34 68h-113z" />
    <glyph glyph-name="florinsmcp.tnum" 
d="M171 173h-82l9 100h82l10 114c9 98 60 143 167 143c39 0 78 -7 109 -18l-18 -94c-26 7 -56 11 -78 11c-41 0 -56 -17 -59 -52l-9 -104h125l-10 -100h-124l-21 -241c-7 -81 -38 -129 -143 -129c-24 0 -73 6 -101 16l16 93c13 -3 40 -8 58 -8c38 0 47 12 50 50z" />
    <glyph glyph-name="endashsmcp.tnum" 
d="M77 229v102h370v-102h-370z" />
    <glyph glyph-name="dividesmcp.tnum" 
d="M468 285v-82h-412v82h412zM204 11v121h116v-121h-116zM204 355v121h116v-121h-116z" />
    <glyph glyph-name="Eurosmcp.tnum" 
d="M125 291h-64v56h64v21c0 108 44 162 202 162c44 0 96 -5 148 -18l-12 -95c-44 9 -92 14 -131 14c-75 0 -86 -18 -86 -70v-14h146v-56h-146v-62h146v-56h-146v-14c0 -52 11 -70 86 -70c39 0 89 5 131 14l12 -95c-46 -13 -104 -18 -148 -18c-158 0 -202 54 -202 162v21h-64
v56h64v62z" />
    <glyph glyph-name="perthousandsmcp.tnum" horiz-adv-x="1101" 
d="M237 25l232 505l75 -35l-232 -505zM323 411v-56c0 -67 -28 -119 -136 -119s-137 52 -137 119v56c0 67 29 119 137 119s136 -52 136 -119zM236 420c0 25 -16 36 -49 36s-50 -11 -50 -36v-74c0 -25 17 -36 50 -36s49 11 49 36v74zM730 165v-56c0 -67 -28 -119 -136 -119
s-137 52 -137 119v56c0 67 29 119 137 119s136 -52 136 -119zM643 174c0 25 -16 36 -49 36s-50 -11 -50 -36v-74c0 -25 17 -36 50 -36s49 11 49 36v74zM1051 165v-56c0 -67 -28 -119 -136 -119s-137 52 -137 119v56c0 67 29 119 137 119s136 -52 136 -119zM964 174
c0 25 -16 36 -49 36s-50 -11 -50 -36v-74c0 -25 17 -36 50 -36s49 11 49 36v74z" />
    <glyph glyph-name="minus.smcp" horiz-adv-x="402" 
d="M60 229v102h282v-102h-282z" />
    <glyph glyph-name="multiply.smcp" horiz-adv-x="495" 
d="M364 427l71 -71l-117 -116l117 -117l-71 -71l-117 117l-116 -117l-71 71l117 117l-117 116l71 71l116 -117z" />
    <glyph glyph-name="exclam.smcp" horiz-adv-x="294" 
d="M181 179h-68l-29 122v219h126v-219zM83 0v123h128v-123h-128z" />
    <glyph glyph-name="numbersign.smcp" horiz-adv-x="629" 
d="M565 120h-101l-7 -120h-82l7 120h-141l-8 -120h-81l7 120h-106l6 78h105l8 129h-105l5 77h105l7 116h82l-8 -116h142l8 116h81l-7 -116h102l-6 -77h-101l-8 -129h102zM253 327l-7 -129h142l7 129h-142z" />
    <glyph glyph-name="dollar.smcp" horiz-adv-x="484" 
d="M192 -103v95c-48 4 -98 15 -137 32l18 91c46 -14 106 -26 162 -26c66 0 78 16 78 56c0 49 -1 51 -103 71c-140 27 -149 77 -149 169c0 93 39 133 144 143v95h98v-95c37 -2 78 -8 119 -19l-13 -96c-48 11 -108 18 -152 18c-66 0 -75 -7 -75 -53c0 -45 3 -50 96 -69
c150 -32 156 -68 156 -159c0 -89 -22 -145 -145 -157v-96h-97z" />
    <glyph glyph-name="percent.smcp" horiz-adv-x="780" 
d="M237 25l232 505l75 -35l-232 -505zM323 411v-56c0 -67 -28 -119 -136 -119s-137 52 -137 119v56c0 67 29 119 137 119s136 -52 136 -119zM236 420c0 25 -16 36 -49 36s-50 -11 -50 -36v-74c0 -25 17 -36 50 -36s49 11 49 36v74zM730 165v-56c0 -67 -28 -119 -136 -119
s-137 52 -137 119v56c0 67 29 119 137 119s136 -52 136 -119zM643 174c0 25 -16 36 -49 36s-50 -11 -50 -36v-74c0 -25 17 -36 50 -36s49 11 49 36v74z" />
    <glyph glyph-name="ampersand.smcp" horiz-adv-x="591" 
d="M561 214h-84v-193c-62 -20 -139 -31 -207 -31c-158 0 -200 48 -200 132v45c0 51 22 84 66 101c-43 23 -55 54 -55 91v43c0 89 54 128 189 128c60 0 125 -5 186 -20l-11 -95c-60 10 -127 15 -175 15c-50 0 -67 -10 -67 -41v-39c0 -28 13 -43 52 -43h306v-93zM270 86
c34 0 67 4 97 11v117h-115c-42 0 -60 -15 -60 -50v-28c0 -35 20 -50 78 -50z" />
    <glyph glyph-name="plus.smcp" horiz-adv-x="528" 
d="M60 195v96h154v155h100v-155h154v-96h-154v-155h-100v155h-154z" />
    <glyph glyph-name="zero.smcp" horiz-adv-x="556" 
d="M491 155c0 -92 -53 -165 -213 -165s-213 76 -213 168v207c0 92 53 165 213 165s213 -73 213 -165v-210zM369 349c0 53 -25 74 -91 74s-91 -21 -91 -74v-178c0 -53 25 -74 91 -74s91 21 91 74v178z" />
    <glyph glyph-name="one.smcp" horiz-adv-x="385" 
d="M68 317l-53 97l177 106h113v-520h-122v383z" />
    <glyph glyph-name="two.smcp" horiz-adv-x="498" 
d="M54 0v99c52 44 64 54 125 105c113 94 124 103 124 142v23c0 44 -18 52 -95 52c-39 0 -102 -11 -138 -19l-18 102c45 15 112 26 168 26c155 0 205 -43 205 -149v-22c0 -79 -13 -106 -84 -169c-60 -53 -65 -58 -100 -87h197v-103h-384z" />
    <glyph glyph-name="three.smcp" horiz-adv-x="488" 
d="M55 13l12 92c43 -10 94 -15 140 -15c70 0 97 11 97 49v21c0 35 -21 50 -74 50h-132v102h116c59 0 74 13 74 47v24c0 36 -16 47 -86 47c-38 0 -89 -5 -130 -13l-10 95c38 10 104 18 149 18c147 0 199 -35 199 -129v-32c0 -49 -13 -80 -58 -104c49 -14 74 -43 74 -99v-31
c0 -94 -45 -145 -216 -145c-47 0 -109 8 -155 23z" />
    <glyph glyph-name="four.smcp" horiz-adv-x="532" 
d="M502 115h-84v-115h-115v115h-273v100l241 305h147v-313h84v-92zM151 207h152v203z" />
    <glyph glyph-name="five.smcp" horiz-adv-x="501" 
d="M80 218v302h344v-102h-222v-102c37 0 57 -1 95 -3c113 -6 142 -54 142 -138v-35c-1 -106 -48 -150 -214 -150c-45 0 -114 8 -165 25l16 95c50 -12 103 -18 149 -18c70 0 92 11 92 52v20c0 36 -15 48 -72 50c-83 3 -108 3 -165 4z" />
    <glyph glyph-name="six.smcp" horiz-adv-x="509" 
d="M182 344v-42c29 10 72 15 105 15c112 0 165 -40 165 -134v-43c0 -80 -39 -150 -196 -150c-154 0 -196 61 -196 149v209c0 140 83 182 241 182c43 0 90 -5 133 -15l-12 -98c-31 6 -81 11 -112 11c-98 0 -128 -17 -128 -84zM273 217c-26 0 -61 -5 -91 -16v-61
c0 -37 24 -50 74 -50c54 0 74 16 74 50v37c0 30 -17 40 -57 40z" />
    <glyph glyph-name="seven.smcp" horiz-adv-x="459" 
d="M35 414v106h396v-100l-224 -420h-133l225 414h-264z" />
    <glyph glyph-name="eight.smcp" horiz-adv-x="538" 
d="M460 368c0 -38 -13 -73 -71 -102c54 -25 86 -54 86 -105v-37c0 -94 -66 -134 -207 -134c-145 0 -205 40 -205 134v37c0 51 31 80 86 105c-56 29 -71 64 -71 102v34c0 79 59 128 190 128c133 0 192 -49 192 -128v-34zM356 155c0 34 -26 45 -88 66c-59 -20 -86 -32 -86 -66
v-19c0 -36 23 -51 86 -51s88 15 88 51v19zM196 366c0 -31 23 -42 72 -61c49 18 74 30 74 61v25c0 31 -22 46 -74 46s-72 -15 -72 -46v-25z" />
    <glyph glyph-name="nine.smcp" horiz-adv-x="506" 
d="M324 176v42c-29 -10 -72 -15 -105 -15c-112 0 -165 40 -165 134v43c0 80 39 150 196 150c154 0 196 -61 196 -149v-209c0 -140 -76 -182 -241 -182c-43 0 -93 6 -133 18l12 97c31 -8 72 -13 112 -13c98 0 128 17 128 84zM233 303c30 0 61 5 91 16v61c0 37 -22 50 -74 50
c-54 0 -74 -13 -74 -50v-37c0 -30 17 -40 57 -40z" />
    <glyph glyph-name="less.smcp" horiz-adv-x="586" 
d="M50 211v66l432 220l38 -74l-355 -179l356 -179l-39 -75z" />
    <glyph glyph-name="equal.smcp" horiz-adv-x="539" 
d="M70 302v84h399v-84h-399zM70 114v84h399v-84h-399z" />
    <glyph glyph-name="greater.smcp" horiz-adv-x="586" 
d="M536 277v-66l-432 -221l-39 75l356 179l-355 179l38 74z" />
    <glyph glyph-name="question.smcp" horiz-adv-x="477" 
d="M231 165l-64 89c35 24 40 27 68 46c50 34 52 37 52 79c0 47 -19 49 -90 49c-33 0 -83 -5 -119 -13l-13 98c44 10 104 17 155 17c143 0 187 -39 187 -143c0 -72 -1 -100 -65 -146c-32 -23 -59 -42 -111 -76zM157 0v125h126v-125h-126z" />
    <glyph glyph-name="at.smcp" horiz-adv-x="632" 
d="M209 233l15 84c9 52 38 77 112 77c28 0 75 -11 103 -25l-29 -165c6 -3 16 -6 27 -6c51 0 79 36 79 105c0 90 -67 158 -182 158c-126 0 -204 -80 -204 -202c0 -124 75 -198 225 -198c42 0 91 7 139 23l18 -63c-44 -21 -110 -31 -160 -31c-201 0 -302 109 -302 269
c0 163 110 271 285 271c171 0 257 -109 257 -225c0 -102 -51 -166 -148 -166c-42 0 -72 18 -89 38c-21 -13 -49 -22 -81 -22c-50 0 -72 39 -65 78zM351 232l17 98c-10 3 -27 6 -40 6c-22 0 -36 -8 -39 -29l-12 -69c-3 -16 2 -24 20 -24c16 0 40 8 54 18z" />
    <glyph glyph-name="a.smcp" horiz-adv-x="578" 
d="M366 520l182 -520h-124l-30 93h-210l-30 -93h-124l182 520h154zM365 190l-76 236l-76 -236h152z" />
    <glyph glyph-name="b.smcp" horiz-adv-x="547" 
d="M352 0h-272v520h260c106 0 144 -43 144 -116v-49c0 -40 -17 -66 -61 -85c51 -12 81 -47 81 -98v-48c0 -75 -42 -124 -152 -124zM384 139v35c0 29 -14 41 -47 41h-133v-119h132c37 0 48 17 48 43zM364 348v43c0 22 -13 33 -40 33h-120v-116h114c35 0 46 18 46 40z" />
    <glyph glyph-name="c.smcp" horiz-adv-x="491" 
d="M272 -10c-146 0 -207 57 -207 164v212c0 107 61 164 207 164c53 0 112 -6 164 -17l-10 -104c-51 9 -107 13 -150 13c-64 0 -87 -19 -87 -71v-182c0 -52 23 -71 87 -71c43 0 99 4 150 13l10 -104c-52 -11 -111 -17 -164 -17z" />
    <glyph glyph-name="d.smcp" horiz-adv-x="566" 
d="M506 344v-168c0 -100 -37 -176 -192 -176h-234v520h234c155 0 192 -76 192 -176zM204 415v-310h103c56 0 77 22 77 70v170c0 48 -21 70 -77 70h-103z" />
    <glyph glyph-name="e.smcp" horiz-adv-x="505" 
d="M80 0v520h365v-102h-241v-101h223v-103h-223v-112h241v-102h-365z" />
    <glyph glyph-name="f.smcp" horiz-adv-x="493" 
d="M204 0h-124v520h368v-102h-244v-123h230v-103h-230v-192z" />
    <glyph glyph-name="g.smcp" horiz-adv-x="548" 
d="M189 356v-188c0 -48 12 -72 90 -72c30 0 58 3 83 8v150h116v-237c-62 -18 -136 -27 -203 -27c-157 0 -210 57 -210 161v218c0 109 58 161 217 161c56 0 116 -5 181 -18l-11 -104c-59 10 -114 15 -175 15c-64 0 -88 -16 -88 -67z" />
    <glyph glyph-name="h.smcp" horiz-adv-x="615" 
d="M535 0h-124v210h-207v-210h-124v520h124v-203h207v203h124v-520z" />
    <glyph glyph-name="i.smcp" horiz-adv-x="294" 
d="M209 520v-520h-124v520h124z" />
    <glyph glyph-name="j.smcp" horiz-adv-x="276" 
d="M77 520h124v-512c0 -58 -8 -74 -124 -181l-77 81c75 73 77 79 77 106v506z" />
    <glyph glyph-name="k.smcp" horiz-adv-x="575" 
d="M529 520l-177 -254l193 -266h-143l-187 266l177 254h137zM204 520v-520h-124v520h124z" />
    <glyph glyph-name="l.smcp" horiz-adv-x="468" 
d="M204 520v-413h229v-107h-353v520h124z" />
    <glyph glyph-name="m.smcp" horiz-adv-x="732" 
d="M542 0l-11 313l-97 -248h-136l-97 248l-11 -313h-120l29 520h130l137 -343l137 343h130l29 -520h-120z" />
    <glyph glyph-name="n.smcp" horiz-adv-x="634" 
d="M403 0l-205 365v-365h-118v520h151l205 -366v366h118v-520h-151z" />
    <glyph glyph-name="o.smcp" horiz-adv-x="576" 
d="M511 365v-210c0 -89 -61 -165 -223 -165s-223 76 -223 165v210c0 89 61 165 223 165s223 -76 223 -165zM387 351c0 46 -26 72 -99 72s-99 -26 -99 -72v-182c0 -46 26 -72 99 -72s99 26 99 72v182z" />
    <glyph glyph-name="p.smcp" horiz-adv-x="531" 
d="M311 147h-107v-147h-124v520h237c138 0 182 -54 182 -146v-80c0 -94 -51 -147 -188 -147zM312 247c47 0 64 17 64 53v68c0 35 -17 51 -64 51h-108v-172h108z" />
    <glyph glyph-name="q.smcp" horiz-adv-x="576" 
d="M317 -154l-66 146c-134 10 -186 81 -186 163v210c0 89 61 165 223 165s223 -76 223 -165v-210c0 -71 -39 -134 -137 -156l49 -108zM387 351c0 46 -26 72 -99 72s-99 -26 -99 -72v-182c0 -46 26 -72 99 -72s99 26 99 72v182z" />
    <glyph glyph-name="r.smcp" horiz-adv-x="587" 
d="M416 0l-102 152h-110v-152h-124v520h244c137 0 182 -54 182 -146v-75c0 -59 -16 -93 -69 -122l120 -177h-141zM321 251c47 0 64 18 64 55v62c0 37 -17 51 -60 51h-121v-168h117z" />
    <glyph glyph-name="s.smcp" horiz-adv-x="499" 
d="M446 150c0 -107 -40 -160 -206 -160c-58 0 -131 11 -185 33l20 94c47 -14 113 -25 166 -25c66 0 81 13 81 53c0 39 -4 49 -107 71c-142 30 -155 69 -155 167c0 111 63 147 201 147c51 0 123 -7 173 -21l-15 -99c-55 12 -112 18 -156 18c-67 0 -79 -8 -79 -49
c0 -44 4 -47 104 -70c147 -34 158 -59 158 -159z" />
    <glyph glyph-name="t.smcp" horiz-adv-x="502" 
d="M189 0v413h-159v107h442v-107h-159v-413h-124z" />
    <glyph glyph-name="u.smcp" horiz-adv-x="590" 
d="M391 520h124v-366c0 -83 -51 -164 -220 -164s-220 81 -220 164v366h124v-353c0 -44 23 -70 96 -70s96 26 96 70v353z" />
    <glyph glyph-name="v.smcp" horiz-adv-x="532" 
d="M519 520l-168 -520h-170l-168 520h122l131 -414l131 414h122z" />
    <glyph glyph-name="w.smcp" horiz-adv-x="826" 
d="M482 520l104 -370l101 370h119l-146 -520h-148l-99 383l-99 -383h-148l-146 520h119l101 -370l104 370h138z" />
    <glyph glyph-name="x.smcp" horiz-adv-x="564" 
d="M30 0l181 263l-174 257h132l113 -169l113 169h134l-176 -257l181 -263h-133l-119 173l-118 -173h-134z" />
    <glyph glyph-name="y.smcp" horiz-adv-x="514" 
d="M195 0v149l-185 371h126l121 -254l121 254h126l-185 -371v-149h-124z" />
    <glyph glyph-name="z.smcp" horiz-adv-x="540" 
d="M471 429l-255 -331h259v-98h-405v91l256 331h-254v98h399v-91z" />
    <glyph glyph-name="cent.smcp" horiz-adv-x="470" 
d="M201 21c-104 15 -146 62 -146 160v158c0 98 42 145 146 160v117h102v-113c33 -3 67 -7 102 -16l-12 -100c-41 9 -90 13 -130 13c-66 0 -88 -19 -88 -71v-138c0 -52 22 -71 88 -71c40 0 89 4 130 13l12 -100c-35 -9 -69 -13 -102 -16v-113h-102v117z" />
    <glyph glyph-name="sterling.smcp" horiz-adv-x="530" 
d="M60 212v84h75c-19 33 -26 71 -26 101c0 87 54 133 194 133c43 0 109 -9 158 -26l-15 -89c-41 11 -90 18 -147 18c-50 0 -69 -13 -69 -51c0 -33 14 -66 27 -86h174l-5 -84h-148c1 -45 -13 -84 -51 -116h238v-96h-389v91c56 33 83 72 83 121h-99z" />
    <glyph glyph-name="section.smcp" horiz-adv-x="533" 
d="M260 33l-87 -43c-74 134 -113 285 -113 417c0 81 45 123 148 123c56 0 120 -12 167 -28l-15 -81c-46 11 -106 22 -146 22c-39 0 -51 -13 -51 -47c0 -132 39 -244 97 -363zM283 311l87 43c74 -134 113 -285 113 -417c0 -81 -45 -123 -148 -123c-56 0 -120 12 -167 28
l15 81c46 -11 106 -22 146 -22c39 0 51 13 51 47c0 132 -39 244 -97 363z" />
    <glyph glyph-name="paragraph.smcp" horiz-adv-x="528" 
d="M348 520h95v-532c0 -61 -12 -69 -149 -195l-59 67c113 101 113 107 113 144v516zM50 301c0 125 94 219 219 219v-437c-125 0 -219 94 -219 218z" />
    <glyph glyph-name="germandbls.smcp" horiz-adv-x="998" 
d="M446 150c0 -107 -40 -160 -206 -160c-58 0 -131 11 -185 33l20 94c47 -14 113 -25 166 -25c66 0 81 13 81 53c0 39 -4 49 -107 71c-142 30 -155 69 -155 167c0 111 63 147 201 147c51 0 123 -7 173 -21l-15 -99c-55 12 -112 18 -156 18c-67 0 -79 -8 -79 -49
c0 -44 4 -47 104 -70c147 -34 158 -59 158 -159zM945 150c0 -107 -40 -160 -206 -160c-58 0 -131 11 -185 33l20 94c47 -14 113 -25 166 -25c66 0 81 13 81 53c0 39 -4 49 -107 71c-142 30 -155 69 -155 167c0 111 63 147 201 147c51 0 123 -7 173 -21l-15 -99
c-55 12 -112 18 -156 18c-67 0 -79 -8 -79 -49c0 -44 4 -47 104 -70c147 -34 158 -59 158 -159z" />
    <glyph glyph-name="yen.smcp" horiz-adv-x="534" 
d="M54 225v71h77l-111 224h126l121 -254l121 254h126l-112 -224h78v-71h-113l-34 -68h147v-69h-151v-88h-124v88h-151v69h147l-34 68h-113z" />
    <glyph glyph-name="ae.smcp" horiz-adv-x="762" 
d="M424 0l-30 93h-210l-30 -93h-124l182 520h490v-102h-301l36 -101h247v-103h-211l39 -112h190v-102h-278zM365 190l-76 236l-76 -236h152z" />
    <glyph glyph-name="oslash.smcp" horiz-adv-x="576" 
d="M65 -32l48 73c-34 30 -48 70 -48 114v210c0 89 61 165 223 165c55 0 98 -9 132 -24l49 74l42 -28l-49 -73c34 -30 49 -71 49 -114v-210c0 -89 -61 -165 -223 -165c-56 0 -99 9 -132 24l-49 -74zM189 169c0 -4 0 -8 1 -12l166 253c-15 8 -38 13 -68 13
c-73 0 -99 -26 -99 -72v-182zM387 351c0 4 -1 8 -1 12l-167 -253c16 -9 38 -13 69 -13c73 0 99 26 99 72v182z" />
    <glyph glyph-name="questiondown.smcp" horiz-adv-x="477" 
d="M246 355l64 -89c-35 -24 -40 -27 -68 -46c-50 -34 -52 -37 -52 -79c0 -47 19 -49 90 -49c33 0 83 5 119 13l13 -98c-44 -10 -104 -17 -155 -17c-143 0 -187 39 -187 143c0 72 1 100 65 146c32 23 59 42 111 76zM320 520v-125h-126v125h126z" />
    <glyph glyph-name="exclamdown.smcp" horiz-adv-x="294" 
d="M113 341h68l29 -122v-219h-126v219zM83 397v123h128v-123h-128z" />
    <glyph glyph-name="florin.smcp" horiz-adv-x="493" 
d="M153 173h-82l9 100h82l10 114c9 98 60 143 167 143c39 0 78 -7 109 -18l-18 -94c-26 7 -56 11 -78 11c-41 0 -56 -17 -59 -52l-9 -104h125l-10 -100h-124l-21 -241c-7 -81 -38 -129 -143 -129c-24 0 -73 6 -101 16l16 93c13 -3 40 -8 58 -8c38 0 47 12 50 50z" />
    <glyph glyph-name="oe.smcp" horiz-adv-x="817" 
d="M65 355c0 89 61 165 223 165h469v-102h-241v-101h223v-103h-223v-112h241v-102h-469c-162 0 -223 76 -223 165v190zM288 413c-73 0 -99 -26 -99 -72v-162c0 -46 26 -72 99 -72h104v306h-104z" />
    <glyph glyph-name="endash.smcp" horiz-adv-x="500" 
d="M65 229v102h370v-102h-370z" />
    <glyph glyph-name="divide.smcp" horiz-adv-x="542" 
d="M477 285v-82h-412v82h412zM213 11v121h116v-121h-116zM213 355v121h116v-121h-116z" />
    <glyph glyph-name="Euro.smcp" horiz-adv-x="499" 
d="M99 291h-64v56h64v21c0 108 44 162 202 162c44 0 96 -5 148 -18l-12 -95c-44 9 -92 14 -131 14c-75 0 -86 -18 -86 -70v-14h146v-56h-146v-62h146v-56h-146v-14c0 -52 11 -70 86 -70c39 0 89 5 131 14l12 -95c-46 -13 -104 -18 -148 -18c-158 0 -202 54 -202 162v21h-64
v56h64v62z" />
    <glyph glyph-name="fi.smcp" horiz-adv-x="787" 
d="M204 0h-124v520h368v-102h-244v-123h230v-103h-230v-192zM702 520v-520h-124v520h124z" />
    <glyph glyph-name="fl.smcp" horiz-adv-x="961" 
d="M204 0h-124v520h368v-102h-244v-123h230v-103h-230v-192zM697 520v-413h229v-107h-353v520h124z" />
    <glyph glyph-name="perthousand.smcp" horiz-adv-x="1101" 
d="M237 25l232 505l75 -35l-232 -505zM323 411v-56c0 -67 -28 -119 -136 -119s-137 52 -137 119v56c0 67 29 119 137 119s136 -52 136 -119zM236 420c0 25 -16 36 -49 36s-50 -11 -50 -36v-74c0 -25 17 -36 50 -36s49 11 49 36v74zM730 165v-56c0 -67 -28 -119 -136 -119
s-137 52 -137 119v56c0 67 29 119 137 119s136 -52 136 -119zM643 174c0 25 -16 36 -49 36s-50 -11 -50 -36v-74c0 -25 17 -36 50 -36s49 11 49 36v74zM1051 165v-56c0 -67 -28 -119 -136 -119s-137 52 -137 119v56c0 67 29 119 137 119s136 -52 136 -119zM964 174
c0 25 -16 36 -49 36s-50 -11 -50 -36v-74c0 -25 17 -36 50 -36s49 11 49 36v74z" />
    <glyph glyph-name="dotlessi.smcp" horiz-adv-x="294" 
d="M209 520v-520h-124v520h124z" />
    <glyph glyph-name="acute.smcp" horiz-adv-x="300" 
d="M105 567l-45 68c48 28 86 52 133 89l47 -73c-48 -35 -88 -58 -135 -84z" />
    <glyph glyph-name="breve.smcp" horiz-adv-x="376" 
d="M263 686l58 -31c-13 -52 -57 -93 -133 -93s-120 41 -133 93l58 31c15 -36 39 -52 75 -52s60 16 75 52z" />
    <glyph glyph-name="caron.smcp" horiz-adv-x="344" 
d="M255 699l34 -57c-44 -27 -71 -46 -117 -84c-46 38 -73 57 -117 84l34 57c36 -14 54 -25 83 -43c29 18 47 29 83 43z" />
    <glyph glyph-name="cedilla.smcp" horiz-adv-x="300" 
d="M245 -119c0 -48 -33 -81 -107 -81c-23 0 -60 6 -83 15l10 47c17 -5 45 -9 65 -9c40 0 49 10 49 29c0 17 -10 24 -38 24c-7 0 -22 -1 -31 -2l-29 14l21 97h57l-13 -68c8 1 19 2 28 2c48 1 71 -28 71 -68z" />
    <glyph glyph-name="circumflex.smcp" horiz-adv-x="344" 
d="M289 627l-34 -57c-36 14 -54 25 -83 43c-29 -18 -47 -29 -83 -43l-34 57c44 27 71 46 117 84c46 -38 73 -57 117 -84z" />
    <glyph glyph-name="commaaccent.smcp" horiz-adv-x="317" 
d="M100 -183v132h117v-140l-64 -104l-53 29l43 83h-43z" />
    <glyph glyph-name="dieresis.smcp" horiz-adv-x="406" 
d="M60 579v96h99v-96h-99zM248 579v96h98v-96h-98z" />
    <glyph glyph-name="dotaccent.smcp" horiz-adv-x="232" 
d="M177 579h-122v141h122v-141z" />
    <glyph glyph-name="grave.smcp" horiz-adv-x="300" 
d="M240 635l-45 -68c-47 22 -95 51 -135 84l47 73c43 -34 85 -61 133 -89z" />
    <glyph glyph-name="hungarumlaut.smcp" horiz-adv-x="425" 
d="M111 562l-56 55c27 28 59 63 85 99l65 -57c-24 -35 -65 -75 -94 -97zM276 562l-56 55c27 28 59 63 85 99l65 -57c-24 -35 -65 -75 -94 -97z" />
    <glyph glyph-name="macron.smcp" horiz-adv-x="354" 
d="M55 591v74h244v-74h-244z" />
    <glyph glyph-name="ogonek.smcp" horiz-adv-x="284" 
d="M209 -135l14 -58c-21 -9 -40 -14 -69 -14c-64 0 -99 30 -99 80c0 57 53 94 122 127h52c-64 -49 -88 -77 -88 -107c0 -19 9 -32 37 -32c12 0 21 1 31 4z" />
    <glyph glyph-name="ring.smcp" horiz-adv-x="283" 
d="M228 638c0 -46 -29 -83 -86 -83s-87 34 -87 83c0 47 30 83 87 83s86 -36 86 -83zM175 638c0 23 -11 37 -33 37s-34 -14 -34 -37c0 -22 12 -36 34 -36s33 14 33 36z" />
    <glyph glyph-name="tilde.smcp" horiz-adv-x="422" 
d="M205 591c-20 13 -32 21 -49 21c-23 0 -38 -22 -51 -40l-50 41c22 40 57 76 99 76c23 0 39 -5 62 -19c24 -14 38 -22 53 -22c20 0 32 12 41 37l57 -30c-17 -51 -52 -83 -98 -83c-26 0 -43 6 -64 19z" />
    <glyph glyph-name="aacute.smcp" horiz-adv-x="578" 
d="M366 520l182 -520h-124l-30 93h-210l-30 -93h-124l182 520h154zM365 190l-76 236l-76 -236h152zM289 567l-45 68c48 28 86 52 133 89l47 -73c-48 -35 -88 -58 -135 -84z" />
    <glyph glyph-name="aeacute.smcp" horiz-adv-x="762" 
d="M424 0l-30 93h-210l-30 -93h-124l182 520h490v-102h-301l36 -101h247v-103h-211l39 -112h190v-102h-278zM365 190l-76 236l-76 -236h152zM332 567l-45 68c48 28 86 52 133 89l47 -73c-48 -35 -88 -58 -135 -84z" />
    <glyph glyph-name="abreve.smcp" horiz-adv-x="578" 
d="M366 520l182 -520h-124l-30 93h-210l-30 -93h-124l182 520h154zM365 190l-76 236l-76 -236h152zM364 686l58 -31c-13 -52 -57 -93 -133 -93s-120 41 -133 93l58 31c15 -36 39 -52 75 -52s60 16 75 52z" />
    <glyph glyph-name="acircumflex.smcp" horiz-adv-x="578" 
d="M366 520l182 -520h-124l-30 93h-210l-30 -93h-124l182 520h154zM365 190l-76 236l-76 -236h152zM406 627l-34 -57c-36 14 -54 25 -83 43c-29 -18 -47 -29 -83 -43l-34 57c44 27 71 46 117 84c46 -38 73 -57 117 -84z" />
    <glyph glyph-name="adieresis.smcp" horiz-adv-x="578" 
d="M366 520l182 -520h-124l-30 93h-210l-30 -93h-124l182 520h154zM365 190l-76 236l-76 -236h152zM146 579v96h99v-96h-99zM334 579v96h98v-96h-98z" />
    <glyph glyph-name="agrave.smcp" horiz-adv-x="578" 
d="M366 520l182 -520h-124l-30 93h-210l-30 -93h-124l182 520h154zM365 190l-76 236l-76 -236h152zM337 634l-45 -68c-47 22 -95 51 -135 84l47 73c43 -34 85 -61 133 -89z" />
    <glyph glyph-name="amacron.smcp" horiz-adv-x="578" 
d="M366 520l182 -520h-124l-30 93h-210l-30 -93h-124l182 520h154zM365 190l-76 236l-76 -236h152zM167 591v74h244v-74h-244z" />
    <glyph glyph-name="aogonek.smcp" horiz-adv-x="578" 
d="M498 -135l14 -58c-21 -9 -40 -14 -69 -14c-64 0 -99 30 -99 80c0 57 52 94 126 127h-46l-30 93h-210l-30 -93h-124l182 520h154l182 -520h-30c-64 -49 -88 -77 -88 -107c0 -19 9 -32 37 -32c12 0 21 1 31 4zM365 190l-76 236l-76 -236h152z" />
    <glyph glyph-name="atilde.smcp" horiz-adv-x="578" 
d="M366 520l182 -520h-124l-30 93h-210l-30 -93h-124l182 520h154zM365 190l-76 236l-76 -236h152zM282 591c-20 13 -32 21 -49 21c-23 0 -38 -22 -51 -40l-50 41c22 40 57 76 99 76c23 0 39 -5 62 -19c24 -14 38 -22 53 -22c20 0 32 12 41 37l57 -30
c-17 -51 -52 -83 -98 -83c-26 0 -43 6 -64 19z" />
    <glyph glyph-name="aring.smcp" horiz-adv-x="578" 
d="M366 520l182 -520h-124l-30 93h-210l-30 -93h-124l182 520h154zM365 190l-76 236l-76 -236h152zM376 638c0 -46 -29 -83 -86 -83s-87 34 -87 83c0 47 30 83 87 83s86 -36 86 -83zM323 638c0 23 -11 37 -33 37s-34 -14 -34 -37c0 -22 12 -36 34 -36s33 14 33 36z" />
    <glyph glyph-name="aringacute.smcp" horiz-adv-x="578" 
d="M366 520l182 -520h-124l-30 93h-210l-30 -93h-124l182 520h154zM365 190l-76 236l-76 -236h152zM371 629c0 -43 -31 -78 -82 -78s-82 32 -82 78c0 44 31 79 82 79s82 -35 82 -79zM322 629c0 22 -12 35 -33 35s-33 -13 -33 -35c0 -20 12 -34 33 -34s33 14 33 34zM288 726
l-39 61c45 27 75 45 115 76l42 -67c-42 -30 -77 -49 -118 -70z" />
    <glyph glyph-name="cacute.smcp" horiz-adv-x="491" 
d="M272 -10c-146 0 -207 57 -207 164v212c0 107 61 164 207 164c53 0 112 -6 164 -17l-10 -104c-51 9 -107 13 -150 13c-64 0 -87 -19 -87 -71v-182c0 -52 23 -71 87 -71c43 0 99 4 150 13l10 -104c-52 -11 -111 -17 -164 -17zM228 567l-45 68c48 28 86 52 133 89l47 -73
c-48 -35 -88 -58 -135 -84z" />
    <glyph glyph-name="ccaron.smcp" horiz-adv-x="491" 
d="M272 -10c-146 0 -207 57 -207 164v212c0 107 61 164 207 164c53 0 112 -6 164 -17l-10 -104c-51 9 -107 13 -150 13c-64 0 -87 -19 -87 -71v-182c0 -52 23 -71 87 -71c43 0 99 4 150 13l10 -104c-52 -11 -111 -17 -164 -17zM357 699l34 -57c-44 -27 -71 -46 -117 -84
c-46 38 -73 57 -117 84l34 57c36 -14 54 -25 83 -43c29 18 47 29 83 43z" />
    <glyph glyph-name="ccedilla.smcp" horiz-adv-x="491" 
d="M389 -119c0 -48 -33 -81 -107 -81c-23 0 -60 6 -83 15l10 47c17 -5 45 -9 65 -9c40 0 49 10 49 29c0 17 -10 24 -38 24c-7 0 -22 -1 -31 -2l-29 14l16 73c-124 8 -176 64 -176 163v212c0 107 61 164 207 164c53 0 112 -6 164 -17l-10 -104c-51 9 -107 13 -150 13
c-64 0 -87 -19 -87 -71v-182c0 -52 23 -71 87 -71c43 0 99 4 150 13l10 -104c-44 -9 -92 -15 -138 -16l-8 -44c8 1 19 2 28 2c48 0 71 -28 71 -68z" />
    <glyph glyph-name="ccircumflex.smcp" horiz-adv-x="491" 
d="M272 -10c-146 0 -207 57 -207 164v212c0 107 61 164 207 164c53 0 112 -6 164 -17l-10 -104c-51 9 -107 13 -150 13c-64 0 -87 -19 -87 -71v-182c0 -52 23 -71 87 -71c43 0 99 4 150 13l10 -104c-52 -11 -111 -17 -164 -17zM395 627l-34 -57c-36 14 -54 25 -83 43
c-29 -18 -47 -29 -83 -43l-34 57c44 27 71 46 117 84c46 -38 73 -57 117 -84z" />
    <glyph glyph-name="cdotaccent.smcp" horiz-adv-x="491" 
d="M272 -10c-146 0 -207 57 -207 164v212c0 107 61 164 207 164c53 0 112 -6 164 -17l-10 -104c-51 9 -107 13 -150 13c-64 0 -87 -19 -87 -71v-182c0 -52 23 -71 87 -71c43 0 99 4 150 13l10 -104c-52 -11 -111 -17 -164 -17zM334 579h-122v141h122v-141z" />
    <glyph glyph-name="dcaron.smcp" horiz-adv-x="566" 
d="M506 344v-168c0 -100 -37 -176 -192 -176h-234v520h234c155 0 192 -76 192 -176zM204 415v-310h103c56 0 77 22 77 70v170c0 48 -21 70 -77 70h-103zM360 699l34 -57c-44 -27 -71 -46 -117 -84c-46 38 -73 57 -117 84l34 57c36 -14 54 -25 83 -43c29 18 47 29 83 43z" />
    <glyph glyph-name="dcroat.smcp" horiz-adv-x="566" 
d="M45 218v86h54v216h234c155 0 192 -76 192 -176v-168c0 -100 -37 -176 -192 -176h-234v218h-54zM223 415v-111h84v-86h-84v-113h103c56 0 77 22 77 70v170c0 48 -21 70 -77 70h-103z" />
    <glyph glyph-name="eacute.smcp" horiz-adv-x="505" 
d="M80 0v520h365v-102h-241v-101h223v-103h-223v-112h241v-102h-365zM235 567l-45 68c48 28 86 52 133 89l47 -73c-48 -35 -88 -58 -135 -84z" />
    <glyph glyph-name="ebreve.smcp" horiz-adv-x="505" 
d="M80 0v520h365v-102h-241v-101h223v-103h-223v-112h241v-102h-365zM347 686l58 -31c-13 -52 -57 -93 -133 -93s-120 41 -133 93l58 31c15 -36 39 -52 75 -52s60 16 75 52z" />
    <glyph glyph-name="ecaron.smcp" horiz-adv-x="505" 
d="M80 0v520h365v-102h-241v-101h223v-103h-223v-112h241v-102h-365zM358 699l34 -57c-44 -27 -71 -46 -117 -84c-46 38 -73 57 -117 84l34 57c36 -14 54 -25 83 -43c29 18 47 29 83 43z" />
    <glyph glyph-name="ecircumflex.smcp" horiz-adv-x="505" 
d="M80 0v520h365v-102h-241v-101h223v-103h-223v-112h241v-102h-365zM384 627l-34 -57c-36 14 -54 25 -83 43c-29 -18 -47 -29 -83 -43l-34 57c44 27 71 46 117 84c46 -38 73 -57 117 -84z" />
    <glyph glyph-name="edieresis.smcp" horiz-adv-x="505" 
d="M80 0v520h365v-102h-241v-101h223v-103h-223v-112h241v-102h-365zM121 579v96h99v-96h-99zM309 579v96h98v-96h-98z" />
    <glyph glyph-name="edotaccent.smcp" horiz-adv-x="505" 
d="M80 0v520h365v-102h-241v-101h223v-103h-223v-112h241v-102h-365zM321 579h-122v141h122v-141z" />
    <glyph glyph-name="egrave.smcp" horiz-adv-x="505" 
d="M80 0v520h365v-102h-241v-101h223v-103h-223v-112h241v-102h-365zM327 635l-45 -68c-47 22 -95 51 -135 84l47 73c43 -34 85 -61 133 -89z" />
    <glyph glyph-name="emacron.smcp" horiz-adv-x="505" 
d="M80 0v520h365v-102h-241v-101h223v-103h-223v-112h241v-102h-365zM143 591v74h244v-74h-244z" />
    <glyph glyph-name="eng.smcp" horiz-adv-x="634" 
d="M403 0l-205 365v-365h-118v520h151l205 -366v366h118v-546c0 -58 -28 -80 -145 -181l-68 80c77 70 91 76 91 117v10h-29z" />
    <glyph glyph-name="eogonek.smcp" horiz-adv-x="516" 
d="M80 0v520h365v-102h-241v-101h223v-103h-223v-112h241v-102h-41c-64 -49 -88 -77 -88 -107c0 -19 9 -32 37 -32c12 0 21 1 31 4l14 -58c-21 -9 -40 -14 -69 -14c-64 0 -99 30 -99 80c0 57 53 94 122 127h-272z" />
    <glyph glyph-name="eth.smcp" horiz-adv-x="585" 
d="M45 218v86h54v216h234c155 0 192 -76 192 -176v-168c0 -100 -37 -176 -192 -176h-234v218h-54zM223 415v-111h84v-86h-84v-113h103c56 0 77 22 77 70v170c0 48 -21 70 -77 70h-103z" />
    <glyph glyph-name="gbreve.smcp" horiz-adv-x="548" 
d="M189 356v-188c0 -48 12 -72 90 -72c30 0 58 3 83 8v150h116v-237c-62 -18 -136 -27 -203 -27c-157 0 -210 57 -210 161v218c0 109 58 161 217 161c56 0 116 -5 181 -18l-11 -104c-59 10 -114 15 -175 15c-64 0 -88 -16 -88 -67zM365 686l58 -31c-13 -52 -57 -93 -133 -93
s-120 41 -133 93l58 31c15 -36 39 -52 75 -52s60 16 75 52z" />
    <glyph glyph-name="gcircumflex.smcp" horiz-adv-x="548" 
d="M189 356v-188c0 -48 12 -72 90 -72c30 0 58 3 83 8v150h116v-237c-62 -18 -136 -27 -203 -27c-157 0 -210 57 -210 161v218c0 109 58 161 217 161c56 0 116 -5 181 -18l-11 -104c-59 10 -114 15 -175 15c-64 0 -88 -16 -88 -67zM404 627l-34 -57c-36 14 -54 25 -83 43
c-29 -18 -47 -29 -83 -43l-34 57c44 27 71 46 117 84c46 -38 73 -57 117 -84z" />
    <glyph glyph-name="gcommaaccent.smcp" horiz-adv-x="548" 
d="M189 356v-188c0 -48 12 -72 90 -72c30 0 58 3 83 8v150h116v-237c-62 -18 -136 -27 -203 -27c-157 0 -210 57 -210 161v218c0 109 58 161 217 161c56 0 116 -5 181 -18l-11 -104c-59 10 -114 15 -175 15c-64 0 -88 -16 -88 -67zM240 -183v132h117v-140l-64 -104l-53 29
l43 83h-43z" />
    <glyph glyph-name="gdotaccent.smcp" horiz-adv-x="548" 
d="M189 356v-188c0 -48 12 -72 90 -72c30 0 58 3 83 8v150h116v-237c-62 -18 -136 -27 -203 -27c-157 0 -210 57 -210 161v218c0 109 58 161 217 161c56 0 116 -5 181 -18l-11 -104c-59 10 -114 15 -175 15c-64 0 -88 -16 -88 -67zM345 579h-122v141h122v-141z" />
    <glyph glyph-name="hbar.smcp" horiz-adv-x="615" 
d="M24 387v55h56v78h124v-78h207v78h124v-78h56v-55h-56v-387h-124v210h-207v-210h-124v387h-56zM204 317h207v70h-207v-70z" />
    <glyph glyph-name="hcircumflex.smcp" horiz-adv-x="615" 
d="M535 0h-124v210h-207v-210h-124v520h124v-203h207v203h124v-520zM425 627l-34 -57c-36 14 -54 25 -83 43c-29 -18 -47 -29 -83 -43l-34 57c44 27 71 46 117 84c46 -38 73 -57 117 -84z" />
    <glyph glyph-name="iacute.smcp" horiz-adv-x="294" 
d="M209 520v-520h-124v520h124zM141 567l-45 68c48 28 86 52 133 89l47 -73c-48 -35 -88 -58 -135 -84z" />
    <glyph glyph-name="ibreve.smcp" horiz-adv-x="294" 
d="M221 686l58 -31c-13 -52 -57 -93 -133 -93s-120 41 -133 93l58 31c15 -36 39 -52 75 -52s60 16 75 52zM209 520v-520h-124v520h124z" />
    <glyph glyph-name="icircumflex.smcp" horiz-adv-x="294" 
d="M209 520v-520h-124v520h124zM264 627l-34 -57c-36 14 -54 25 -83 43c-29 -18 -47 -29 -83 -43l-34 57c44 27 71 46 117 84c46 -38 73 -57 117 -84z" />
    <glyph glyph-name="idieresis.smcp" horiz-adv-x="294" 
d="M209 520v-520h-124v520h124zM4 579v96h99v-96h-99zM192 579v96h98v-96h-98z" />
    <glyph glyph-name="igrave.smcp" horiz-adv-x="294" 
d="M209 520v-520h-124v520h124zM198 635l-45 -68c-47 22 -95 51 -135 84l47 73c43 -34 85 -61 133 -89z" />
    <glyph glyph-name="imacron.smcp" horiz-adv-x="294" 
d="M25 591v74h244v-74h-244zM209 520v-520h-124v520h124z" />
    <glyph glyph-name="iogonek.smcp" horiz-adv-x="294" 
d="M187 -131l14 -58c-30 -12 -55 -18 -90 -18c-64 0 -103 37 -103 87c0 41 26 78 76 120v520h124v-520h-72c-28 -37 -46 -69 -46 -104c0 -22 10 -35 42 -35c20 0 32 2 55 8z" />
    <glyph glyph-name="itilde.smcp" horiz-adv-x="294" 
d="M144 591c-20 13 -32 21 -49 21c-23 0 -38 -22 -51 -40l-50 41c22 40 57 76 99 76c23 0 39 -5 62 -19c24 -14 38 -22 53 -22c20 0 32 12 41 37l57 -30c-17 -51 -52 -83 -98 -83c-26 0 -43 6 -64 19zM209 520v-520h-124v520h124z" />
    <glyph glyph-name="ij.smcp" horiz-adv-x="570" 
d="M209 520v-520h-124v520h124zM371 520h124v-512c0 -58 -8 -74 -124 -181l-77 81c75 73 77 79 77 106v506z" />
    <glyph glyph-name="jcircumflex.smcp" horiz-adv-x="276" 
d="M77 520h124v-512c0 -58 -8 -74 -124 -181l-77 81c75 73 77 79 77 106v506zM258 627l-34 -57c-36 14 -54 25 -83 43c-29 -18 -47 -29 -83 -43l-34 57c44 27 71 46 117 84c46 -38 73 -57 117 -84z" />
    <glyph glyph-name="kcommaaccent.smcp" horiz-adv-x="580" 
d="M529 520l-177 -254l193 -266h-143l-187 266l177 254h137zM204 520v-520h-124v520h124zM243 -183v132h117v-140l-64 -104l-53 29l43 83h-43z" />
    <glyph glyph-name="lacute.smcp" horiz-adv-x="468" 
d="M204 520v-413h229v-107h-353v520h124zM145 567l-45 68c48 28 86 52 133 89l47 -73c-48 -35 -88 -58 -135 -84z" />
    <glyph glyph-name="lcaron.smcp" horiz-adv-x="468" 
d="M204 520v-413h229v-107h-353v520h124zM304 409v111h97v-118l-61 -102l-43 26l43 83h-36z" />
    <glyph glyph-name="lcommaaccent.smcp" horiz-adv-x="468" 
d="M204 520v-413h229v-107h-353v520h124zM216 -183v132h117v-140l-64 -104l-53 29l43 83h-43z" />
    <glyph glyph-name="ldot.smcp" horiz-adv-x="468" 
d="M204 520v-413h229v-107h-353v520h124zM275 223v133h114v-133h-114z" />
    <glyph glyph-name="lslash.smcp" horiz-adv-x="493" 
d="M51 168l-31 75l90 40v237h124v-184l129 57l31 -74l-160 -71v-141h229v-107h-353v195z" />
    <glyph glyph-name="nacute.smcp" horiz-adv-x="634" 
d="M403 0l-205 365v-365h-118v520h151l205 -366v366h118v-520h-151zM304 567l-45 68c48 28 86 52 133 89l47 -73c-48 -35 -88 -58 -135 -84z" />
    <glyph glyph-name="ncaron.smcp" horiz-adv-x="634" 
d="M403 0l-205 365v-365h-118v520h151l205 -366v366h118v-520h-151zM406 699l34 -57c-44 -27 -71 -46 -117 -84c-46 38 -73 57 -117 84l34 57c36 -14 54 -25 83 -43c29 18 47 29 83 43z" />
    <glyph glyph-name="ncommaaccent.smcp" horiz-adv-x="634" 
d="M403 0l-205 365v-365h-118v520h151l205 -366v366h118v-520h-151zM257 -183v132h117v-140l-64 -104l-53 29l43 83h-43z" />
    <glyph glyph-name="ntilde.smcp" horiz-adv-x="634" 
d="M403 0l-205 365v-365h-118v520h151l205 -366v366h118v-520h-151zM315 591c-20 13 -32 21 -49 21c-23 0 -38 -22 -51 -40l-50 41c22 40 57 76 99 76c23 0 39 -5 62 -19c24 -14 38 -22 53 -22c20 0 32 12 41 37l57 -30c-17 -51 -52 -83 -98 -83c-26 0 -43 6 -64 19z" />
    <glyph glyph-name="oacute.smcp" horiz-adv-x="576" 
d="M511 365v-210c0 -89 -61 -165 -223 -165s-223 76 -223 165v210c0 89 61 165 223 165s223 -76 223 -165zM387 351c0 46 -26 72 -99 72s-99 -26 -99 -72v-182c0 -46 26 -72 99 -72s99 26 99 72v182zM272 567l-45 68c48 28 86 52 133 89l47 -73c-48 -35 -88 -58 -135 -84z
" />
    <glyph glyph-name="obreve.smcp" horiz-adv-x="576" 
d="M511 365v-210c0 -89 -61 -165 -223 -165s-223 76 -223 165v210c0 89 61 165 223 165s223 -76 223 -165zM387 351c0 46 -26 72 -99 72s-99 -26 -99 -72v-182c0 -46 26 -72 99 -72s99 26 99 72v182zM362 686l58 -31c-13 -52 -57 -93 -133 -93s-120 41 -133 93l58 31
c15 -36 39 -52 75 -52s60 16 75 52z" />
    <glyph glyph-name="ocircumflex.smcp" horiz-adv-x="576" 
d="M511 365v-210c0 -89 -61 -165 -223 -165s-223 76 -223 165v210c0 89 61 165 223 165s223 -76 223 -165zM387 351c0 46 -26 72 -99 72s-99 -26 -99 -72v-182c0 -46 26 -72 99 -72s99 26 99 72v182zM405 627l-34 -57c-36 14 -54 25 -83 43c-29 -18 -47 -29 -83 -43l-34 57
c44 27 71 46 117 84c46 -38 73 -57 117 -84z" />
    <glyph glyph-name="odieresis.smcp" horiz-adv-x="576" 
d="M511 365v-210c0 -89 -61 -165 -223 -165s-223 76 -223 165v210c0 89 61 165 223 165s223 -76 223 -165zM387 351c0 46 -26 72 -99 72s-99 -26 -99 -72v-182c0 -46 26 -72 99 -72s99 26 99 72v182zM145 579v96h99v-96h-99zM333 579v96h98v-96h-98z" />
    <glyph glyph-name="ograve.smcp" horiz-adv-x="576" 
d="M511 365v-210c0 -89 -61 -165 -223 -165s-223 76 -223 165v210c0 89 61 165 223 165s223 -76 223 -165zM387 351c0 46 -26 72 -99 72s-99 -26 -99 -72v-182c0 -46 26 -72 99 -72s99 26 99 72v182zM344 635l-45 -68c-47 22 -95 51 -135 84l47 73c43 -34 85 -61 133 -89z
" />
    <glyph glyph-name="ohungarumlaut.smcp" horiz-adv-x="576" 
d="M511 365v-210c0 -89 -61 -165 -223 -165s-223 76 -223 165v210c0 89 61 165 223 165s223 -76 223 -165zM387 351c0 46 -26 72 -99 72s-99 -26 -99 -72v-182c0 -46 26 -72 99 -72s99 26 99 72v182zM212 562l-56 55c27 28 59 63 85 99l65 -57c-24 -35 -65 -75 -94 -97z
M377 562l-56 55c27 28 59 63 85 99l65 -57c-24 -35 -65 -75 -94 -97z" />
    <glyph glyph-name="omacron.smcp" horiz-adv-x="576" 
d="M511 365v-210c0 -89 -61 -165 -223 -165s-223 76 -223 165v210c0 89 61 165 223 165s223 -76 223 -165zM387 351c0 46 -26 72 -99 72s-99 -26 -99 -72v-182c0 -46 26 -72 99 -72s99 26 99 72v182zM166 591v74h244v-74h-244z" />
    <glyph glyph-name="oslashacute.smcp" horiz-adv-x="576" 
d="M65 -32l48 73c-34 30 -48 70 -48 114v210c0 89 61 165 223 165c55 0 98 -9 132 -24l49 74l42 -28l-49 -73c34 -30 49 -71 49 -114v-210c0 -89 -61 -165 -223 -165c-56 0 -99 9 -132 24l-49 -74zM189 169c0 -4 0 -8 1 -12l166 253c-15 8 -38 13 -68 13
c-73 0 -99 -26 -99 -72v-182zM387 351c0 4 -1 8 -1 12l-167 -253c16 -9 38 -13 69 -13c73 0 99 26 99 72v182zM270 567l-45 68c48 28 86 52 133 89l47 -73c-48 -35 -88 -58 -135 -84z" />
    <glyph glyph-name="otilde.smcp" horiz-adv-x="576" 
d="M511 365v-210c0 -89 -61 -165 -223 -165s-223 76 -223 165v210c0 89 61 165 223 165s223 -76 223 -165zM387 351c0 46 -26 72 -99 72s-99 -26 -99 -72v-182c0 -46 26 -72 99 -72s99 26 99 72v182zM286 591c-20 13 -32 21 -49 21c-23 0 -38 -22 -51 -40l-50 41
c22 40 57 76 99 76c23 0 39 -5 62 -19c24 -14 38 -22 53 -22c20 0 32 12 41 37l57 -30c-17 -51 -52 -83 -98 -83c-26 0 -43 6 -64 19z" />
    <glyph glyph-name="racute.smcp" horiz-adv-x="587" 
d="M416 0l-102 152h-110v-152h-124v520h244c137 0 182 -54 182 -146v-75c0 -59 -16 -93 -69 -122l120 -177h-141zM321 251c47 0 64 18 64 55v62c0 37 -17 51 -60 51h-121v-168h117zM248 567l-45 68c48 28 86 52 133 89l47 -73c-48 -35 -88 -58 -135 -84z" />
    <glyph glyph-name="rcaron.smcp" horiz-adv-x="587" 
d="M416 0l-102 152h-110v-152h-124v520h244c137 0 182 -54 182 -146v-75c0 -59 -16 -93 -69 -122l120 -177h-141zM321 251c47 0 64 18 64 55v62c0 37 -17 51 -60 51h-121v-168h117zM369 699l34 -57c-44 -27 -71 -46 -117 -84c-46 38 -73 57 -117 84l34 57
c36 -14 54 -25 83 -43c29 18 47 29 83 43z" />
    <glyph glyph-name="rcommaaccent.smcp" horiz-adv-x="587" 
d="M416 0l-102 152h-110v-152h-124v520h244c137 0 182 -54 182 -146v-75c0 -59 -16 -93 -69 -122l120 -177h-141zM321 251c47 0 64 18 64 55v62c0 37 -17 51 -60 51h-121v-168h117zM250 -183v132h117v-140l-64 -104l-53 29l43 83h-43z" />
    <glyph glyph-name="sacute.smcp" horiz-adv-x="499" 
d="M446 150c0 -107 -40 -160 -206 -160c-58 0 -131 11 -185 33l20 94c47 -14 113 -25 166 -25c66 0 81 13 81 53c0 39 -4 49 -107 71c-142 30 -155 69 -155 167c0 111 63 147 201 147c51 0 123 -7 173 -21l-15 -99c-55 12 -112 18 -156 18c-67 0 -79 -8 -79 -49
c0 -44 4 -47 104 -70c147 -34 158 -59 158 -159zM228 567l-45 68c48 28 86 52 133 89l47 -73c-48 -35 -88 -58 -135 -84z" />
    <glyph glyph-name="scaron.smcp" horiz-adv-x="499" 
d="M446 150c0 -107 -40 -160 -206 -160c-58 0 -131 11 -185 33l20 94c47 -14 113 -25 166 -25c66 0 81 13 81 53c0 39 -4 49 -107 71c-142 30 -155 69 -155 167c0 111 63 147 201 147c51 0 123 -7 173 -21l-15 -99c-55 12 -112 18 -156 18c-67 0 -79 -8 -79 -49
c0 -44 4 -47 104 -70c147 -34 158 -59 158 -159zM346 699l34 -57c-44 -27 -71 -46 -117 -84c-46 38 -73 57 -117 84l34 57c36 -14 54 -25 83 -43c29 18 47 29 83 43z" />
    <glyph glyph-name="scedilla.smcp" horiz-adv-x="499" 
d="M358 -119c0 -48 -33 -81 -107 -81c-23 0 -60 6 -83 15l10 47c17 -5 45 -9 65 -9c40 0 49 10 49 29c0 17 -10 24 -38 24c-7 0 -22 -1 -31 -2l-29 14l15 73c-51 3 -109 13 -154 32l20 94c47 -14 113 -25 166 -25c66 0 81 13 81 53c0 39 -4 49 -107 71
c-142 30 -155 69 -155 167c0 111 63 147 201 147c51 0 123 -7 173 -21l-15 -99c-55 12 -112 18 -156 18c-67 0 -79 -8 -79 -49c0 -44 4 -47 104 -70c147 -34 158 -59 158 -159c0 -101 -36 -153 -179 -159l-8 -44c8 1 19 2 28 2c48 1 71 -28 71 -68z" />
    <glyph glyph-name="scircumflex.smcp" horiz-adv-x="499" 
d="M446 150c0 -107 -40 -160 -206 -160c-58 0 -131 11 -185 33l20 94c47 -14 113 -25 166 -25c66 0 81 13 81 53c0 39 -4 49 -107 71c-142 30 -155 69 -155 167c0 111 63 147 201 147c51 0 123 -7 173 -21l-15 -99c-55 12 -112 18 -156 18c-67 0 -79 -8 -79 -49
c0 -44 4 -47 104 -70c147 -34 158 -59 158 -159zM380 627l-34 -57c-36 14 -54 25 -83 43c-29 -18 -47 -29 -83 -43l-34 57c44 27 71 46 117 84c46 -38 73 -57 117 -84z" />
    <glyph glyph-name="scommaaccent.smcp" horiz-adv-x="499" 
d="M446 150c0 -107 -40 -160 -206 -160c-58 0 -131 11 -185 33l20 94c47 -14 113 -25 166 -25c66 0 81 13 81 53c0 39 -4 49 -107 71c-142 30 -155 69 -155 167c0 111 63 147 201 147c51 0 123 -7 173 -21l-15 -99c-55 12 -112 18 -156 18c-67 0 -79 -8 -79 -49
c0 -44 4 -47 104 -70c147 -34 158 -59 158 -159zM204 -183v132h117v-140l-64 -104l-53 29l43 83h-43z" />
    <glyph glyph-name="tbar.smcp" horiz-adv-x="502" 
d="M67 197v64h122v152h-159v107h442v-107h-159v-152h122v-64h-122v-197h-124v197h-122z" />
    <glyph glyph-name="tcaron.smcp" horiz-adv-x="502" 
d="M189 0v413h-159v107h442v-107h-159v-413h-124zM334 699l34 -57c-44 -27 -71 -46 -117 -84c-46 38 -73 57 -117 84l34 57c36 -14 54 -25 83 -43c29 18 47 29 83 43z" />
    <glyph glyph-name="tcommaaccent.smcp" horiz-adv-x="502" 
d="M189 0v413h-159v107h442v-107h-159v-413h-124zM192 -183v132h117v-140l-64 -104l-53 29l43 83h-43z" />
    <glyph glyph-name="thorn.smcp" horiz-adv-x="531" 
d="M311 77h-107v-77h-124v520h124v-70h113c138 0 182 -54 182 -146v-80c0 -94 -51 -147 -188 -147zM312 177c47 0 64 17 64 53v68c0 35 -17 51 -64 51h-108v-172h108z" />
    <glyph glyph-name="uacute.smcp" horiz-adv-x="590" 
d="M391 520h124v-366c0 -83 -51 -164 -220 -164s-220 81 -220 164v366h124v-353c0 -44 23 -70 96 -70s96 26 96 70v353zM272 567l-45 68c48 28 86 52 133 89l47 -73c-48 -35 -88 -58 -135 -84z" />
    <glyph glyph-name="ubreve.smcp" horiz-adv-x="590" 
d="M391 520h124v-366c0 -83 -51 -164 -220 -164s-220 81 -220 164v366h124v-353c0 -44 23 -70 96 -70s96 26 96 70v353zM370 686l58 -31c-13 -52 -57 -93 -133 -93s-120 41 -133 93l58 31c15 -36 39 -52 75 -52s60 16 75 52z" />
    <glyph glyph-name="ucircumflex.smcp" horiz-adv-x="590" 
d="M391 520h124v-366c0 -83 -51 -164 -220 -164s-220 81 -220 164v366h124v-353c0 -44 23 -70 96 -70s96 26 96 70v353zM412 627l-34 -57c-36 14 -54 25 -83 43c-29 -18 -47 -29 -83 -43l-34 57c44 27 71 46 117 84c46 -38 73 -57 117 -84z" />
    <glyph glyph-name="udieresis.smcp" horiz-adv-x="590" 
d="M391 520h124v-366c0 -83 -51 -164 -220 -164s-220 81 -220 164v366h124v-353c0 -44 23 -70 96 -70s96 26 96 70v353zM152 579v96h99v-96h-99zM340 579v96h98v-96h-98z" />
    <glyph glyph-name="ugrave.smcp" horiz-adv-x="590" 
d="M391 520h124v-366c0 -83 -51 -164 -220 -164s-220 81 -220 164v366h124v-353c0 -44 23 -70 96 -70s96 26 96 70v353zM361 635l-45 -68c-47 22 -95 51 -135 84l47 73c43 -34 85 -61 133 -89z" />
    <glyph glyph-name="uhungarumlaut.smcp" horiz-adv-x="590" 
d="M391 520h124v-366c0 -83 -51 -164 -220 -164s-220 81 -220 164v366h124v-353c0 -44 23 -70 96 -70s96 26 96 70v353zM218 562l-56 55c27 28 59 63 85 99l65 -57c-24 -35 -65 -75 -94 -97zM383 562l-56 55c27 28 59 63 85 99l65 -57c-24 -35 -65 -75 -94 -97z" />
    <glyph glyph-name="umacron.smcp" horiz-adv-x="590" 
d="M391 520h124v-366c0 -83 -51 -164 -220 -164s-220 81 -220 164v366h124v-353c0 -44 23 -70 96 -70s96 26 96 70v353zM173 591v74h244v-74h-244z" />
    <glyph glyph-name="uogonek.smcp" horiz-adv-x="590" 
d="M381 -135l14 -58c-21 -9 -40 -14 -69 -14c-64 0 -99 30 -99 80c0 53 50 90 117 120c-15 -2 -31 -3 -49 -3c-169 0 -220 81 -220 164v366h124v-353c0 -44 23 -70 96 -70s96 26 96 70v353h124v-366c0 -57 -24 -113 -92 -142c-88 -53 -110 -89 -110 -119c0 -19 9 -32 37 -32
c12 0 21 1 31 4z" />
    <glyph glyph-name="uring.smcp" horiz-adv-x="590" 
d="M391 520h124v-366c0 -83 -51 -164 -220 -164s-220 81 -220 164v366h124v-353c0 -44 23 -70 96 -70s96 26 96 70v353zM382 638c0 -46 -29 -83 -86 -83s-87 34 -87 83c0 47 30 83 87 83s86 -36 86 -83zM329 638c0 23 -11 37 -33 37s-34 -14 -34 -37c0 -22 12 -36 34 -36
s33 14 33 36z" />
    <glyph glyph-name="utilde.smcp" horiz-adv-x="590" 
d="M286 591c-20 13 -32 21 -49 21c-23 0 -38 -22 -51 -40l-50 41c22 40 57 76 99 76c23 0 39 -5 62 -19c24 -14 38 -22 53 -22c20 0 32 12 41 37l57 -30c-17 -51 -52 -83 -98 -83c-26 0 -43 6 -64 19zM391 520h124v-366c0 -83 -51 -164 -220 -164s-220 81 -220 164v366h124
v-353c0 -44 23 -70 96 -70s96 26 96 70v353z" />
    <glyph glyph-name="wacute.smcp" horiz-adv-x="826" 
d="M482 520l104 -370l101 370h119l-146 -520h-148l-99 383l-99 -383h-148l-146 520h119l101 -370l104 370h138zM417 567l-45 68c48 28 86 52 133 89l47 -73c-48 -35 -88 -58 -135 -84z" />
    <glyph glyph-name="wcircumflex.smcp" horiz-adv-x="826" 
d="M482 520l104 -370l101 370h119l-146 -520h-148l-99 383l-99 -383h-148l-146 520h119l101 -370l104 370h138zM530 627l-34 -57c-36 14 -54 25 -83 43c-29 -18 -47 -29 -83 -43l-34 57c44 27 71 46 117 84c46 -38 73 -57 117 -84z" />
    <glyph glyph-name="wdieresis.smcp" horiz-adv-x="826" 
d="M482 520l104 -370l101 370h119l-146 -520h-148l-99 383l-99 -383h-148l-146 520h119l101 -370l104 370h138zM270 579v96h99v-96h-99zM458 579v96h98v-96h-98z" />
    <glyph glyph-name="wgrave.smcp" horiz-adv-x="826" 
d="M482 520l104 -370l101 370h119l-146 -520h-148l-99 383l-99 -383h-148l-146 520h119l101 -370l104 370h138zM462 635l-45 -68c-47 22 -95 51 -135 84l47 73c43 -34 85 -61 133 -89z" />
    <glyph glyph-name="yacute.smcp" horiz-adv-x="514" 
d="M195 0v149l-185 371h126l121 -254l121 254h126l-185 -371v-149h-124zM251 567l-45 68c48 28 86 52 133 89l47 -73c-48 -35 -88 -58 -135 -84z" />
    <glyph glyph-name="ycircumflex.smcp" horiz-adv-x="514" 
d="M195 0v149l-185 371h126l121 -254l121 254h126l-185 -371v-149h-124zM374 627l-34 -57c-36 14 -54 25 -83 43c-29 -18 -47 -29 -83 -43l-34 57c44 27 71 46 117 84c46 -38 73 -57 117 -84z" />
    <glyph glyph-name="ydieresis.smcp" horiz-adv-x="514" 
d="M195 0v149l-185 371h126l121 -254l121 254h126l-185 -371v-149h-124zM114 579v96h99v-96h-99zM302 579v96h98v-96h-98z" />
    <glyph glyph-name="ygrave.smcp" horiz-adv-x="514" 
d="M195 0v149l-185 371h126l121 -254l121 254h126l-185 -371v-149h-124zM316 635l-45 -68c-47 22 -95 51 -135 84l47 73c43 -34 85 -61 133 -89z" />
    <glyph glyph-name="zacute.smcp" horiz-adv-x="540" 
d="M471 429l-255 -331h259v-98h-405v91l256 331h-254v98h399v-91zM243 567l-45 68c48 28 86 52 133 89l47 -73c-48 -35 -88 -58 -135 -84z" />
    <glyph glyph-name="zcaron.smcp" horiz-adv-x="540" 
d="M471 429l-255 -331h259v-98h-405v91l256 331h-254v98h399v-91zM365 699l34 -57c-44 -27 -71 -46 -117 -84c-46 38 -73 57 -117 84l34 57c36 -14 54 -25 83 -43c29 18 47 29 83 43z" />
    <glyph glyph-name="zdotaccent.smcp" horiz-adv-x="540" 
d="M471 429l-255 -331h259v-98h-405v91l256 331h-254v98h399v-91zM339 579h-122v141h122v-141z" />
    <glyph glyph-name="ornm01.ornm" horiz-adv-x="927" 
d="M383 0l-333 333l333 333l64 -65l-226 -222h636v-92h-636l226 -222z" />
    <glyph glyph-name="ornm02.ornm" horiz-adv-x="927" 
d="M877 333l-333 -333l-64 65l226 222h-636v92h636l-226 222l64 65z" />
    <glyph glyph-name="ornm03.ornm" horiz-adv-x="764" 
d="M699 128l-66 -65l-450 449v-317h-88v471h471v-88h-317z" />
    <glyph glyph-name="ornm04.ornm" horiz-adv-x="764" 
d="M131 63l-66 65l450 450h-317v88h471v-471h-89v317z" />
    <glyph glyph-name="ornm05.ornm" horiz-adv-x="764" 
d="M633 604l66 -66l-450 -450h317v-88h-471v471h88v-317z" />
    <glyph glyph-name="ornm06.ornm" horiz-adv-x="764" 
d="M65 538l66 66l449 -450v317h89v-471h-471v88h317z" />
    <glyph glyph-name="ornm07.ornm" horiz-adv-x="776" 
d="M55 341l333 333l333 -333l-65 -64l-222 226v-700h-92v700l-222 -226z" />
    <glyph glyph-name="ornm08.ornm" horiz-adv-x="776" 
d="M388 -197l-333 333l65 64l222 -226v692h92v-692l222 226l65 -64z" />
    <glyph glyph-name="ornm09.ornm" horiz-adv-x="950" 
d="M880 381v-96h-522v96h522zM447 65l-64 -65l-333 333l333 333l64 -64l-269 -269z" />
    <glyph glyph-name="ornm10.ornm" horiz-adv-x="950" 
d="M70 285v96h522v-96h-522zM567 0l-64 65l269 268l-269 269l64 64l333 -333z" />
    <glyph glyph-name="ornm11.ornm" horiz-adv-x="781" 
d="M716 113l-68 -67l-369 369l68 67zM186 196h-91v470h471v-90h-380v-380z" />
    <glyph glyph-name="ornm12.ornm" horiz-adv-x="781" 
d="M133 46l-68 67l369 369l68 -67zM686 195h-91v381h-380v90h471v-471z" />
    <glyph glyph-name="ornm13.ornm" horiz-adv-x="781" 
d="M648 620l68 -67l-369 -369l-68 68zM95 470h91v-379h380v-91h-471v470z" />
    <glyph glyph-name="ornm14.ornm" horiz-adv-x="781" 
d="M65 553l68 67l369 -368l-68 -68zM595 471h91v-471h-471v91h380v380z" />
    <glyph glyph-name="ornm15.ornm" horiz-adv-x="776" 
d="M436 -197h-96v565h96v-565zM120 279l-65 64l333 333l333 -333l-64 -64l-269 269z" />
    <glyph glyph-name="ornm16.ornm" horiz-adv-x="776" 
d="M340 666h96v-555h-96v555zM55 136l65 64l268 -269l269 269l64 -64l-333 -333z" />
    <glyph glyph-name="ornm17.ornm" horiz-adv-x="711" 
d="M641 379v-92h-430l139 -136l-63 -65l-247 247l247 247l63 -65l-139 -136h430z" />
    <glyph glyph-name="ornm18.ornm" horiz-adv-x="711" 
d="M70 287v92h430l-139 136l63 65l247 -247l-247 -247l-63 65l139 136h-430z" />
    <glyph glyph-name="ornm19.ornm" horiz-adv-x="607" 
d="M542 274l-65 -65l-304 304v-196h-88v349h349v-88h-196z" />
    <glyph glyph-name="ornm20.ornm" horiz-adv-x="607" 
d="M130 209l-65 65l304 304h-196v88h349v-349h-88v196z" />
    <glyph glyph-name="ornm21.ornm" horiz-adv-x="607" 
d="M477 457l65 -65l-304 -304h196v-88h-349v349h88v-196z" />
    <glyph glyph-name="ornm22.ornm" horiz-adv-x="607" 
d="M65 392l65 65l304 -304v196h88v-349h-349v88h196z" />
    <glyph glyph-name="ornm23.ornm" horiz-adv-x="604" 
d="M348 0h-92v505l-136 -139l-65 63l247 247l247 -247l-65 -63l-136 139v-505z" />
    <glyph glyph-name="ornm24.ornm" horiz-adv-x="604" 
d="M256 666h92v-505l136 139l65 -63l-247 -247l-247 247l65 63l136 -139v505z" />
    <glyph glyph-name="ornm25.ornm" horiz-adv-x="726" 
d="M351 151l-64 -65l-247 247l247 247l64 -64l-183 -183zM656 381v-96h-361v96h361z" />
    <glyph glyph-name="ornm26.ornm" horiz-adv-x="726" 
d="M439 86l-64 65l183 182l-183 183l64 64l247 -247zM70 285v96h361v-96h-361z" />
    <glyph glyph-name="ornm27.ornm" horiz-adv-x="620" 
d="M176 316h-91v350h349v-91h-258v-259zM555 264l-68 -67l-255 255l67 68z" />
    <glyph glyph-name="ornm28.ornm" horiz-adv-x="619" 
d="M534 316h-91v259h-258v91h349v-350zM132 197l-67 67l255 256l68 -68z" />
    <glyph glyph-name="ornm29.ornm" horiz-adv-x="620" 
d="M85 350h91v-259h258v-91h-349v350zM487 470l68 -68l-256 -256l-67 68z" />
    <glyph glyph-name="ornm30.ornm" horiz-adv-x="619" 
d="M443 350h91v-350h-349v91h258v259zM65 402l67 68l256 -256l-68 -68z" />
    <glyph glyph-name="ornm31.ornm" horiz-adv-x="604" 
d="M119 365l-64 64l247 247l247 -247l-65 -64l-182 183zM350 0h-96v421h96v-421z" />
    <glyph glyph-name="ornm32.ornm" horiz-adv-x="604" 
d="M55 237l64 64l183 -183l182 183l65 -64l-247 -247zM254 666h96v-421h-96v421z" />
    <glyph glyph-name="ornm33.ornm" horiz-adv-x="786" 
d="M50 333c0 189 154 343 343 343s343 -154 343 -343s-154 -343 -343 -343s-343 154 -343 343zM171 333l220 -219l58 59l-122 118h288v85h-288l122 118l-58 59z" />
    <glyph glyph-name="ornm34.ornm" horiz-adv-x="786" 
d="M736 333c0 -189 -154 -343 -343 -343s-343 154 -343 343s154 343 343 343s343 -154 343 -343zM395 114l221 219l-221 220l-57 -59l121 -118h-287v-85h287l-121 -118z" />
    <glyph glyph-name="ornm35.ornm" horiz-adv-x="786" 
d="M50 333c0 189 154 343 343 343s343 -154 343 -343s-154 -343 -343 -343s-343 154 -343 343zM237 491v-309h80v169l204 -203l60 60l-203 201h170v82h-311z" />
    <glyph glyph-name="ornm36.ornm" horiz-adv-x="786" 
d="M736 333c0 -189 -154 -343 -343 -343s-343 154 -343 343s154 343 343 343s343 -154 343 -343zM549 182v309h-310v-82h170l-203 -201l59 -60l204 203v-169h80z" />
    <glyph glyph-name="ornm37.ornm" horiz-adv-x="786" 
d="M50 333c0 189 154 343 343 343s343 -154 343 -343s-154 -343 -343 -343s-343 154 -343 343zM237 485v-309h311v82h-170l203 201l-60 60l-204 -203v169h-80z" />
    <glyph glyph-name="ornm38.ornm" horiz-adv-x="786" 
d="M736 333c0 -189 -154 -343 -343 -343s-343 154 -343 343s154 343 343 343s343 -154 343 -343zM549 176v309h-80v-169l-204 203l-59 -60l203 -201h-170v-82h310z" />
    <glyph glyph-name="ornm39.ornm" horiz-adv-x="786" 
d="M393 676c189 0 343 -154 343 -343s-154 -343 -343 -343s-343 154 -343 343s154 343 343 343zM393 566l-219 -220l59 -58l118 121v-287h85v287l118 -121l59 58z" />
    <glyph glyph-name="ornm40.ornm" horiz-adv-x="786" 
d="M393 -10c-189 0 -343 154 -343 343s154 343 343 343s343 -154 343 -343s-154 -343 -343 -343zM174 321l219 -221l220 221l-59 57l-118 -121v287h-85v-287l-118 121z" />
    <glyph glyph-name="ornm41.ornm" horiz-adv-x="786" 
d="M50 333c0 189 154 343 343 343s343 -154 343 -343s-154 -343 -343 -343s-343 154 -343 343zM389 113l58 58l-161 162l161 160l-58 60l-221 -220zM623 290v87h-218v-87h218z" />
    <glyph glyph-name="ornm42.ornm" horiz-adv-x="786" 
d="M736 333c0 -189 -154 -343 -343 -343s-343 154 -343 343s154 343 343 343s343 -154 343 -343zM339 171l59 -58l220 220l-220 220l-59 -60l161 -160zM163 377v-87h218v87h-218z" />
    <glyph glyph-name="ornm43.ornm" horiz-adv-x="786" 
d="M50 333c0 189 154 343 343 343s343 -154 343 -343s-154 -343 -343 -343s-343 154 -343 343zM237 184h84v228h227v83h-311v-311zM528 143l62 62l-154 154l-62 -62z" />
    <glyph glyph-name="ornm44.ornm" horiz-adv-x="786" 
d="M736 333c0 -189 -154 -343 -343 -343s-343 154 -343 343s154 343 343 343s343 -154 343 -343zM465 184h84v311h-311l1 -83h226v-228zM197 205l61 -62l154 154l-61 62z" />
    <glyph glyph-name="ornm45.ornm" horiz-adv-x="786" 
d="M50 333c0 189 154 343 343 343s343 -154 343 -343s-154 -343 -343 -343s-343 154 -343 343zM322 486h-83v-312h311l-1 84h-227v228zM591 465l-62 62l-154 -154l62 -62z" />
    <glyph glyph-name="ornm46.ornm" horiz-adv-x="786" 
d="M736 333c0 -189 -154 -343 -343 -343s-343 154 -343 343s154 343 343 343s343 -154 343 -343zM548 486h-84v-228h-227v-84h311v312zM257 527l-62 -62l154 -154l62 62z" />
    <glyph glyph-name="ornm47.ornm" horiz-adv-x="786" 
d="M393 676c189 0 343 -154 343 -343s-154 -343 -343 -343s-343 154 -343 343s154 343 343 343zM173 347l58 -59l162 161l160 -161l60 59l-220 220zM350 112h87v218h-87v-218z" />
    <glyph glyph-name="ornm48.ornm" horiz-adv-x="786" 
d="M393 -10c-189 0 -343 154 -343 343s154 343 343 343s343 -154 343 -343s-154 -343 -343 -343zM231 378l-58 -59l220 -220l220 220l-60 59l-160 -161zM437 554h-87v-218h87v218z" />
    <glyph glyph-name="ornm49.ornm" horiz-adv-x="786" 
d="M50 333c0 189 154 343 343 343s343 -154 343 -343s-154 -343 -343 -343s-343 154 -343 343zM207 208l61 -61l125 125l125 -125l61 61l-125 125l125 125l-62 62l-124 -125l-124 125l-62 -62l125 -125z" />
    <glyph glyph-name="ornm50.ornm" horiz-adv-x="786" 
d="M50 333c0 189 154 343 343 343s343 -154 343 -343s-154 -343 -343 -343s-343 154 -343 343zM518 147l61 61l-125 125l-61 -61zM207 208l61 -61l125 125l-61 61zM454 333l125 125l-62 62l-124 -125zM269 520l-62 -62l125 -125l61 62z" />
    <glyph glyph-name="ornm51.ornm" horiz-adv-x="786" 
d="M50 333c0 189 154 343 343 343s343 -154 343 -343s-154 -343 -343 -343s-343 154 -343 343zM174 376v-85h177v-177h85v177h177v85h-177v177h-85v-177h-177z" />
    <glyph glyph-name="ornm52.ornm" horiz-adv-x="786" 
d="M50 333c0 189 154 343 343 343s343 -154 343 -343s-154 -343 -343 -343s-343 154 -343 343zM351 376h85v177h-85v-177zM436 291h-85v-177h85v177zM436 376v-85h177v85h-177zM351 291v85h-177v-85h177z" />
    <glyph glyph-name="ornm53.ornm" horiz-adv-x="806" 
d="M35 333l686 343v-686z" />
    <glyph glyph-name="ornm54.ornm" horiz-adv-x="806" 
d="M85 676l686 -343l-686 -343v686z" />
    <glyph glyph-name="ornm55.ornm" horiz-adv-x="806" 
d="M667 588l-512 -255l512 -255v510zM35 333l686 343v-686z" />
    <glyph glyph-name="ornm56.ornm" horiz-adv-x="806" 
d="M651 333l-512 255v-510zM85 676l686 -343l-686 -343v686z" />
    <glyph glyph-name="ornm57.ornm" horiz-adv-x="627" 
d="M542 -11l-507 254l507 254v-508z" />
    <glyph glyph-name="ornm58.ornm" horiz-adv-x="627" 
d="M592 243l-507 -254v508z" />
    <glyph glyph-name="ornm59.ornm" horiz-adv-x="627" 
d="M148 243l340 -169v337zM542 -11l-507 254l507 254v-508z" />
    <glyph glyph-name="ornm60.ornm" horiz-adv-x="627" 
d="M138 74l340 169l-340 168v-337zM592 243l-507 -254v508z" />
    <glyph glyph-name="ornm61.ornm" horiz-adv-x="786" 
d="M393 676l338 -676h-676z" />
    <glyph glyph-name="ornm62.ornm" horiz-adv-x="786" 
d="M731 666l-338 -676l-338 676h676z" />
    <glyph glyph-name="ornm63.ornm" horiz-adv-x="785" 
d="M644 53l-251 504l-252 -504h503zM393 676l337 -676h-675z" />
    <glyph glyph-name="ornm64.ornm" horiz-adv-x="785" 
d="M393 110l251 503h-503zM730 666l-337 -676l-338 676h675z" />
    <glyph glyph-name="ornm65.ornm" horiz-adv-x="607" 
d="M303 497l249 -497h-497z" />
    <glyph glyph-name="ornm66.ornm" horiz-adv-x="607" 
d="M552 487l-249 -497l-248 497h497z" />
    <glyph glyph-name="ornm67.ornm" horiz-adv-x="607" 
d="M469 53l-165 332l-165 -332h330zM303 497l249 -497h-497z" />
    <glyph glyph-name="ornm68.ornm" horiz-adv-x="607" 
d="M304 102l165 333h-330zM552 487l-249 -497l-248 497h497z" />
    <glyph glyph-name="ornm69.ornm" horiz-adv-x="836" 
d="M85 0v666h666v-666h-666z" />
    <glyph glyph-name="ornm70.ornm" horiz-adv-x="836" 
d="M140 611v-556h556v556h-556zM85 0v666h666v-666h-666z" />
    <glyph glyph-name="ornm71.ornm" horiz-adv-x="657" 
d="M85 0v487h487v-487h-487z" />
    <glyph glyph-name="ornm72.ornm" horiz-adv-x="657" 
d="M138 435v-382h382v382h-382zM85 0v487h487v-487h-487z" />
    <glyph glyph-name="ornm73.ornm" horiz-adv-x="836" 
d="M85 0v666h666v-666h-666zM662 55l-522 523v-523h522zM697 611h-522l522 -520v520z" />
    <glyph glyph-name="ornm74.ornm" horiz-adv-x="657" 
d="M85 0v487h487v-487h-487zM485 53l-347 347v-347h347zM520 435h-350l350 -350v350z" />
    </font>
</defs>
</svg>
